G04*
G04 #@! TF.GenerationSoftware,Altium Limited,Altium Designer,24.2.2 (26)*
G04*
G04 Layer_Color=2752767*
%FSLAX25Y25*%
%MOIN*%
G70*
G04*
G04 #@! TF.SameCoordinates,FC8948EB-AED8-47B0-A6AC-AC1B72ED221E*
G04*
G04*
G04 #@! TF.FilePolarity,Positive*
G04*
G01*
G75*
%ADD62C,0.00200*%
%ADD63C,0.00267*%
D62*
X144397Y158334D02*
Y159934D01*
X145997D01*
Y158334D01*
X144397D01*
X144082Y87389D02*
Y88989D01*
X145682D01*
Y87389D01*
X144082D01*
X192704Y122901D02*
Y124501D01*
X194304D01*
Y122901D01*
X192704D01*
X39370Y18885D02*
X38570Y20485D01*
X40170D01*
X39370Y18885D01*
Y215735D02*
X38570Y217335D01*
X40170D01*
X39370Y215735D01*
X196850D02*
X196050Y217335D01*
X197650D01*
X196850Y215735D01*
Y18885D02*
X196050Y20485D01*
X197650D01*
X196850Y18885D01*
X75122Y94672D02*
X75522Y95072D01*
X75922D01*
X75522Y95472D01*
X75922Y95872D01*
X75522D01*
X75122Y96272D01*
X74722Y95872D01*
X74322D01*
X74722Y95472D01*
X74322Y95072D01*
X74722D01*
X75122Y94672D01*
X14961Y104515D02*
X15361Y104915D01*
X15761D01*
X15361Y105315D01*
X15761Y105715D01*
X15361D01*
X14961Y106115D01*
X14561Y105715D01*
X14161D01*
X14561Y105315D01*
X14161Y104915D01*
X14561D01*
X14961Y104515D01*
X20472Y96641D02*
X20872Y97041D01*
X21272D01*
X20872Y97441D01*
X21272Y97841D01*
X20872D01*
X20472Y98241D01*
X20072Y97841D01*
X19672D01*
X20072Y97441D01*
X19672Y97041D01*
X20072D01*
X20472Y96641D01*
Y88767D02*
X20872Y89167D01*
X21272D01*
X20872Y89567D01*
X21272Y89967D01*
X20872D01*
X20472Y90367D01*
X20072Y89967D01*
X19672D01*
X20072Y89567D01*
X19672Y89167D01*
X20072D01*
X20472Y88767D01*
Y145853D02*
X20872Y146254D01*
X21272D01*
X20872Y146653D01*
X21272Y147054D01*
X20872D01*
X20472Y147453D01*
X20072Y147054D01*
X19672D01*
X20072Y146653D01*
X19672Y146254D01*
X20072D01*
X20472Y145853D01*
X61417Y186208D02*
X61817Y186608D01*
X62217D01*
X61817Y187008D01*
X62217Y187408D01*
X61817D01*
X61417Y187808D01*
X61017Y187408D01*
X60617D01*
X61017Y187008D01*
X60617Y186608D01*
X61017D01*
X61417Y186208D01*
X107480Y211011D02*
X107880Y211411D01*
X108280D01*
X107880Y211811D01*
X108280Y212211D01*
X107880D01*
X107480Y212611D01*
X107080Y212211D01*
X106680D01*
X107080Y211811D01*
X106680Y211411D01*
X107080D01*
X107480Y211011D01*
X138189Y216916D02*
X138589Y217317D01*
X138989D01*
X138589Y217717D01*
X138989Y218116D01*
X138589D01*
X138189Y218516D01*
X137789Y218116D01*
X137389D01*
X137789Y217717D01*
X137389Y217317D01*
X137789D01*
X138189Y216916D01*
X104739Y134043D02*
X105139Y134442D01*
X105539D01*
X105139Y134843D01*
X105539Y135242D01*
X105139D01*
X104739Y135643D01*
X104339Y135242D01*
X103939D01*
X104339Y134843D01*
X103939Y134442D01*
X104339D01*
X104739Y134043D01*
X101575Y96444D02*
X101975Y96844D01*
X102375D01*
X101975Y97244D01*
X102375Y97644D01*
X101975D01*
X101575Y98044D01*
X101175Y97644D01*
X100775D01*
X101175Y97244D01*
X100775Y96844D01*
X101175D01*
X101575Y96444D01*
X89310Y66790D02*
X89710Y67190D01*
X90110D01*
X89710Y67590D01*
X90110Y67990D01*
X89710D01*
X89310Y68390D01*
X88910Y67990D01*
X88510D01*
X88910Y67590D01*
X88510Y67190D01*
X88910D01*
X89310Y66790D01*
X59842Y72035D02*
X60242Y72435D01*
X60642D01*
X60242Y72835D01*
X60642Y73235D01*
X60242D01*
X59842Y73635D01*
X59443Y73235D01*
X59043D01*
X59443Y72835D01*
X59043Y72435D01*
X59443D01*
X59842Y72035D01*
X109055Y52743D02*
X109455Y53143D01*
X109855D01*
X109455Y53543D01*
X109855Y53943D01*
X109455D01*
X109055Y54343D01*
X108655Y53943D01*
X108255D01*
X108655Y53543D01*
X108255Y53143D01*
X108655D01*
X109055Y52743D01*
X83465Y69672D02*
X83865Y70072D01*
X84265D01*
X83865Y70472D01*
X84265Y70872D01*
X83865D01*
X83465Y71272D01*
X83065Y70872D01*
X82665D01*
X83065Y70472D01*
X82665Y70072D01*
X83065D01*
X83465Y69672D01*
X125591Y28728D02*
X125991Y29128D01*
X126391D01*
X125991Y29528D01*
X126391Y29928D01*
X125991D01*
X125591Y30328D01*
X125191Y29928D01*
X124791D01*
X125191Y29528D01*
X124791Y29128D01*
X125191D01*
X125591Y28728D01*
X120079Y99594D02*
X120479Y99994D01*
X120879D01*
X120479Y100394D01*
X120879Y100794D01*
X120479D01*
X120079Y101194D01*
X119679Y100794D01*
X119279D01*
X119679Y100394D01*
X119279Y99994D01*
X119679D01*
X120079Y99594D01*
X120122Y85705D02*
X120522Y86105D01*
X120922D01*
X120522Y86505D01*
X120922Y86905D01*
X120522D01*
X120122Y87305D01*
X119722Y86905D01*
X119322D01*
X119722Y86505D01*
X119322Y86105D01*
X119722D01*
X120122Y85705D01*
X4724Y46838D02*
X5124Y47238D01*
X5524D01*
X5124Y47638D01*
X5524Y48038D01*
X5124D01*
X4724Y48438D01*
X4324Y48038D01*
X3924D01*
X4324Y47638D01*
X3924Y47238D01*
X4324D01*
X4724Y46838D01*
X4724Y187783D02*
X5124Y188183D01*
X5524D01*
X5124Y188583D01*
X5524Y188983D01*
X5124D01*
X4724Y189383D01*
X4324Y188983D01*
X3924D01*
X4324Y188583D01*
X3924Y188183D01*
X4324D01*
X4724Y187783D01*
D63*
X145682Y115394D02*
G03*
X145682Y115394I-800J0D01*
G01*
X170682D02*
G03*
X170682Y115394I-800J0D01*
G01*
Y131929D02*
G03*
X170682Y131929I-800J0D01*
G01*
X145682D02*
G03*
X145682Y131929I-800J0D01*
G01*
M02*
