G04*
G04 #@! TF.GenerationSoftware,Altium Limited,Altium Designer,24.2.2 (26)*
G04*
G04 Layer_Color=8388736*
%FSLAX25Y25*%
%MOIN*%
G70*
G04*
G04 #@! TF.SameCoordinates,FC8948EB-AED8-47B0-A6AC-AC1B72ED221E*
G04*
G04*
G04 #@! TF.FilePolarity,Negative*
G04*
G01*
G75*
%ADD16R,0.07874X0.15748*%
%ADD23R,0.04921X0.04331*%
%ADD24R,0.07087X0.05276*%
%ADD25R,0.15748X0.07874*%
%ADD29R,0.05136X0.05733*%
%ADD30R,0.05756X0.05542*%
%ADD31R,0.05733X0.05136*%
%ADD32R,0.06109X0.05124*%
%ADD33R,0.12998X0.06699*%
%ADD34R,0.04724X0.01575*%
G04:AMPARAMS|DCode=35|XSize=25.65mil|YSize=53.21mil|CornerRadius=3.95mil|HoleSize=0mil|Usage=FLASHONLY|Rotation=90.000|XOffset=0mil|YOffset=0mil|HoleType=Round|Shape=RoundedRectangle|*
%AMROUNDEDRECTD35*
21,1,0.02565,0.04532,0,0,90.0*
21,1,0.01776,0.05321,0,0,90.0*
1,1,0.00790,0.02266,0.00888*
1,1,0.00790,0.02266,-0.00888*
1,1,0.00790,-0.02266,-0.00888*
1,1,0.00790,-0.02266,0.00888*
%
%ADD35ROUNDEDRECTD35*%
%ADD36R,0.05124X0.06109*%
%ADD37R,0.04534X0.04140*%
%ADD38R,0.11424X0.12211*%
%ADD39R,0.06109X0.04534*%
%ADD40O,0.05321X0.02565*%
%ADD41R,0.06502X0.05912*%
%ADD42C,0.22054*%
%ADD43C,0.07487*%
%ADD44R,0.07487X0.07487*%
%ADD45C,0.19298*%
G36*
X67386Y18673D02*
Y18595D01*
X67618D01*
Y18518D01*
X68081D01*
Y18441D01*
X68931D01*
Y18364D01*
X69858D01*
Y18286D01*
X70784D01*
Y18209D01*
X71711D01*
Y18132D01*
X72638D01*
Y18055D01*
X73564D01*
Y17977D01*
X74414D01*
Y17900D01*
X74723D01*
Y17823D01*
X75032D01*
Y17746D01*
X75264D01*
Y17669D01*
X75495D01*
Y17591D01*
X75650D01*
Y17514D01*
X75804D01*
Y17437D01*
X75959D01*
Y17360D01*
X76113D01*
Y17282D01*
X76190D01*
Y17205D01*
X76345D01*
Y17128D01*
X76499D01*
Y17051D01*
X76576D01*
Y16974D01*
X76654D01*
Y16896D01*
X76808D01*
Y16819D01*
X76885D01*
Y16742D01*
X76963D01*
Y16665D01*
X77040D01*
Y16587D01*
X77117D01*
Y16510D01*
X77194D01*
Y16433D01*
X77271D01*
Y16356D01*
X77349D01*
Y16278D01*
X77426D01*
Y16201D01*
X77503D01*
Y16124D01*
X77580D01*
Y16047D01*
X77658D01*
Y15892D01*
X77735D01*
Y15815D01*
X77812D01*
Y15661D01*
X77889D01*
Y15583D01*
X77966D01*
Y15429D01*
X78044D01*
Y15352D01*
X78121D01*
Y15197D01*
X78198D01*
Y15043D01*
X78275D01*
Y14888D01*
X78353D01*
Y14657D01*
X78430D01*
Y14502D01*
X78507D01*
Y14271D01*
X78584D01*
Y13962D01*
X78662D01*
Y13576D01*
X78739D01*
Y11876D01*
X78662D01*
Y11490D01*
X78584D01*
Y11259D01*
X78507D01*
Y11027D01*
X78430D01*
Y10795D01*
X78353D01*
Y10564D01*
X78275D01*
Y10409D01*
X78198D01*
Y10255D01*
X78121D01*
Y10177D01*
X78044D01*
Y10023D01*
X77966D01*
Y9869D01*
X77889D01*
Y9791D01*
X77812D01*
Y9637D01*
X77735D01*
Y9560D01*
X77658D01*
Y9482D01*
X77580D01*
Y9328D01*
X77503D01*
Y9251D01*
X77426D01*
Y9173D01*
X77349D01*
Y9096D01*
X77271D01*
Y9019D01*
X77194D01*
Y8942D01*
X77117D01*
Y8865D01*
X77040D01*
Y8787D01*
X76963D01*
Y8710D01*
X76885D01*
Y8633D01*
X76731D01*
Y8556D01*
X76654D01*
Y8478D01*
X76576D01*
Y8401D01*
X76422D01*
Y8324D01*
X76345D01*
Y8247D01*
X76190D01*
Y8170D01*
X76036D01*
Y8092D01*
X75959D01*
Y8015D01*
X75804D01*
Y7938D01*
X75573D01*
Y7861D01*
X75418D01*
Y7783D01*
X75186D01*
Y7706D01*
X74955D01*
Y7629D01*
X74646D01*
Y7552D01*
X74260D01*
Y7474D01*
X66923D01*
Y8942D01*
X66846D01*
Y9251D01*
X66768D01*
Y9482D01*
X66691D01*
Y9637D01*
X66614D01*
Y9869D01*
X66537D01*
Y9946D01*
X66460D01*
Y10100D01*
X66382D01*
Y10255D01*
X66305D01*
Y10332D01*
X66228D01*
Y10409D01*
X66151D01*
Y10486D01*
X66073D01*
Y10641D01*
X65996D01*
Y10718D01*
X65919D01*
Y10795D01*
X65842D01*
Y10872D01*
X65687D01*
Y10950D01*
X65610D01*
Y11027D01*
X65533D01*
Y11104D01*
X65378D01*
Y11181D01*
X65301D01*
Y11259D01*
X65147D01*
Y11336D01*
X64992D01*
Y11413D01*
X64838D01*
Y11490D01*
X64606D01*
Y11568D01*
X64297D01*
Y11645D01*
X63757D01*
Y11722D01*
X63370D01*
Y11645D01*
X62830D01*
Y11568D01*
X62521D01*
Y11490D01*
X62289D01*
Y11413D01*
X62135D01*
Y11336D01*
X61980D01*
Y11259D01*
X61826D01*
Y11181D01*
X61671D01*
Y11104D01*
X61594D01*
Y11027D01*
X61517D01*
Y10950D01*
X61362D01*
Y10872D01*
X61285D01*
Y10795D01*
X61208D01*
Y10718D01*
X61131D01*
Y10641D01*
X61054D01*
Y10564D01*
X60976D01*
Y10486D01*
X60899D01*
Y10332D01*
X60822D01*
Y10255D01*
X60745D01*
Y10100D01*
X60667D01*
Y10023D01*
X60590D01*
Y9869D01*
X60513D01*
Y9714D01*
X60436D01*
Y9560D01*
X60359D01*
Y9328D01*
X60281D01*
Y9019D01*
X60204D01*
Y7474D01*
X58505D01*
Y11568D01*
X58582D01*
Y11954D01*
X58659D01*
Y12263D01*
X58737D01*
Y12494D01*
X58814D01*
Y12726D01*
X58891D01*
Y12880D01*
X58968D01*
Y13035D01*
X59046D01*
Y13189D01*
X59123D01*
Y13344D01*
X59200D01*
Y13498D01*
X59277D01*
Y13576D01*
X59355D01*
Y13730D01*
X59432D01*
Y13807D01*
X59509D01*
Y13962D01*
X59586D01*
Y14039D01*
X59663D01*
Y14116D01*
X59741D01*
Y14193D01*
X59818D01*
Y14271D01*
X59895D01*
Y14348D01*
X59972D01*
Y14425D01*
X60050D01*
Y14502D01*
X60127D01*
Y14580D01*
X60204D01*
Y14657D01*
X60281D01*
Y14734D01*
X60359D01*
Y14811D01*
X60436D01*
Y14888D01*
X60590D01*
Y14966D01*
X60667D01*
Y15043D01*
X60822D01*
Y15120D01*
X60899D01*
Y15197D01*
X61054D01*
Y15274D01*
X61208D01*
Y15352D01*
X61362D01*
Y15429D01*
X61517D01*
Y15506D01*
X61671D01*
Y15583D01*
X61903D01*
Y15661D01*
X62135D01*
Y15738D01*
X62444D01*
Y15815D01*
X62907D01*
Y15892D01*
X64220D01*
Y15815D01*
X64683D01*
Y15738D01*
X64992D01*
Y15661D01*
X65224D01*
Y15583D01*
X65378D01*
Y15506D01*
X65610D01*
Y15429D01*
X65764D01*
Y15352D01*
X65919D01*
Y15274D01*
X66073D01*
Y15197D01*
X66151D01*
Y15120D01*
X66305D01*
Y15043D01*
X66460D01*
Y14966D01*
X66537D01*
Y14888D01*
X66614D01*
Y14811D01*
X66768D01*
Y14734D01*
X66846D01*
Y14657D01*
X66923D01*
Y14580D01*
X67000D01*
Y14502D01*
X67077D01*
Y14425D01*
X67155D01*
Y14348D01*
X67232D01*
Y14271D01*
X67309D01*
Y14193D01*
X67386D01*
Y14116D01*
X67463D01*
Y14039D01*
X67541D01*
Y13884D01*
X67618D01*
Y13807D01*
X67695D01*
Y13730D01*
X67772D01*
Y13576D01*
X67850D01*
Y13421D01*
X67927D01*
Y13344D01*
X68004D01*
Y13189D01*
X68081D01*
Y13035D01*
X68159D01*
Y12880D01*
X68236D01*
Y12649D01*
X68313D01*
Y12494D01*
X68390D01*
Y12185D01*
X68467D01*
Y11876D01*
X68545D01*
Y11490D01*
X68622D01*
Y8710D01*
X69162D01*
Y8787D01*
X69549D01*
Y8865D01*
X69858D01*
Y8942D01*
X70089D01*
Y9019D01*
X70244D01*
Y9096D01*
X70398D01*
Y9173D01*
X70553D01*
Y9251D01*
X70707D01*
Y9328D01*
X70784D01*
Y9405D01*
X70939D01*
Y9482D01*
X71016D01*
Y9560D01*
X71171D01*
Y9637D01*
X71248D01*
Y9714D01*
X71325D01*
Y9791D01*
X71402D01*
Y9869D01*
X71479D01*
Y9946D01*
X71557D01*
Y10023D01*
X71634D01*
Y10100D01*
X71711D01*
Y10177D01*
X71788D01*
Y10332D01*
X71865D01*
Y10409D01*
X71943D01*
Y10564D01*
X72020D01*
Y10641D01*
X72097D01*
Y10795D01*
X72174D01*
Y10950D01*
X72252D01*
Y11104D01*
X72329D01*
Y11259D01*
X72406D01*
Y11490D01*
X72483D01*
Y11799D01*
X72561D01*
Y12185D01*
X72638D01*
Y13344D01*
X72561D01*
Y13730D01*
X72483D01*
Y13962D01*
X72406D01*
Y14193D01*
X72329D01*
Y14348D01*
X72252D01*
Y14502D01*
X72174D01*
Y14657D01*
X72097D01*
Y14811D01*
X72020D01*
Y14966D01*
X71943D01*
Y15043D01*
X71865D01*
Y15120D01*
X71788D01*
Y15274D01*
X71711D01*
Y15352D01*
X71634D01*
Y15429D01*
X71557D01*
Y15506D01*
X71479D01*
Y15583D01*
X71402D01*
Y15661D01*
X71325D01*
Y15738D01*
X71248D01*
Y15815D01*
X71171D01*
Y15892D01*
X71093D01*
Y15970D01*
X70939D01*
Y16047D01*
X70862D01*
Y16124D01*
X70707D01*
Y16201D01*
X70553D01*
Y16278D01*
X70475D01*
Y16356D01*
X70321D01*
Y16433D01*
X70089D01*
Y16510D01*
X69858D01*
Y16587D01*
X69626D01*
Y16665D01*
X69240D01*
Y16742D01*
X68467D01*
Y16819D01*
X67463D01*
Y16896D01*
X66537D01*
Y16974D01*
X65610D01*
Y17051D01*
X64683D01*
Y17128D01*
X63679D01*
Y17205D01*
X62907D01*
Y17282D01*
X62521D01*
Y17360D01*
X62289D01*
Y17437D01*
X61980D01*
Y17514D01*
X61826D01*
Y17591D01*
X61594D01*
Y17669D01*
X61440D01*
Y17746D01*
X61285D01*
Y17823D01*
X61131D01*
Y17900D01*
X61054D01*
Y17977D01*
X60899D01*
Y18055D01*
X60822D01*
Y18132D01*
X60667D01*
Y18209D01*
X60590D01*
Y18286D01*
X60513D01*
Y18364D01*
X60359D01*
Y18441D01*
X60281D01*
Y18518D01*
X60204D01*
Y18595D01*
X60127D01*
Y18673D01*
X60050D01*
Y18750D01*
X59972D01*
Y18827D01*
X59895D01*
Y18904D01*
X59818D01*
Y18981D01*
X59741D01*
Y19059D01*
X59663D01*
Y19213D01*
X59586D01*
Y19290D01*
X59509D01*
Y19368D01*
X59432D01*
Y19522D01*
X59355D01*
Y19599D01*
X59277D01*
Y19754D01*
X59200D01*
Y19908D01*
X59123D01*
Y19985D01*
X59046D01*
Y20140D01*
X58968D01*
Y20372D01*
X58891D01*
Y20526D01*
X58814D01*
Y20758D01*
X58737D01*
Y20989D01*
X58659D01*
Y21298D01*
X58582D01*
Y21685D01*
X58505D01*
Y23229D01*
X58582D01*
Y23615D01*
X58659D01*
Y23924D01*
X58737D01*
Y24156D01*
X58814D01*
Y24387D01*
X58891D01*
Y24542D01*
X58968D01*
Y24774D01*
X59046D01*
Y24928D01*
X59123D01*
Y25005D01*
X59200D01*
Y25160D01*
X59277D01*
Y25314D01*
X59355D01*
Y25391D01*
X59432D01*
Y25546D01*
X59509D01*
Y25623D01*
X59586D01*
Y25700D01*
X59663D01*
Y25855D01*
X59741D01*
Y25932D01*
X59818D01*
Y26009D01*
X59895D01*
Y26087D01*
X59972D01*
Y26164D01*
X60050D01*
Y26241D01*
X60127D01*
Y26318D01*
X60204D01*
Y26395D01*
X60281D01*
Y26473D01*
X60359D01*
Y26550D01*
X60513D01*
Y26627D01*
X60590D01*
Y26704D01*
X60667D01*
Y26781D01*
X60822D01*
Y26859D01*
X60899D01*
Y26936D01*
X61054D01*
Y27013D01*
X61131D01*
Y27090D01*
X61285D01*
Y27168D01*
X61440D01*
Y27245D01*
X61594D01*
Y27322D01*
X61826D01*
Y27399D01*
X61980D01*
Y27477D01*
X62212D01*
Y27554D01*
X62521D01*
Y27631D01*
X62907D01*
Y27708D01*
X70321D01*
Y26318D01*
X70398D01*
Y25932D01*
X70475D01*
Y25700D01*
X70553D01*
Y25546D01*
X70630D01*
Y25391D01*
X70707D01*
Y25237D01*
X70784D01*
Y25082D01*
X70862D01*
Y25005D01*
X70939D01*
Y24851D01*
X71016D01*
Y24774D01*
X71093D01*
Y24696D01*
X71171D01*
Y24619D01*
X71248D01*
Y24542D01*
X71325D01*
Y24465D01*
X71402D01*
Y24387D01*
X71479D01*
Y24310D01*
X71557D01*
Y24233D01*
X71634D01*
Y24156D01*
X71711D01*
Y24079D01*
X71865D01*
Y24001D01*
X72020D01*
Y23924D01*
X72097D01*
Y23847D01*
X72252D01*
Y23770D01*
X72483D01*
Y23692D01*
X72715D01*
Y23615D01*
X72947D01*
Y23538D01*
X74414D01*
Y23615D01*
X74723D01*
Y23692D01*
X74955D01*
Y23770D01*
X75109D01*
Y23847D01*
X75264D01*
Y23924D01*
X75418D01*
Y24001D01*
X75495D01*
Y24079D01*
X75650D01*
Y24156D01*
X75727D01*
Y24233D01*
X75881D01*
Y24310D01*
X75959D01*
Y24387D01*
X76036D01*
Y24465D01*
X76113D01*
Y24542D01*
X76190D01*
Y24619D01*
X76267D01*
Y24696D01*
X76345D01*
Y24851D01*
X76422D01*
Y24928D01*
X76499D01*
Y25082D01*
X76576D01*
Y25160D01*
X76654D01*
Y25314D01*
X76731D01*
Y25469D01*
X76808D01*
Y25623D01*
X76885D01*
Y25855D01*
X76963D01*
Y26164D01*
X77040D01*
Y26781D01*
X77117D01*
Y27631D01*
X77040D01*
Y27708D01*
X78739D01*
Y23615D01*
X78662D01*
Y23229D01*
X78584D01*
Y22920D01*
X78507D01*
Y22688D01*
X78430D01*
Y22457D01*
X78353D01*
Y22302D01*
X78275D01*
Y22148D01*
X78198D01*
Y21993D01*
X78121D01*
Y21839D01*
X78044D01*
Y21685D01*
X77966D01*
Y21607D01*
X77889D01*
Y21453D01*
X77812D01*
Y21376D01*
X77735D01*
Y21221D01*
X77658D01*
Y21144D01*
X77580D01*
Y21067D01*
X77503D01*
Y20989D01*
X77426D01*
Y20912D01*
X77349D01*
Y20835D01*
X77271D01*
Y20758D01*
X77194D01*
Y20681D01*
X77117D01*
Y20603D01*
X77040D01*
Y20526D01*
X76963D01*
Y20449D01*
X76885D01*
Y20372D01*
X76731D01*
Y20294D01*
X76654D01*
Y20217D01*
X76576D01*
Y20140D01*
X76422D01*
Y20063D01*
X76345D01*
Y19985D01*
X76190D01*
Y19908D01*
X76036D01*
Y19831D01*
X75881D01*
Y19754D01*
X75727D01*
Y19677D01*
X75495D01*
Y19599D01*
X75341D01*
Y19522D01*
X75032D01*
Y19445D01*
X74723D01*
Y19368D01*
X74260D01*
Y19290D01*
X73101D01*
Y19368D01*
X72638D01*
Y19445D01*
X72329D01*
Y19522D01*
X72097D01*
Y19599D01*
X71865D01*
Y19677D01*
X71634D01*
Y19754D01*
X71479D01*
Y19831D01*
X71325D01*
Y19908D01*
X71171D01*
Y19985D01*
X71093D01*
Y20063D01*
X70939D01*
Y20140D01*
X70862D01*
Y20217D01*
X70707D01*
Y20294D01*
X70630D01*
Y20372D01*
X70553D01*
Y20449D01*
X70398D01*
Y20526D01*
X70321D01*
Y20603D01*
X70244D01*
Y20681D01*
X70166D01*
Y20758D01*
X70089D01*
Y20835D01*
X70012D01*
Y20912D01*
X69935D01*
Y20989D01*
X69858D01*
Y21067D01*
X69780D01*
Y21221D01*
X69703D01*
Y21298D01*
X69626D01*
Y21376D01*
X69549D01*
Y21530D01*
X69471D01*
Y21607D01*
X69394D01*
Y21762D01*
X69317D01*
Y21839D01*
X69240D01*
Y21993D01*
X69162D01*
Y22148D01*
X69085D01*
Y22302D01*
X69008D01*
Y22534D01*
X68931D01*
Y22766D01*
X68854D01*
Y22997D01*
X68776D01*
Y23306D01*
X68699D01*
Y23770D01*
X68622D01*
Y26473D01*
X68004D01*
Y26395D01*
X67618D01*
Y26318D01*
X67386D01*
Y26241D01*
X67155D01*
Y26164D01*
X67000D01*
Y26087D01*
X66846D01*
Y26009D01*
X66691D01*
Y25932D01*
X66537D01*
Y25855D01*
X66382D01*
Y25778D01*
X66305D01*
Y25700D01*
X66228D01*
Y25623D01*
X66073D01*
Y25546D01*
X65996D01*
Y25469D01*
X65919D01*
Y25391D01*
X65842D01*
Y25314D01*
X65764D01*
Y25237D01*
X65687D01*
Y25160D01*
X65610D01*
Y25082D01*
X65533D01*
Y25005D01*
X65456D01*
Y24851D01*
X65378D01*
Y24774D01*
X65301D01*
Y24696D01*
X65224D01*
Y24542D01*
X65147D01*
Y24387D01*
X65069D01*
Y24233D01*
X64992D01*
Y24079D01*
X64915D01*
Y23924D01*
X64838D01*
Y23692D01*
X64761D01*
Y23383D01*
X64683D01*
Y22997D01*
X64606D01*
Y21916D01*
X64683D01*
Y21530D01*
X64761D01*
Y21221D01*
X64838D01*
Y20989D01*
X64915D01*
Y20835D01*
X64992D01*
Y20681D01*
X65069D01*
Y20526D01*
X65147D01*
Y20372D01*
X65224D01*
Y20217D01*
X65301D01*
Y20140D01*
X65378D01*
Y20063D01*
X65456D01*
Y19908D01*
X65533D01*
Y19831D01*
X65610D01*
Y19754D01*
X65687D01*
Y19677D01*
X65764D01*
Y19599D01*
X65842D01*
Y19522D01*
X65919D01*
Y19445D01*
X65996D01*
Y19368D01*
X66073D01*
Y19290D01*
X66228D01*
Y19213D01*
X66305D01*
Y19136D01*
X66382D01*
Y19059D01*
X66537D01*
Y18981D01*
X66691D01*
Y18904D01*
X66846D01*
Y18827D01*
X67000D01*
Y18750D01*
X67155D01*
Y18673D01*
X67309D01*
X67386D01*
D02*
G37*
G36*
X98755Y32276D02*
X99143D01*
Y32253D01*
X99441D01*
Y32230D01*
X99646D01*
Y32207D01*
X99852D01*
Y32184D01*
X100012D01*
Y32162D01*
X100172D01*
Y32139D01*
X100309D01*
Y32116D01*
X100446D01*
Y32093D01*
X100584D01*
Y32070D01*
X100698D01*
Y32047D01*
X100812D01*
Y32024D01*
X100926D01*
Y32002D01*
X101041D01*
Y31979D01*
X101155D01*
Y31956D01*
X101247D01*
Y31933D01*
X101338D01*
Y31910D01*
X101429D01*
Y31887D01*
X101521D01*
Y31865D01*
X101612D01*
Y31842D01*
X101704D01*
Y31819D01*
X101795D01*
Y31796D01*
X101887D01*
Y31773D01*
X101955D01*
Y31750D01*
X102047D01*
Y31727D01*
X102115D01*
Y31705D01*
X102184D01*
Y31682D01*
X102275D01*
Y31659D01*
X102344D01*
Y31636D01*
X102412D01*
Y31613D01*
X102481D01*
Y31590D01*
X102572D01*
Y31567D01*
X102641D01*
Y31544D01*
X102709D01*
Y31522D01*
X102778D01*
Y31499D01*
X102847D01*
Y31476D01*
X102915D01*
Y31453D01*
X102961D01*
Y31430D01*
X103030D01*
Y31407D01*
X103098D01*
Y31384D01*
X103167D01*
Y31362D01*
X103235D01*
Y31339D01*
X103304D01*
Y31316D01*
X103350D01*
Y31293D01*
X103418D01*
Y31270D01*
X103487D01*
Y31247D01*
X103533D01*
Y31224D01*
X103601D01*
Y31201D01*
X103670D01*
Y31179D01*
X103715D01*
Y31156D01*
X103784D01*
Y31133D01*
X103830D01*
Y31110D01*
X103898D01*
Y31087D01*
X103944D01*
Y31064D01*
X104013D01*
Y31041D01*
X104058D01*
Y31019D01*
X104127D01*
Y30996D01*
X104173D01*
Y30973D01*
X104241D01*
Y30950D01*
X104287D01*
Y30927D01*
X104355D01*
Y30904D01*
X104401D01*
Y30882D01*
X104447D01*
Y30859D01*
X104516D01*
Y30836D01*
X104561D01*
Y30813D01*
X104630D01*
Y30790D01*
X104675D01*
Y30767D01*
X104721D01*
Y30744D01*
X104790D01*
Y30722D01*
X104835D01*
Y30699D01*
X104904D01*
Y30676D01*
X104950D01*
Y30653D01*
X104996D01*
Y30630D01*
X105064D01*
Y30607D01*
X105110D01*
Y30584D01*
X105156D01*
Y30562D01*
X105224D01*
Y30539D01*
X105270D01*
Y30516D01*
X105338D01*
Y30493D01*
X105384D01*
Y30470D01*
X105430D01*
Y30447D01*
X105498D01*
Y30424D01*
X105544D01*
Y30402D01*
X105590D01*
Y30379D01*
X105658D01*
Y30356D01*
X105704D01*
Y30333D01*
X105750D01*
Y30310D01*
X105818D01*
Y30287D01*
X105864D01*
Y30264D01*
X105910D01*
Y30241D01*
X105979D01*
Y30219D01*
X106024D01*
Y30196D01*
X106070D01*
Y30173D01*
X106139D01*
Y30150D01*
X106184D01*
Y30127D01*
X106230D01*
Y30104D01*
X106298D01*
Y30081D01*
X106344D01*
Y30059D01*
X106390D01*
Y30036D01*
X106458D01*
Y30013D01*
X106504D01*
Y29990D01*
X106550D01*
Y29967D01*
X106596D01*
Y29944D01*
X106664D01*
Y29921D01*
X106710D01*
Y29899D01*
X106756D01*
Y29876D01*
X106801D01*
Y29853D01*
X106824D01*
Y29807D01*
X106801D01*
Y29784D01*
X106779D01*
Y29761D01*
X106756D01*
Y29716D01*
X106733D01*
Y29693D01*
X106710D01*
Y29647D01*
X106687D01*
Y29624D01*
X106664D01*
Y29601D01*
X106641D01*
Y29556D01*
X106619D01*
Y29533D01*
X106596D01*
Y29510D01*
X106573D01*
Y29464D01*
X106550D01*
Y29441D01*
X106527D01*
Y29419D01*
X106504D01*
Y29373D01*
X106481D01*
Y29350D01*
X106458D01*
Y29327D01*
X106436D01*
Y29281D01*
X106413D01*
Y29258D01*
X106390D01*
Y29213D01*
X106367D01*
Y29190D01*
X106344D01*
Y29167D01*
X106321D01*
Y29121D01*
X106298D01*
Y29098D01*
X106276D01*
Y29076D01*
X106253D01*
Y29030D01*
X106230D01*
Y29007D01*
X106207D01*
Y28984D01*
X106184D01*
Y28938D01*
X106161D01*
Y28916D01*
X106139D01*
Y28893D01*
X106116D01*
Y28847D01*
X106093D01*
Y28824D01*
X106070D01*
Y28778D01*
X106047D01*
Y28756D01*
X106024D01*
Y28733D01*
X106001D01*
Y28687D01*
X105979D01*
Y28664D01*
X105956D01*
Y28641D01*
X105933D01*
Y28596D01*
X105910D01*
Y28573D01*
X105887D01*
Y28550D01*
X105864D01*
Y28504D01*
X105841D01*
Y28481D01*
X105818D01*
Y28458D01*
X105796D01*
Y28413D01*
X105773D01*
Y28390D01*
X105750D01*
Y28344D01*
X105727D01*
Y28321D01*
X105704D01*
Y28298D01*
X105681D01*
Y28253D01*
X105658D01*
Y28230D01*
X105636D01*
Y28207D01*
X105613D01*
Y28161D01*
X105590D01*
Y28138D01*
X105567D01*
Y28115D01*
X105544D01*
Y28070D01*
X105521D01*
Y28047D01*
X105498D01*
Y28024D01*
X105476D01*
Y27978D01*
X105453D01*
Y27955D01*
X105430D01*
Y27910D01*
X105407D01*
Y27887D01*
X105384D01*
Y27864D01*
X105361D01*
Y27818D01*
X105338D01*
Y27795D01*
X105315D01*
Y27773D01*
X105293D01*
Y27727D01*
X105270D01*
Y27704D01*
X105247D01*
Y27681D01*
X105224D01*
Y27635D01*
X105201D01*
Y27613D01*
X105178D01*
Y27567D01*
X105156D01*
Y27544D01*
X105133D01*
Y27521D01*
X105110D01*
Y27475D01*
X105087D01*
Y27453D01*
X105064D01*
Y27430D01*
X105041D01*
Y27384D01*
X105018D01*
Y27361D01*
X104996D01*
Y27338D01*
X104973D01*
Y27292D01*
X104950D01*
Y27270D01*
X104927D01*
Y27247D01*
X104904D01*
Y27201D01*
X104881D01*
Y27178D01*
X104858D01*
Y27132D01*
X104835D01*
Y27110D01*
X104813D01*
Y27087D01*
X104790D01*
Y27041D01*
X104767D01*
Y27018D01*
X104744D01*
Y26995D01*
X104721D01*
Y26950D01*
X104698D01*
Y26927D01*
X104675D01*
Y26904D01*
X104653D01*
Y26858D01*
X104630D01*
Y26835D01*
X104607D01*
Y26812D01*
X104584D01*
Y26767D01*
X104561D01*
Y26744D01*
X104538D01*
Y26721D01*
X104493D01*
Y26744D01*
X104470D01*
Y26767D01*
X104447D01*
Y26790D01*
X104424D01*
Y26812D01*
X104378D01*
Y26835D01*
X104355D01*
Y26858D01*
X104333D01*
Y26881D01*
X104310D01*
Y26904D01*
X104287D01*
Y26927D01*
X104241D01*
Y26950D01*
X104218D01*
Y26972D01*
X104195D01*
Y26995D01*
X104173D01*
Y27018D01*
X104127D01*
Y27041D01*
X104104D01*
Y27064D01*
X104081D01*
Y27087D01*
X104035D01*
Y27110D01*
X104013D01*
Y27132D01*
X103990D01*
Y27155D01*
X103944D01*
Y27178D01*
X103921D01*
Y27201D01*
X103898D01*
Y27224D01*
X103852D01*
Y27247D01*
X103830D01*
Y27270D01*
X103784D01*
Y27292D01*
X103761D01*
Y27315D01*
X103715D01*
Y27338D01*
X103692D01*
Y27361D01*
X103647D01*
Y27384D01*
X103624D01*
Y27407D01*
X103578D01*
Y27430D01*
X103555D01*
Y27453D01*
X103510D01*
Y27475D01*
X103487D01*
Y27498D01*
X103441D01*
Y27521D01*
X103395D01*
Y27544D01*
X103373D01*
Y27567D01*
X103327D01*
Y27590D01*
X103281D01*
Y27613D01*
X103258D01*
Y27635D01*
X103212D01*
Y27658D01*
X103167D01*
Y27681D01*
X103121D01*
Y27704D01*
X103098D01*
Y27727D01*
X103052D01*
Y27750D01*
X103007D01*
Y27773D01*
X102961D01*
Y27795D01*
X102915D01*
Y27818D01*
X102870D01*
Y27841D01*
X102824D01*
Y27864D01*
X102778D01*
Y27887D01*
X102732D01*
Y27910D01*
X102687D01*
Y27933D01*
X102641D01*
Y27955D01*
X102595D01*
Y27978D01*
X102550D01*
Y28001D01*
X102481D01*
Y28024D01*
X102435D01*
Y28047D01*
X102390D01*
Y28070D01*
X102344D01*
Y28093D01*
X102275D01*
Y28115D01*
X102229D01*
Y28138D01*
X102161D01*
Y28161D01*
X102115D01*
Y28184D01*
X102047D01*
Y28207D01*
X102001D01*
Y28230D01*
X101932D01*
Y28253D01*
X101864D01*
Y28275D01*
X101818D01*
Y28298D01*
X101749D01*
Y28321D01*
X101681D01*
Y28344D01*
X101612D01*
Y28367D01*
X101544D01*
Y28390D01*
X101475D01*
Y28413D01*
X101407D01*
Y28436D01*
X101338D01*
Y28458D01*
X101247D01*
Y28481D01*
X101178D01*
Y28504D01*
X101086D01*
Y28527D01*
X100995D01*
Y28550D01*
X100904D01*
Y28573D01*
X100835D01*
Y28596D01*
X100721D01*
Y28618D01*
X100629D01*
Y28641D01*
X100538D01*
Y28664D01*
X100424D01*
Y28687D01*
X100309D01*
Y28710D01*
X100172D01*
Y28733D01*
X100035D01*
Y28756D01*
X99898D01*
Y28778D01*
X99738D01*
Y28801D01*
X99578D01*
Y28824D01*
X99372D01*
Y28847D01*
X99143D01*
Y28870D01*
X98846D01*
Y28893D01*
X98389D01*
Y28916D01*
X97520D01*
Y28893D01*
X97132D01*
Y28870D01*
X96903D01*
Y28847D01*
X96697D01*
Y28824D01*
X96537D01*
Y28801D01*
X96377D01*
Y28778D01*
X96240D01*
Y28756D01*
X96126D01*
Y28733D01*
X96012D01*
Y28710D01*
X95897D01*
Y28687D01*
X95783D01*
Y28664D01*
X95692D01*
Y28641D01*
X95600D01*
Y28618D01*
X95509D01*
Y28596D01*
X95417D01*
Y28573D01*
X95349D01*
Y28550D01*
X95280D01*
Y28527D01*
X95189D01*
Y28504D01*
X95120D01*
Y28481D01*
X95051D01*
Y28458D01*
X94983D01*
Y28436D01*
X94914D01*
Y28413D01*
X94846D01*
Y28390D01*
X94800D01*
Y28367D01*
X94731D01*
Y28344D01*
X94663D01*
Y28321D01*
X94617D01*
Y28298D01*
X94572D01*
Y28275D01*
X94503D01*
Y28253D01*
X94457D01*
Y28230D01*
X94411D01*
Y28207D01*
X94366D01*
Y28184D01*
X94297D01*
Y28161D01*
X94252D01*
Y28138D01*
X94206D01*
Y28115D01*
X94160D01*
Y28093D01*
X94114D01*
Y28070D01*
X94091D01*
Y28047D01*
X94046D01*
Y28024D01*
X94000D01*
Y28001D01*
X93954D01*
Y27978D01*
X93909D01*
Y27955D01*
X93886D01*
Y27933D01*
X93840D01*
Y27910D01*
X93794D01*
Y27887D01*
X93771D01*
Y27864D01*
X93726D01*
Y27841D01*
X93703D01*
Y27818D01*
X93657D01*
Y27795D01*
X93634D01*
Y27773D01*
X93589D01*
Y27750D01*
X93566D01*
Y27727D01*
X93543D01*
Y27704D01*
X93497D01*
Y27681D01*
X93474D01*
Y27658D01*
X93451D01*
Y27635D01*
X93428D01*
Y27613D01*
X93383D01*
Y27590D01*
X93360D01*
Y27567D01*
X93337D01*
Y27544D01*
X93314D01*
Y27521D01*
X93291D01*
Y27498D01*
X93269D01*
Y27475D01*
X93246D01*
Y27453D01*
X93223D01*
Y27430D01*
X93200D01*
Y27407D01*
X93177D01*
Y27384D01*
X93154D01*
Y27361D01*
X93131D01*
Y27338D01*
X93108D01*
Y27315D01*
X93086D01*
Y27292D01*
X93063D01*
Y27270D01*
X93040D01*
Y27247D01*
X93017D01*
Y27224D01*
X92994D01*
Y27178D01*
X92971D01*
Y27155D01*
X92949D01*
Y27132D01*
X92926D01*
Y27110D01*
X92903D01*
Y27064D01*
X92880D01*
Y27041D01*
X92857D01*
Y26995D01*
X92834D01*
Y26972D01*
X92811D01*
Y26927D01*
X92788D01*
Y26904D01*
X92766D01*
Y26858D01*
X92743D01*
Y26812D01*
X92720D01*
Y26767D01*
X92697D01*
Y26744D01*
X92674D01*
Y26698D01*
X92651D01*
Y26653D01*
X92628D01*
Y26584D01*
X92606D01*
Y26538D01*
X92583D01*
Y26493D01*
X92560D01*
Y26424D01*
X92537D01*
Y26355D01*
X92514D01*
Y26287D01*
X92491D01*
Y26195D01*
X92468D01*
Y26081D01*
X92446D01*
Y25944D01*
X92423D01*
Y25487D01*
X92446D01*
Y25372D01*
X92468D01*
Y25281D01*
X92491D01*
Y25212D01*
X92514D01*
Y25167D01*
X92537D01*
Y25098D01*
X92560D01*
Y25075D01*
X92583D01*
Y25029D01*
X92606D01*
Y24984D01*
X92628D01*
Y24961D01*
X92651D01*
Y24938D01*
X92674D01*
Y24915D01*
X92697D01*
Y24892D01*
X92720D01*
Y24869D01*
X92743D01*
Y24847D01*
X92788D01*
Y24869D01*
X92834D01*
Y24892D01*
X92857D01*
Y24915D01*
X92880D01*
Y24938D01*
X92926D01*
Y24961D01*
X92949D01*
Y24984D01*
X92971D01*
Y25007D01*
X93017D01*
Y25029D01*
X93040D01*
Y25052D01*
X93086D01*
Y25075D01*
X93108D01*
Y25098D01*
X93131D01*
Y25121D01*
X93177D01*
Y25144D01*
X93200D01*
Y25167D01*
X93246D01*
Y25189D01*
X93269D01*
Y25212D01*
X93314D01*
Y25235D01*
X93337D01*
Y25258D01*
X93383D01*
Y25281D01*
X93428D01*
Y25304D01*
X93451D01*
Y25327D01*
X93497D01*
Y25350D01*
X93520D01*
Y25372D01*
X93566D01*
Y25395D01*
X93611D01*
Y25418D01*
X93657D01*
Y25441D01*
X93680D01*
Y25464D01*
X93726D01*
Y25487D01*
X93771D01*
Y25510D01*
X93817D01*
Y25532D01*
X93840D01*
Y25555D01*
X93886D01*
Y25578D01*
X93931D01*
Y25601D01*
X93977D01*
Y25624D01*
X94023D01*
Y25647D01*
X94069D01*
Y25670D01*
X94114D01*
Y25692D01*
X94160D01*
Y25715D01*
X94206D01*
Y25738D01*
X94252D01*
Y25761D01*
X94297D01*
Y25784D01*
X94343D01*
Y25807D01*
X94411D01*
Y25829D01*
X94457D01*
Y25852D01*
X94503D01*
Y25875D01*
X94572D01*
Y25898D01*
X94617D01*
Y25921D01*
X94663D01*
Y25944D01*
X94731D01*
Y25967D01*
X94800D01*
Y25989D01*
X94846D01*
Y26012D01*
X94914D01*
Y26035D01*
X94983D01*
Y26058D01*
X95051D01*
Y26081D01*
X95097D01*
Y26104D01*
X95166D01*
Y26127D01*
X95257D01*
Y26150D01*
X95326D01*
Y26172D01*
X95394D01*
Y26195D01*
X95486D01*
Y26218D01*
X95555D01*
Y26241D01*
X95646D01*
Y26264D01*
X95737D01*
Y26287D01*
X95829D01*
Y26310D01*
X95943D01*
Y26332D01*
X96034D01*
Y26355D01*
X96149D01*
Y26378D01*
X96286D01*
Y26401D01*
X96423D01*
Y26424D01*
X96583D01*
Y26447D01*
X96789D01*
Y26470D01*
X97040D01*
Y26493D01*
X98298D01*
Y26470D01*
X98641D01*
Y26447D01*
X98869D01*
Y26424D01*
X99075D01*
Y26401D01*
X99258D01*
Y26378D01*
X99418D01*
Y26355D01*
X99555D01*
Y26332D01*
X99692D01*
Y26310D01*
X99806D01*
Y26287D01*
X99921D01*
Y26264D01*
X100035D01*
Y26241D01*
X100126D01*
Y26218D01*
X100241D01*
Y26195D01*
X100332D01*
Y26172D01*
X100424D01*
Y26150D01*
X100515D01*
Y26127D01*
X100606D01*
Y26104D01*
X100675D01*
Y26081D01*
X100767D01*
Y26058D01*
X100835D01*
Y26035D01*
X100926D01*
Y26012D01*
X100995D01*
Y25989D01*
X101064D01*
Y25967D01*
X101155D01*
Y25944D01*
X101224D01*
Y25921D01*
X101292D01*
Y25898D01*
X101361D01*
Y25875D01*
X101429D01*
Y25852D01*
X101498D01*
Y25829D01*
X101567D01*
Y25807D01*
X101612D01*
Y25784D01*
X101681D01*
Y25761D01*
X101749D01*
Y25738D01*
X101818D01*
Y25715D01*
X101887D01*
Y25692D01*
X101932D01*
Y25670D01*
X102001D01*
Y25647D01*
X102069D01*
Y25624D01*
X102138D01*
Y25601D01*
X102207D01*
Y25578D01*
X102252D01*
Y25555D01*
X102321D01*
Y25532D01*
X102390D01*
Y25510D01*
X102458D01*
Y25487D01*
X102504D01*
Y25464D01*
X102572D01*
Y25441D01*
X102641D01*
Y25418D01*
X102687D01*
Y25395D01*
X102755D01*
Y25372D01*
X102824D01*
Y25350D01*
X102870D01*
Y25327D01*
X102938D01*
Y25304D01*
X102984D01*
Y25281D01*
X103052D01*
Y25258D01*
X103121D01*
Y25235D01*
X103167D01*
Y25212D01*
X103235D01*
Y25189D01*
X103281D01*
Y25167D01*
X103350D01*
Y25144D01*
X103327D01*
Y25098D01*
X103304D01*
Y25075D01*
X103281D01*
Y25052D01*
X103258D01*
Y25007D01*
X103235D01*
Y24984D01*
X103212D01*
Y24938D01*
X103190D01*
Y24915D01*
X103167D01*
Y24892D01*
X103144D01*
Y24847D01*
X103121D01*
Y24824D01*
X103098D01*
Y24801D01*
X103075D01*
Y24755D01*
X103052D01*
Y24732D01*
X103030D01*
Y24709D01*
X103007D01*
Y24664D01*
X102984D01*
Y24641D01*
X102961D01*
Y24618D01*
X102938D01*
Y24572D01*
X102915D01*
Y24549D01*
X102892D01*
Y24527D01*
X102870D01*
Y24481D01*
X102847D01*
Y24458D01*
X102824D01*
Y24435D01*
X102801D01*
Y24389D01*
X102778D01*
Y24366D01*
X102755D01*
Y24321D01*
X102732D01*
Y24298D01*
X102709D01*
Y24275D01*
X102687D01*
Y24229D01*
X102664D01*
Y24206D01*
X102641D01*
Y24184D01*
X102618D01*
Y24138D01*
X102595D01*
Y24115D01*
X102572D01*
Y24092D01*
X102550D01*
Y24047D01*
X102527D01*
Y24024D01*
X102504D01*
Y24001D01*
X102481D01*
Y23955D01*
X102458D01*
Y23932D01*
X102435D01*
Y23909D01*
X102412D01*
Y23864D01*
X102390D01*
Y23841D01*
X102367D01*
Y23795D01*
X102344D01*
Y23772D01*
X102321D01*
Y23749D01*
X102298D01*
Y23704D01*
X102275D01*
Y23681D01*
X102252D01*
Y23658D01*
X102229D01*
Y23612D01*
X102207D01*
Y23589D01*
X102184D01*
Y23566D01*
X102161D01*
Y23521D01*
X102138D01*
Y23498D01*
X102115D01*
Y23475D01*
X102092D01*
Y23429D01*
X102069D01*
Y23406D01*
X102047D01*
Y23383D01*
X102024D01*
Y23338D01*
X102001D01*
Y23315D01*
X101978D01*
Y23292D01*
X101955D01*
Y23246D01*
X101932D01*
Y23223D01*
X101909D01*
Y23178D01*
X101887D01*
Y23155D01*
X101864D01*
Y23132D01*
X101841D01*
Y23086D01*
X101818D01*
Y23064D01*
X101795D01*
Y23041D01*
X101772D01*
Y22995D01*
X101749D01*
Y22972D01*
X101727D01*
Y22949D01*
X101704D01*
Y22904D01*
X101681D01*
Y22881D01*
X101658D01*
Y22858D01*
X101635D01*
Y22812D01*
X101612D01*
Y22789D01*
X101589D01*
Y22766D01*
X101567D01*
Y22721D01*
X101544D01*
Y22698D01*
X101521D01*
Y22675D01*
X101498D01*
Y22629D01*
X101475D01*
Y22606D01*
X101452D01*
Y22561D01*
X101429D01*
Y22538D01*
X101407D01*
Y22515D01*
X101384D01*
Y22469D01*
X101361D01*
Y22446D01*
X101338D01*
Y22423D01*
X101315D01*
Y22378D01*
X101292D01*
Y22355D01*
X101269D01*
Y22332D01*
X101247D01*
Y22286D01*
X101224D01*
Y22263D01*
X101201D01*
Y22241D01*
X101155D01*
Y22263D01*
X101132D01*
Y22286D01*
X101109D01*
Y22309D01*
X101064D01*
Y22332D01*
X101041D01*
Y22355D01*
X100995D01*
Y22378D01*
X100972D01*
Y22401D01*
X100949D01*
Y22423D01*
X100904D01*
Y22446D01*
X100881D01*
Y22469D01*
X100835D01*
Y22492D01*
X100789D01*
Y22515D01*
X100767D01*
Y22538D01*
X100721D01*
Y22561D01*
X100675D01*
Y22583D01*
X100652D01*
Y22606D01*
X100606D01*
Y22629D01*
X100561D01*
Y22652D01*
X100538D01*
Y22675D01*
X100492D01*
Y22698D01*
X100446D01*
Y22721D01*
X100401D01*
Y22743D01*
X100355D01*
Y22766D01*
X100309D01*
Y22789D01*
X100264D01*
Y22812D01*
X100218D01*
Y22835D01*
X100172D01*
Y22858D01*
X100126D01*
Y22881D01*
X100081D01*
Y22904D01*
X100035D01*
Y22926D01*
X99989D01*
Y22949D01*
X99921D01*
Y22972D01*
X99875D01*
Y22995D01*
X99829D01*
Y23018D01*
X99761D01*
Y23041D01*
X99715D01*
Y23064D01*
X99646D01*
Y23086D01*
X99578D01*
Y23109D01*
X99509D01*
Y23132D01*
X99418D01*
Y23155D01*
X99349D01*
Y23178D01*
X99258D01*
Y23201D01*
X99166D01*
Y23223D01*
X99052D01*
Y23246D01*
X98938D01*
Y23269D01*
X98800D01*
Y23292D01*
X98618D01*
Y23315D01*
X98366D01*
Y23338D01*
X97497D01*
Y23315D01*
X97246D01*
Y23292D01*
X97086D01*
Y23269D01*
X96949D01*
Y23246D01*
X96835D01*
Y23223D01*
X96720D01*
Y23201D01*
X96629D01*
Y23178D01*
X96537D01*
Y23155D01*
X96446D01*
Y23132D01*
X96377D01*
Y23109D01*
X96286D01*
Y23086D01*
X96217D01*
Y23064D01*
X96149D01*
Y23041D01*
X96103D01*
Y23018D01*
X96034D01*
Y22995D01*
X95966D01*
Y22972D01*
X95920D01*
Y22949D01*
X95875D01*
Y22926D01*
X95806D01*
Y22904D01*
X95760D01*
Y22881D01*
X95714D01*
Y22858D01*
X95669D01*
Y22835D01*
X95623D01*
Y22812D01*
X95577D01*
Y22789D01*
X95532D01*
Y22766D01*
X95486D01*
Y22743D01*
X95440D01*
Y22721D01*
X95394D01*
Y22698D01*
X95349D01*
Y22675D01*
X95326D01*
Y22652D01*
X95280D01*
Y22629D01*
X95234D01*
Y22606D01*
X95212D01*
Y22583D01*
X95166D01*
Y22561D01*
X95143D01*
Y22538D01*
X95097D01*
Y22515D01*
X95074D01*
Y22492D01*
X95029D01*
Y22469D01*
X95006D01*
Y22446D01*
X94960D01*
Y22423D01*
X94937D01*
Y22401D01*
X94914D01*
Y22378D01*
X94869D01*
Y22355D01*
X94846D01*
Y22332D01*
X94823D01*
Y22309D01*
X94777D01*
Y22286D01*
X94754D01*
Y22263D01*
X94731D01*
Y22241D01*
X94709D01*
Y22218D01*
X94663D01*
Y22195D01*
X94640D01*
Y22172D01*
X94617D01*
Y22149D01*
X94594D01*
Y22126D01*
X94572D01*
Y22103D01*
X94549D01*
Y22081D01*
X94526D01*
Y22058D01*
X94503D01*
Y22035D01*
X94480D01*
Y22012D01*
X94457D01*
Y21989D01*
X94434D01*
Y21966D01*
X94411D01*
Y21943D01*
X94389D01*
Y21921D01*
X94366D01*
Y21898D01*
X94343D01*
Y21875D01*
X94320D01*
Y21852D01*
X94297D01*
Y21829D01*
X94274D01*
Y21806D01*
X94252D01*
Y21783D01*
X94229D01*
Y21760D01*
X94206D01*
Y21738D01*
X94183D01*
Y21715D01*
X94160D01*
Y21692D01*
X94137D01*
Y21646D01*
X94114D01*
Y21623D01*
X94091D01*
Y21600D01*
X94069D01*
Y21578D01*
X94046D01*
Y21555D01*
X94023D01*
Y21509D01*
X94000D01*
Y21486D01*
X93977D01*
Y21463D01*
X93954D01*
Y21418D01*
X93931D01*
Y21395D01*
X93909D01*
Y21349D01*
X93886D01*
Y21326D01*
X93863D01*
Y21303D01*
X93840D01*
Y21258D01*
X93817D01*
Y21235D01*
X93794D01*
Y21189D01*
X93771D01*
Y21166D01*
X93749D01*
Y21120D01*
X93726D01*
Y21075D01*
X93703D01*
Y21052D01*
X93680D01*
Y21006D01*
X93657D01*
Y20960D01*
X93634D01*
Y20915D01*
X93611D01*
Y20892D01*
X93589D01*
Y20846D01*
X93566D01*
Y20800D01*
X93543D01*
Y20755D01*
X93520D01*
Y20709D01*
X93497D01*
Y20663D01*
X93474D01*
Y20595D01*
X93451D01*
Y20549D01*
X93428D01*
Y20503D01*
X93406D01*
Y20458D01*
X93383D01*
Y20389D01*
X93360D01*
Y20343D01*
X93337D01*
Y20275D01*
X93314D01*
Y20206D01*
X93291D01*
Y20137D01*
X93269D01*
Y20069D01*
X93246D01*
Y20000D01*
X93223D01*
Y19932D01*
X93200D01*
Y19840D01*
X93177D01*
Y19749D01*
X93154D01*
Y19657D01*
X93131D01*
Y19543D01*
X93108D01*
Y19406D01*
X93086D01*
Y19269D01*
X93063D01*
Y19086D01*
X93040D01*
Y18743D01*
X93017D01*
Y18377D01*
X93040D01*
Y18057D01*
X93063D01*
Y17897D01*
X93086D01*
Y17737D01*
X93108D01*
Y17623D01*
X93131D01*
Y17531D01*
X93154D01*
Y17440D01*
X93177D01*
Y17349D01*
X93200D01*
Y17280D01*
X93223D01*
Y17189D01*
X93246D01*
Y17120D01*
X93269D01*
Y17051D01*
X93291D01*
Y16983D01*
X93314D01*
Y16937D01*
X93337D01*
Y16869D01*
X93360D01*
Y16823D01*
X93383D01*
Y16754D01*
X93406D01*
Y16709D01*
X93428D01*
Y16663D01*
X93451D01*
Y16617D01*
X93474D01*
Y16571D01*
X93497D01*
Y16526D01*
X93520D01*
Y16480D01*
X93543D01*
Y16434D01*
X93566D01*
Y16388D01*
X93589D01*
Y16343D01*
X93611D01*
Y16297D01*
X93634D01*
Y16251D01*
X93657D01*
Y16229D01*
X93680D01*
Y16183D01*
X93703D01*
Y16137D01*
X93726D01*
Y16114D01*
X93749D01*
Y16068D01*
X93771D01*
Y16046D01*
X93794D01*
Y16000D01*
X93817D01*
Y15977D01*
X93840D01*
Y15931D01*
X93863D01*
Y15908D01*
X93886D01*
Y15863D01*
X93909D01*
Y15840D01*
X93931D01*
Y15817D01*
X93954D01*
Y15771D01*
X93977D01*
Y15748D01*
X94000D01*
Y15726D01*
X94023D01*
Y15680D01*
X94046D01*
Y15657D01*
X94069D01*
Y15634D01*
X94091D01*
Y15588D01*
X94114D01*
Y15565D01*
X94137D01*
Y15543D01*
X94160D01*
Y15520D01*
X94183D01*
Y15497D01*
X94206D01*
Y15474D01*
X94229D01*
Y15428D01*
X94252D01*
Y15405D01*
X94274D01*
Y15383D01*
X94297D01*
Y15360D01*
X94320D01*
Y15337D01*
X94343D01*
Y15314D01*
X94366D01*
Y15291D01*
X94389D01*
Y15268D01*
X94411D01*
Y15246D01*
X94434D01*
Y15223D01*
X94457D01*
Y15200D01*
X94480D01*
Y15177D01*
X94503D01*
Y15154D01*
X94526D01*
Y15131D01*
X94549D01*
Y15108D01*
X94572D01*
Y15086D01*
X94594D01*
Y15063D01*
X94640D01*
Y15040D01*
X94663D01*
Y15017D01*
X94686D01*
Y14994D01*
X94709D01*
Y14971D01*
X94731D01*
Y14948D01*
X94754D01*
Y14925D01*
X94800D01*
Y14903D01*
X94823D01*
Y14880D01*
X94846D01*
Y14857D01*
X94892D01*
Y14834D01*
X94914D01*
Y14811D01*
X94937D01*
Y14788D01*
X94983D01*
Y14765D01*
X95006D01*
Y14743D01*
X95029D01*
Y14720D01*
X95074D01*
Y14697D01*
X95097D01*
Y14674D01*
X95143D01*
Y14651D01*
X95166D01*
Y14628D01*
X95212D01*
Y14605D01*
X95234D01*
Y14583D01*
X95280D01*
Y14560D01*
X95326D01*
Y14537D01*
X95349D01*
Y14514D01*
X95394D01*
Y14491D01*
X95440D01*
Y14468D01*
X95486D01*
Y14445D01*
X95509D01*
Y14423D01*
X95555D01*
Y14400D01*
X95600D01*
Y14377D01*
X95646D01*
Y14354D01*
X95692D01*
Y14331D01*
X95737D01*
Y14308D01*
X95806D01*
Y14285D01*
X95852D01*
Y14263D01*
X95897D01*
Y14240D01*
X95943D01*
Y14217D01*
X96012D01*
Y14194D01*
X96057D01*
Y14171D01*
X96126D01*
Y14148D01*
X96194D01*
Y14125D01*
X96263D01*
Y14103D01*
X96332D01*
Y14080D01*
X96400D01*
Y14057D01*
X96469D01*
Y14034D01*
X96560D01*
Y14011D01*
X96652D01*
Y13988D01*
X96743D01*
Y13965D01*
X96858D01*
Y13942D01*
X96995D01*
Y13920D01*
X97132D01*
Y13897D01*
X97338D01*
Y13874D01*
X97658D01*
Y13851D01*
X98252D01*
Y13874D01*
X98618D01*
Y13897D01*
X98823D01*
Y13920D01*
X98983D01*
Y13942D01*
X99098D01*
Y13965D01*
X99212D01*
Y13988D01*
X99326D01*
Y14011D01*
X99418D01*
Y14034D01*
X99509D01*
Y14057D01*
X99578D01*
Y14080D01*
X99646D01*
Y14103D01*
X99715D01*
Y14125D01*
X99783D01*
Y14148D01*
X99852D01*
Y14171D01*
X99921D01*
Y14194D01*
X99966D01*
Y14217D01*
X100035D01*
Y14240D01*
X100081D01*
Y14263D01*
X100126D01*
Y14285D01*
X100195D01*
Y14308D01*
X100241D01*
Y14331D01*
X100286D01*
Y14354D01*
X100332D01*
Y14331D01*
X100355D01*
Y14285D01*
X100378D01*
Y14240D01*
X100401D01*
Y14217D01*
X100424D01*
Y14171D01*
X100446D01*
Y14125D01*
X100469D01*
Y14080D01*
X100492D01*
Y14034D01*
X100515D01*
Y14011D01*
X100538D01*
Y13965D01*
X100561D01*
Y13920D01*
X100584D01*
Y13874D01*
X100606D01*
Y13828D01*
X100629D01*
Y13782D01*
X100652D01*
Y13760D01*
X100675D01*
Y13714D01*
X100698D01*
Y13668D01*
X100721D01*
Y13623D01*
X100744D01*
Y13577D01*
X100767D01*
Y13531D01*
X100789D01*
Y13508D01*
X100812D01*
Y13462D01*
X100835D01*
Y13417D01*
X100858D01*
Y13371D01*
X100881D01*
Y13325D01*
X100904D01*
Y13280D01*
X100926D01*
Y13257D01*
X100949D01*
Y13211D01*
X100972D01*
Y13165D01*
X100995D01*
Y13119D01*
X101018D01*
Y13074D01*
X101041D01*
Y13051D01*
X101064D01*
Y13005D01*
X101086D01*
Y12959D01*
X101109D01*
Y12914D01*
X101132D01*
Y12868D01*
X101155D01*
Y12822D01*
X101178D01*
Y12799D01*
X101201D01*
Y12754D01*
X101224D01*
Y12708D01*
X101247D01*
Y12662D01*
X101269D01*
Y12617D01*
X101292D01*
Y12571D01*
X101315D01*
Y12548D01*
X101338D01*
Y12502D01*
X101361D01*
Y12457D01*
X101384D01*
Y12411D01*
X101407D01*
Y12365D01*
X101429D01*
Y12342D01*
X101452D01*
Y12297D01*
X101475D01*
Y12251D01*
X101498D01*
Y12205D01*
X101521D01*
Y12159D01*
X101544D01*
Y12114D01*
X101567D01*
Y12091D01*
X101589D01*
Y12045D01*
X101612D01*
Y11999D01*
X101635D01*
Y11954D01*
X101658D01*
Y11908D01*
X101681D01*
Y11862D01*
X101704D01*
Y11839D01*
X101727D01*
Y11794D01*
X101749D01*
Y11748D01*
X101772D01*
Y11702D01*
X101795D01*
Y11656D01*
X101818D01*
Y11634D01*
X101841D01*
Y11588D01*
X101864D01*
Y11519D01*
X101818D01*
Y11496D01*
X101772D01*
Y11474D01*
X101727D01*
Y11451D01*
X101681D01*
Y11428D01*
X101635D01*
Y11405D01*
X101567D01*
Y11382D01*
X101521D01*
Y11359D01*
X101475D01*
Y11337D01*
X101407D01*
Y11314D01*
X101361D01*
Y11291D01*
X101292D01*
Y11268D01*
X101224D01*
Y11245D01*
X101178D01*
Y11222D01*
X101109D01*
Y11199D01*
X101041D01*
Y11176D01*
X100972D01*
Y11154D01*
X100904D01*
Y11131D01*
X100835D01*
Y11108D01*
X100744D01*
Y11085D01*
X100675D01*
Y11062D01*
X100584D01*
Y11039D01*
X100515D01*
Y11016D01*
X100424D01*
Y10994D01*
X100332D01*
Y10971D01*
X100218D01*
Y10948D01*
X100126D01*
Y10925D01*
X100012D01*
Y10902D01*
X99898D01*
Y10879D01*
X99761D01*
Y10856D01*
X99624D01*
Y10834D01*
X99463D01*
Y10811D01*
X99281D01*
Y10788D01*
X99075D01*
Y10765D01*
X98800D01*
Y10742D01*
X98435D01*
Y10719D01*
X97109D01*
Y10742D01*
X96835D01*
Y10765D01*
X96629D01*
Y10788D01*
X96446D01*
Y10811D01*
X96309D01*
Y10834D01*
X96172D01*
Y10856D01*
X96057D01*
Y10879D01*
X95943D01*
Y10902D01*
X95829D01*
Y10925D01*
X95737D01*
Y10948D01*
X95646D01*
Y10971D01*
X95555D01*
Y10994D01*
X95463D01*
Y11016D01*
X95372D01*
Y11039D01*
X95303D01*
Y11062D01*
X95234D01*
Y11085D01*
X95143D01*
Y11108D01*
X95074D01*
Y11131D01*
X95006D01*
Y11154D01*
X94937D01*
Y11176D01*
X94869D01*
Y11199D01*
X94823D01*
Y11222D01*
X94754D01*
Y11245D01*
X94686D01*
Y11268D01*
X94640D01*
Y11291D01*
X94572D01*
Y11314D01*
X94526D01*
Y11337D01*
X94457D01*
Y11359D01*
X94411D01*
Y11382D01*
X94343D01*
Y11405D01*
X94297D01*
Y11428D01*
X94252D01*
Y11451D01*
X94206D01*
Y11474D01*
X94137D01*
Y11496D01*
X94091D01*
Y11519D01*
X94046D01*
Y11542D01*
X94000D01*
Y11565D01*
X93954D01*
Y11588D01*
X93909D01*
Y11611D01*
X93863D01*
Y11634D01*
X93817D01*
Y11656D01*
X93771D01*
Y11679D01*
X93726D01*
Y11702D01*
X93703D01*
Y11725D01*
X93657D01*
Y11748D01*
X93611D01*
Y11771D01*
X93566D01*
Y11794D01*
X93520D01*
Y11817D01*
X93497D01*
Y11839D01*
X93451D01*
Y11862D01*
X93406D01*
Y11885D01*
X93360D01*
Y11908D01*
X93337D01*
Y11931D01*
X93291D01*
Y11954D01*
X93269D01*
Y11977D01*
X93223D01*
Y11999D01*
X93177D01*
Y12022D01*
X93154D01*
Y12045D01*
X93108D01*
Y12068D01*
X93086D01*
Y12091D01*
X93040D01*
Y12114D01*
X93017D01*
Y12137D01*
X92971D01*
Y12159D01*
X92949D01*
Y12182D01*
X92926D01*
Y12205D01*
X92880D01*
Y12228D01*
X92857D01*
Y12251D01*
X92811D01*
Y12274D01*
X92788D01*
Y12297D01*
X92766D01*
Y12319D01*
X92720D01*
Y12342D01*
X92697D01*
Y12365D01*
X92674D01*
Y12388D01*
X92628D01*
Y12411D01*
X92606D01*
Y12434D01*
X92583D01*
Y12457D01*
X92537D01*
Y12479D01*
X92514D01*
Y12502D01*
X92491D01*
Y12525D01*
X92468D01*
Y12548D01*
X92423D01*
Y12571D01*
X92400D01*
Y12594D01*
X92377D01*
Y12617D01*
X92354D01*
Y12640D01*
X92331D01*
Y12662D01*
X92286D01*
Y12685D01*
X92263D01*
Y12708D01*
X92240D01*
Y12731D01*
X92217D01*
Y12754D01*
X92194D01*
Y12777D01*
X92171D01*
Y12799D01*
X92148D01*
Y12822D01*
X92125D01*
Y12845D01*
X92103D01*
Y12868D01*
X92057D01*
Y12891D01*
X92034D01*
Y12914D01*
X92011D01*
Y12937D01*
X91988D01*
Y12959D01*
X91966D01*
Y12982D01*
X91943D01*
Y13005D01*
X91920D01*
Y13028D01*
X91897D01*
Y13051D01*
X91874D01*
Y13074D01*
X91851D01*
Y13097D01*
X91828D01*
Y13119D01*
X91805D01*
Y13142D01*
X91783D01*
Y13165D01*
X91760D01*
Y13188D01*
X91737D01*
Y13211D01*
X91714D01*
Y13234D01*
X91691D01*
Y13257D01*
X91668D01*
Y13302D01*
X91645D01*
Y13325D01*
X91623D01*
Y13348D01*
X91600D01*
Y13371D01*
X91577D01*
Y13394D01*
X91554D01*
Y13417D01*
X91531D01*
Y13440D01*
X91508D01*
Y13462D01*
X91485D01*
Y13508D01*
X91463D01*
Y13531D01*
X91440D01*
Y13554D01*
X91417D01*
Y13577D01*
X91394D01*
Y13600D01*
X91371D01*
Y13645D01*
X91348D01*
Y13668D01*
X91325D01*
Y13691D01*
X91303D01*
Y13714D01*
X91280D01*
Y13760D01*
X91257D01*
Y13782D01*
X91234D01*
Y13805D01*
X91211D01*
Y13828D01*
X91188D01*
Y13874D01*
X91165D01*
Y13897D01*
X91143D01*
Y13920D01*
X91120D01*
Y13965D01*
X91097D01*
Y13988D01*
X91074D01*
Y14034D01*
X91051D01*
Y14057D01*
X91028D01*
Y14080D01*
X91005D01*
Y14125D01*
X90983D01*
Y14148D01*
X90960D01*
Y14194D01*
X90937D01*
Y14217D01*
X90914D01*
Y14263D01*
X90891D01*
Y14285D01*
X90868D01*
Y14331D01*
X90845D01*
Y14354D01*
X90822D01*
Y14400D01*
X90800D01*
Y14445D01*
X90777D01*
Y14468D01*
X90754D01*
Y14514D01*
X90731D01*
Y14560D01*
X90708D01*
Y14583D01*
X90685D01*
Y14628D01*
X90662D01*
Y14674D01*
X90640D01*
Y14697D01*
X90617D01*
Y14743D01*
X90594D01*
Y14788D01*
X90571D01*
Y14834D01*
X90548D01*
Y14880D01*
X90525D01*
Y14925D01*
X90503D01*
Y14971D01*
X90480D01*
Y15017D01*
X90457D01*
Y15063D01*
X90434D01*
Y15108D01*
X90411D01*
Y15154D01*
X90388D01*
Y15200D01*
X90365D01*
Y15246D01*
X90342D01*
Y15291D01*
X90320D01*
Y15337D01*
X90297D01*
Y15383D01*
X90274D01*
Y15451D01*
X90251D01*
Y15497D01*
X90228D01*
Y15543D01*
X90205D01*
Y15611D01*
X90182D01*
Y15657D01*
X90160D01*
Y15726D01*
X90137D01*
Y15794D01*
X90114D01*
Y15840D01*
X90091D01*
Y15908D01*
X90068D01*
Y15977D01*
X90045D01*
Y16046D01*
X90022D01*
Y16114D01*
X90000D01*
Y16183D01*
X89977D01*
Y16251D01*
X89954D01*
Y16320D01*
X89931D01*
Y16411D01*
X89908D01*
Y16480D01*
X89885D01*
Y16571D01*
X89862D01*
Y16663D01*
X89840D01*
Y16754D01*
X89817D01*
Y16869D01*
X89794D01*
Y16960D01*
X89771D01*
Y17074D01*
X89748D01*
Y17211D01*
X89725D01*
Y17349D01*
X89702D01*
Y17509D01*
X89679D01*
Y17692D01*
X89657D01*
Y17966D01*
X89634D01*
Y19040D01*
X89657D01*
Y19315D01*
X89679D01*
Y19543D01*
X89702D01*
Y19703D01*
X89725D01*
Y19863D01*
X89748D01*
Y20000D01*
X89771D01*
Y20137D01*
X89794D01*
Y20252D01*
X89817D01*
Y20343D01*
X89840D01*
Y20458D01*
X89862D01*
Y20549D01*
X89885D01*
Y20640D01*
X89908D01*
Y20732D01*
X89931D01*
Y20823D01*
X89954D01*
Y20892D01*
X89977D01*
Y20960D01*
X90000D01*
Y21052D01*
X90022D01*
Y21120D01*
X90045D01*
Y21189D01*
X90068D01*
Y21258D01*
X90091D01*
Y21303D01*
X90114D01*
Y21372D01*
X90137D01*
Y21441D01*
X90160D01*
Y21486D01*
X90182D01*
Y21555D01*
X90205D01*
Y21600D01*
X90228D01*
Y21692D01*
X90205D01*
Y21715D01*
X90182D01*
Y21738D01*
X90160D01*
Y21760D01*
X90137D01*
Y21783D01*
X90114D01*
Y21806D01*
X90091D01*
Y21829D01*
X90068D01*
Y21875D01*
X90045D01*
Y21898D01*
X90022D01*
Y21921D01*
X90000D01*
Y21943D01*
X89977D01*
Y21966D01*
X89954D01*
Y21989D01*
X89931D01*
Y22035D01*
X89908D01*
Y22058D01*
X89885D01*
Y22081D01*
X89862D01*
Y22103D01*
X89840D01*
Y22149D01*
X89817D01*
Y22172D01*
X89794D01*
Y22195D01*
X89771D01*
Y22241D01*
X89748D01*
Y22263D01*
X89725D01*
Y22309D01*
X89702D01*
Y22332D01*
X89679D01*
Y22355D01*
X89657D01*
Y22401D01*
X89634D01*
Y22423D01*
X89611D01*
Y22469D01*
X89588D01*
Y22492D01*
X89565D01*
Y22538D01*
X89542D01*
Y22561D01*
X89520D01*
Y22606D01*
X89497D01*
Y22652D01*
X89474D01*
Y22675D01*
X89451D01*
Y22721D01*
X89428D01*
Y22766D01*
X89405D01*
Y22789D01*
X89382D01*
Y22835D01*
X89359D01*
Y22881D01*
X89337D01*
Y22926D01*
X89314D01*
Y22972D01*
X89291D01*
Y23018D01*
X89268D01*
Y23064D01*
X89245D01*
Y23109D01*
X89222D01*
Y23155D01*
X89200D01*
Y23201D01*
X89177D01*
Y23269D01*
X89154D01*
Y23315D01*
X89131D01*
Y23361D01*
X89108D01*
Y23429D01*
X89085D01*
Y23475D01*
X89062D01*
Y23544D01*
X89039D01*
Y23612D01*
X89017D01*
Y23681D01*
X88994D01*
Y23749D01*
X88971D01*
Y23818D01*
X88948D01*
Y23909D01*
X88925D01*
Y23978D01*
X88902D01*
Y24069D01*
X88879D01*
Y24184D01*
X88857D01*
Y24275D01*
X88834D01*
Y24389D01*
X88811D01*
Y24549D01*
X88788D01*
Y24709D01*
X88765D01*
Y24938D01*
X88742D01*
Y25944D01*
X88765D01*
Y26172D01*
X88788D01*
Y26355D01*
X88811D01*
Y26493D01*
X88834D01*
Y26630D01*
X88857D01*
Y26744D01*
X88879D01*
Y26835D01*
X88902D01*
Y26927D01*
X88925D01*
Y27018D01*
X88948D01*
Y27110D01*
X88971D01*
Y27201D01*
X88994D01*
Y27270D01*
X89017D01*
Y27338D01*
X89039D01*
Y27407D01*
X89062D01*
Y27475D01*
X89085D01*
Y27544D01*
X89108D01*
Y27613D01*
X89131D01*
Y27658D01*
X89154D01*
Y27727D01*
X89177D01*
Y27773D01*
X89200D01*
Y27841D01*
X89222D01*
Y27887D01*
X89245D01*
Y27933D01*
X89268D01*
Y28001D01*
X89291D01*
Y28047D01*
X89314D01*
Y28093D01*
X89337D01*
Y28138D01*
X89359D01*
Y28184D01*
X89382D01*
Y28230D01*
X89405D01*
Y28275D01*
X89428D01*
Y28321D01*
X89451D01*
Y28367D01*
X89474D01*
Y28390D01*
X89497D01*
Y28436D01*
X89520D01*
Y28481D01*
X89542D01*
Y28527D01*
X89565D01*
Y28550D01*
X89588D01*
Y28596D01*
X89611D01*
Y28641D01*
X89634D01*
Y28664D01*
X89657D01*
Y28710D01*
X89679D01*
Y28733D01*
X89702D01*
Y28778D01*
X89725D01*
Y28801D01*
X89748D01*
Y28847D01*
X89771D01*
Y28870D01*
X89794D01*
Y28916D01*
X89817D01*
Y28938D01*
X89840D01*
Y28984D01*
X89862D01*
Y29007D01*
X89885D01*
Y29053D01*
X89908D01*
Y29076D01*
X89931D01*
Y29098D01*
X89954D01*
Y29144D01*
X89977D01*
Y29167D01*
X90000D01*
Y29190D01*
X90022D01*
Y29213D01*
X90045D01*
Y29258D01*
X90068D01*
Y29281D01*
X90091D01*
Y29304D01*
X90114D01*
Y29327D01*
X90137D01*
Y29373D01*
X90160D01*
Y29396D01*
X90182D01*
Y29419D01*
X90205D01*
Y29441D01*
X90228D01*
Y29464D01*
X90251D01*
Y29487D01*
X90274D01*
Y29510D01*
X90297D01*
Y29556D01*
X90320D01*
Y29579D01*
X90342D01*
Y29601D01*
X90365D01*
Y29624D01*
X90388D01*
Y29647D01*
X90411D01*
Y29670D01*
X90434D01*
Y29693D01*
X90457D01*
Y29716D01*
X90480D01*
Y29739D01*
X90503D01*
Y29761D01*
X90525D01*
Y29784D01*
X90548D01*
Y29807D01*
X90571D01*
Y29830D01*
X90594D01*
Y29853D01*
X90617D01*
Y29876D01*
X90640D01*
Y29899D01*
X90662D01*
Y29921D01*
X90685D01*
Y29944D01*
X90708D01*
Y29967D01*
X90731D01*
Y29990D01*
X90754D01*
Y30013D01*
X90800D01*
Y30036D01*
X90822D01*
Y30059D01*
X90845D01*
Y30081D01*
X90868D01*
Y30104D01*
X90891D01*
Y30127D01*
X90914D01*
Y30150D01*
X90960D01*
Y30173D01*
X90983D01*
Y30196D01*
X91005D01*
Y30219D01*
X91028D01*
Y30241D01*
X91051D01*
Y30264D01*
X91097D01*
Y30287D01*
X91120D01*
Y30310D01*
X91143D01*
Y30333D01*
X91188D01*
Y30356D01*
X91211D01*
Y30379D01*
X91234D01*
Y30402D01*
X91257D01*
Y30424D01*
X91303D01*
Y30447D01*
X91325D01*
Y30470D01*
X91371D01*
Y30493D01*
X91394D01*
Y30516D01*
X91417D01*
Y30539D01*
X91463D01*
Y30562D01*
X91485D01*
Y30584D01*
X91531D01*
Y30607D01*
X91554D01*
Y30630D01*
X91600D01*
Y30653D01*
X91623D01*
Y30676D01*
X91668D01*
Y30699D01*
X91691D01*
Y30722D01*
X91737D01*
Y30744D01*
X91783D01*
Y30767D01*
X91805D01*
Y30790D01*
X91851D01*
Y30813D01*
X91874D01*
Y30836D01*
X91920D01*
Y30859D01*
X91966D01*
Y30882D01*
X92011D01*
Y30904D01*
X92034D01*
Y30927D01*
X92080D01*
Y30950D01*
X92125D01*
Y30973D01*
X92171D01*
Y30996D01*
X92217D01*
Y31019D01*
X92240D01*
Y31041D01*
X92286D01*
Y31064D01*
X92331D01*
Y31087D01*
X92377D01*
Y31110D01*
X92423D01*
Y31133D01*
X92468D01*
Y31156D01*
X92514D01*
Y31179D01*
X92560D01*
Y31201D01*
X92606D01*
Y31224D01*
X92674D01*
Y31247D01*
X92720D01*
Y31270D01*
X92766D01*
Y31293D01*
X92811D01*
Y31316D01*
X92857D01*
Y31339D01*
X92926D01*
Y31362D01*
X92971D01*
Y31384D01*
X93040D01*
Y31407D01*
X93086D01*
Y31430D01*
X93154D01*
Y31453D01*
X93200D01*
Y31476D01*
X93269D01*
Y31499D01*
X93314D01*
Y31522D01*
X93383D01*
Y31544D01*
X93451D01*
Y31567D01*
X93520D01*
Y31590D01*
X93566D01*
Y31613D01*
X93634D01*
Y31636D01*
X93703D01*
Y31659D01*
X93771D01*
Y31682D01*
X93863D01*
Y31705D01*
X93931D01*
Y31727D01*
X94000D01*
Y31750D01*
X94069D01*
Y31773D01*
X94160D01*
Y31796D01*
X94252D01*
Y31819D01*
X94320D01*
Y31842D01*
X94411D01*
Y31865D01*
X94503D01*
Y31887D01*
X94594D01*
Y31910D01*
X94686D01*
Y31933D01*
X94777D01*
Y31956D01*
X94892D01*
Y31979D01*
X95006D01*
Y32002D01*
X95120D01*
Y32024D01*
X95234D01*
Y32047D01*
X95349D01*
Y32070D01*
X95486D01*
Y32093D01*
X95623D01*
Y32116D01*
X95760D01*
Y32139D01*
X95943D01*
Y32162D01*
X96103D01*
Y32184D01*
X96309D01*
Y32207D01*
X96515D01*
Y32230D01*
X96766D01*
Y32253D01*
X97086D01*
Y32276D01*
X97543D01*
Y32299D01*
X98755D01*
Y32276D01*
D02*
G37*
G36*
X97726Y21578D02*
X97749D01*
Y21555D01*
X97795D01*
Y21532D01*
X97840D01*
Y21509D01*
X97886D01*
Y21486D01*
X97909D01*
Y21463D01*
X97955D01*
Y21441D01*
X98001D01*
Y21418D01*
X98023D01*
Y21395D01*
X98069D01*
Y21372D01*
X98115D01*
Y21349D01*
X98138D01*
Y21326D01*
X98183D01*
Y21303D01*
X98229D01*
Y21280D01*
X98252D01*
Y21258D01*
X98298D01*
Y21235D01*
X98343D01*
Y21212D01*
X98389D01*
Y21189D01*
X98412D01*
Y21166D01*
X98458D01*
Y21143D01*
X98503D01*
Y21120D01*
X98526D01*
Y21098D01*
X98572D01*
Y21075D01*
X98618D01*
Y21052D01*
X98641D01*
Y21029D01*
X98686D01*
Y21006D01*
X98732D01*
Y20983D01*
X98755D01*
Y20960D01*
X98800D01*
Y20937D01*
X98846D01*
Y20915D01*
X98892D01*
Y20892D01*
X98915D01*
Y20869D01*
X98961D01*
Y20846D01*
X99006D01*
Y20823D01*
X99029D01*
Y20800D01*
X99075D01*
Y20777D01*
X99121D01*
Y20755D01*
X99143D01*
Y20732D01*
X99189D01*
Y20709D01*
X99235D01*
Y20686D01*
X99258D01*
Y20663D01*
X99303D01*
Y20640D01*
X99349D01*
Y20617D01*
X99372D01*
Y20595D01*
X99418D01*
Y20572D01*
X99463D01*
Y20549D01*
X99486D01*
Y20526D01*
X99532D01*
Y20503D01*
X99578D01*
Y20480D01*
X99601D01*
Y20458D01*
X99646D01*
Y20435D01*
X99692D01*
Y20412D01*
X99715D01*
Y20389D01*
X99761D01*
Y20366D01*
X99806D01*
Y20343D01*
X99829D01*
Y20320D01*
X99875D01*
Y20298D01*
X99921D01*
Y20275D01*
X99944D01*
Y20252D01*
X99989D01*
Y20229D01*
X100035D01*
Y20206D01*
X100058D01*
Y20183D01*
X100103D01*
Y20160D01*
X100126D01*
Y20137D01*
X100172D01*
Y20115D01*
X100218D01*
Y20092D01*
X100241D01*
Y20069D01*
X100286D01*
Y20046D01*
X100332D01*
Y20023D01*
X100355D01*
Y20000D01*
X100401D01*
Y19977D01*
X100446D01*
Y19955D01*
X100469D01*
Y19932D01*
X100515D01*
Y19909D01*
X100561D01*
Y19886D01*
X100584D01*
Y19863D01*
X100629D01*
Y19840D01*
X100652D01*
Y19817D01*
X100698D01*
Y19795D01*
X100744D01*
Y19772D01*
X100767D01*
Y19749D01*
X100812D01*
Y19726D01*
X100858D01*
Y19703D01*
X100881D01*
Y19680D01*
X100926D01*
Y19657D01*
X100949D01*
Y19635D01*
X100995D01*
Y19612D01*
X101041D01*
Y19589D01*
X101064D01*
Y19566D01*
X101109D01*
Y19543D01*
X101155D01*
Y19520D01*
X101178D01*
Y19497D01*
X101224D01*
Y19475D01*
X101247D01*
Y19452D01*
X101292D01*
Y19429D01*
X101338D01*
Y19406D01*
X101361D01*
Y19383D01*
X101407D01*
Y19360D01*
X101429D01*
Y19337D01*
X101475D01*
Y19315D01*
X101521D01*
Y19292D01*
X101544D01*
Y19269D01*
X101589D01*
Y19246D01*
X101612D01*
Y19223D01*
X101658D01*
Y19200D01*
X101704D01*
Y19177D01*
X101727D01*
Y19154D01*
X101772D01*
Y19132D01*
X101795D01*
Y19109D01*
X101841D01*
Y19086D01*
X101864D01*
Y19063D01*
X101909D01*
Y19040D01*
X101955D01*
Y19017D01*
X101978D01*
Y18994D01*
X102024D01*
Y18972D01*
X102047D01*
Y18949D01*
X102092D01*
Y18926D01*
X102115D01*
Y18903D01*
X102161D01*
Y18880D01*
X102184D01*
Y18857D01*
X102229D01*
Y18835D01*
X102252D01*
Y18812D01*
X102298D01*
Y18789D01*
X102321D01*
Y18766D01*
X102367D01*
Y18743D01*
X102390D01*
Y18720D01*
X102435D01*
Y18697D01*
X102458D01*
Y18674D01*
X102504D01*
Y18652D01*
X102527D01*
Y18629D01*
X102572D01*
Y18606D01*
X102595D01*
Y18583D01*
X102641D01*
Y18560D01*
X102664D01*
Y18537D01*
X102709D01*
Y18514D01*
X102732D01*
Y18492D01*
X102778D01*
Y18469D01*
X102801D01*
Y18446D01*
X102847D01*
Y18423D01*
X102870D01*
Y18400D01*
X102915D01*
Y18377D01*
X102938D01*
Y18354D01*
X102961D01*
Y18331D01*
X103007D01*
Y18309D01*
X103030D01*
Y18286D01*
X103075D01*
Y18263D01*
X103098D01*
Y18240D01*
X103121D01*
Y18217D01*
X103167D01*
Y18194D01*
X103190D01*
Y18171D01*
X103235D01*
Y18149D01*
X103258D01*
Y18126D01*
X103281D01*
Y18103D01*
X103327D01*
Y18080D01*
X103350D01*
Y18057D01*
X103395D01*
Y18034D01*
X103418D01*
Y18011D01*
X103441D01*
Y17989D01*
X103487D01*
Y17966D01*
X103510D01*
Y17943D01*
X103533D01*
Y17920D01*
X103578D01*
Y17897D01*
X103601D01*
Y17874D01*
X103624D01*
Y17852D01*
X103670D01*
Y17829D01*
X103692D01*
Y17806D01*
X103715D01*
Y17783D01*
X103738D01*
Y17760D01*
X103784D01*
Y17737D01*
X103807D01*
Y17714D01*
X103830D01*
Y17692D01*
X103875D01*
Y17669D01*
X103898D01*
Y17646D01*
X103921D01*
Y17623D01*
X103944D01*
Y17600D01*
X103990D01*
Y17577D01*
X104013D01*
Y17554D01*
X104035D01*
Y17531D01*
X104058D01*
Y17509D01*
X104104D01*
Y17486D01*
X104127D01*
Y17463D01*
X104150D01*
Y17440D01*
X104173D01*
Y17417D01*
X104218D01*
Y17394D01*
X104241D01*
Y17371D01*
X104264D01*
Y17349D01*
X104287D01*
Y17326D01*
X104310D01*
Y17303D01*
X104355D01*
Y17280D01*
X104378D01*
Y17257D01*
X104401D01*
Y17234D01*
X104424D01*
Y17211D01*
X104447D01*
Y17189D01*
X104470D01*
Y17166D01*
X104516D01*
Y17143D01*
X104538D01*
Y17120D01*
X104561D01*
Y17097D01*
X104584D01*
Y17074D01*
X104607D01*
Y17051D01*
X104630D01*
Y17029D01*
X104653D01*
Y17006D01*
X104675D01*
Y16983D01*
X104721D01*
Y16960D01*
X104744D01*
Y16937D01*
X104767D01*
Y16914D01*
X104790D01*
Y16891D01*
X104813D01*
Y16869D01*
X104835D01*
Y16846D01*
X104858D01*
Y16823D01*
X104881D01*
Y16800D01*
X104904D01*
Y16777D01*
X104927D01*
Y16754D01*
X104950D01*
Y16731D01*
X104973D01*
Y16709D01*
X104996D01*
Y16686D01*
X105018D01*
Y16663D01*
X105041D01*
Y16640D01*
X105064D01*
Y16617D01*
X105087D01*
Y16594D01*
X105110D01*
Y16571D01*
X105133D01*
Y16548D01*
X105156D01*
Y16526D01*
X105178D01*
Y16503D01*
X105201D01*
Y16480D01*
X105224D01*
Y16457D01*
X105247D01*
Y16434D01*
X105270D01*
Y16411D01*
X105293D01*
Y16388D01*
X105315D01*
Y16366D01*
X105338D01*
Y16343D01*
X105361D01*
Y16320D01*
X105384D01*
Y16297D01*
X105407D01*
Y16274D01*
X105430D01*
Y16251D01*
X105453D01*
Y16229D01*
X105476D01*
Y16206D01*
X105498D01*
Y16183D01*
X105521D01*
Y16137D01*
X105544D01*
Y16114D01*
X105567D01*
Y16091D01*
X105590D01*
Y16068D01*
X105613D01*
Y16046D01*
X105636D01*
Y16023D01*
X105658D01*
Y16000D01*
X105681D01*
Y15954D01*
X105704D01*
Y15931D01*
X105727D01*
Y15908D01*
X105750D01*
Y15886D01*
X105773D01*
Y15863D01*
X105796D01*
Y15817D01*
X105818D01*
Y15794D01*
X105841D01*
Y15771D01*
X105864D01*
Y15748D01*
X105887D01*
Y15703D01*
X105910D01*
Y15680D01*
X105933D01*
Y15657D01*
X105956D01*
Y15611D01*
X105979D01*
Y15588D01*
X106001D01*
Y15565D01*
X106024D01*
Y15520D01*
X106047D01*
Y15497D01*
X106070D01*
Y15474D01*
X106093D01*
Y15428D01*
X106116D01*
Y15405D01*
X106139D01*
Y15383D01*
X106161D01*
Y15337D01*
X106184D01*
Y15314D01*
X106207D01*
Y15268D01*
X106230D01*
Y15246D01*
X106253D01*
Y15200D01*
X106276D01*
Y15177D01*
X106298D01*
Y15131D01*
X106321D01*
Y15108D01*
X106344D01*
Y15063D01*
X106367D01*
Y15040D01*
X106390D01*
Y14994D01*
X106413D01*
Y14948D01*
X106436D01*
Y14925D01*
X106458D01*
Y14880D01*
X106481D01*
Y14834D01*
X106504D01*
Y14811D01*
X106527D01*
Y14765D01*
X106550D01*
Y14720D01*
X106573D01*
Y14674D01*
X106596D01*
Y14628D01*
X106619D01*
Y14583D01*
X106641D01*
Y14560D01*
X106664D01*
Y14514D01*
X106687D01*
Y14468D01*
X106710D01*
Y14423D01*
X106733D01*
Y14377D01*
X106756D01*
Y14308D01*
X106779D01*
Y14263D01*
X106801D01*
Y14217D01*
X106824D01*
Y14171D01*
X106847D01*
Y14103D01*
X106870D01*
Y14057D01*
X106893D01*
Y14011D01*
X106916D01*
Y13942D01*
X106939D01*
Y13874D01*
X106961D01*
Y13828D01*
X106984D01*
Y13760D01*
X107007D01*
Y13691D01*
X107030D01*
Y13623D01*
X107053D01*
Y13554D01*
X107076D01*
Y13485D01*
X107099D01*
Y13394D01*
X107122D01*
Y13302D01*
X107144D01*
Y13211D01*
X107167D01*
Y13119D01*
X107190D01*
Y13028D01*
X107213D01*
Y12914D01*
X107236D01*
Y12777D01*
X107259D01*
Y12617D01*
X107281D01*
Y12434D01*
X107304D01*
Y12159D01*
X107327D01*
Y11474D01*
X107304D01*
Y11199D01*
X107281D01*
Y11016D01*
X107259D01*
Y10856D01*
X107236D01*
Y10719D01*
X107213D01*
Y10605D01*
X107190D01*
Y10514D01*
X107167D01*
Y10399D01*
X107144D01*
Y10308D01*
X107122D01*
Y10239D01*
X107099D01*
Y10148D01*
X107076D01*
Y10079D01*
X107053D01*
Y10011D01*
X107030D01*
Y9942D01*
X107007D01*
Y9873D01*
X106984D01*
Y9805D01*
X106961D01*
Y9736D01*
X106939D01*
Y9691D01*
X106916D01*
Y9622D01*
X106893D01*
Y9576D01*
X106870D01*
Y9508D01*
X106847D01*
Y9462D01*
X106824D01*
Y9416D01*
X106801D01*
Y9348D01*
X106779D01*
Y9302D01*
X106756D01*
Y9256D01*
X106733D01*
Y9211D01*
X106710D01*
Y9165D01*
X106687D01*
Y9119D01*
X106664D01*
Y9073D01*
X106641D01*
Y9028D01*
X106619D01*
Y8982D01*
X106596D01*
Y8936D01*
X106573D01*
Y8890D01*
X106550D01*
Y8868D01*
X106527D01*
Y8822D01*
X106504D01*
Y8776D01*
X106481D01*
Y8753D01*
X106458D01*
Y8708D01*
X106436D01*
Y8662D01*
X106413D01*
Y8639D01*
X106390D01*
Y8593D01*
X106367D01*
Y8548D01*
X106344D01*
Y8525D01*
X106321D01*
Y8479D01*
X106298D01*
Y8456D01*
X106276D01*
Y8410D01*
X106253D01*
Y8388D01*
X106230D01*
Y8342D01*
X106207D01*
Y8319D01*
X106184D01*
Y8296D01*
X106161D01*
Y8250D01*
X106139D01*
Y8228D01*
X106116D01*
Y8182D01*
X106093D01*
Y8159D01*
X106070D01*
Y8136D01*
X106047D01*
Y8090D01*
X106024D01*
Y8067D01*
X106001D01*
Y8045D01*
X105979D01*
Y8022D01*
X105956D01*
Y7976D01*
X105933D01*
Y7953D01*
X105910D01*
Y7930D01*
X105887D01*
Y7908D01*
X105864D01*
Y7862D01*
X105841D01*
Y7839D01*
X105818D01*
Y7816D01*
X105796D01*
Y7793D01*
X105773D01*
Y7770D01*
X105750D01*
Y7747D01*
X105727D01*
Y7725D01*
X105704D01*
Y7679D01*
X105681D01*
Y7656D01*
X105658D01*
Y7633D01*
X105636D01*
Y7610D01*
X105613D01*
Y7587D01*
X105590D01*
Y7565D01*
X105567D01*
Y7542D01*
X105544D01*
Y7519D01*
X105521D01*
Y7496D01*
X105498D01*
Y7473D01*
X105476D01*
Y7450D01*
X105453D01*
Y7428D01*
X105430D01*
Y7405D01*
X105407D01*
Y7382D01*
X105384D01*
Y7359D01*
X105361D01*
Y7336D01*
X105338D01*
Y7313D01*
X105315D01*
Y7290D01*
X105293D01*
Y7267D01*
X105270D01*
Y7245D01*
X105247D01*
Y7222D01*
X105224D01*
Y7199D01*
X105201D01*
Y7176D01*
X105178D01*
Y7153D01*
X105156D01*
Y7130D01*
X105110D01*
Y7107D01*
X105087D01*
Y7085D01*
X105064D01*
Y7062D01*
X105041D01*
Y7039D01*
X105018D01*
Y7016D01*
X104996D01*
Y6993D01*
X104950D01*
Y6970D01*
X104927D01*
Y6947D01*
X104904D01*
Y6925D01*
X104881D01*
Y6902D01*
X104835D01*
Y6879D01*
X104813D01*
Y6856D01*
X104790D01*
Y6833D01*
X104767D01*
Y6810D01*
X104721D01*
Y6787D01*
X104698D01*
Y6764D01*
X104675D01*
Y6742D01*
X104630D01*
Y6719D01*
X104607D01*
Y6696D01*
X104584D01*
Y6673D01*
X104538D01*
Y6650D01*
X104516D01*
Y6627D01*
X104470D01*
Y6605D01*
X104447D01*
Y6582D01*
X104424D01*
Y6559D01*
X104378D01*
Y6536D01*
X104355D01*
Y6513D01*
X104310D01*
Y6490D01*
X104287D01*
Y6467D01*
X104241D01*
Y6444D01*
X104195D01*
Y6422D01*
X104173D01*
Y6399D01*
X104127D01*
Y6376D01*
X104104D01*
Y6353D01*
X104058D01*
Y6330D01*
X104013D01*
Y6307D01*
X103990D01*
Y6284D01*
X103944D01*
Y6262D01*
X103898D01*
Y6239D01*
X103852D01*
Y6216D01*
X103830D01*
Y6193D01*
X103784D01*
Y6170D01*
X103738D01*
Y6147D01*
X103692D01*
Y6125D01*
X103647D01*
Y6102D01*
X103601D01*
Y6079D01*
X103555D01*
Y6056D01*
X103510D01*
Y6033D01*
X103464D01*
Y6010D01*
X103418D01*
Y5987D01*
X103373D01*
Y5965D01*
X103327D01*
Y5942D01*
X103281D01*
Y5919D01*
X103235D01*
Y5896D01*
X103167D01*
Y5873D01*
X103121D01*
Y5850D01*
X103075D01*
Y5827D01*
X103007D01*
Y5804D01*
X102961D01*
Y5782D01*
X102915D01*
Y5759D01*
X102847D01*
Y5736D01*
X102801D01*
Y5713D01*
X102732D01*
Y5690D01*
X102664D01*
Y5667D01*
X102618D01*
Y5644D01*
X102550D01*
Y5622D01*
X102481D01*
Y5599D01*
X102412D01*
Y5576D01*
X102367D01*
Y5553D01*
X102298D01*
Y5530D01*
X102229D01*
Y5507D01*
X102138D01*
Y5484D01*
X102069D01*
Y5461D01*
X102001D01*
Y5439D01*
X101932D01*
Y5416D01*
X101841D01*
Y5393D01*
X101772D01*
Y5370D01*
X101681D01*
Y5347D01*
X101612D01*
Y5324D01*
X101521D01*
Y5302D01*
X101429D01*
Y5279D01*
X101338D01*
Y5256D01*
X101224D01*
Y5233D01*
X101132D01*
Y5210D01*
X101041D01*
Y5187D01*
X100926D01*
Y5164D01*
X100812D01*
Y5142D01*
X100698D01*
Y5119D01*
X100561D01*
Y5096D01*
X100446D01*
Y5073D01*
X100309D01*
Y5050D01*
X100149D01*
Y5027D01*
X99989D01*
Y5004D01*
X99829D01*
Y4981D01*
X99624D01*
Y4959D01*
X99418D01*
Y4936D01*
X99166D01*
Y4913D01*
X98846D01*
Y4890D01*
X98412D01*
Y4867D01*
X97177D01*
Y4890D01*
X96766D01*
Y4913D01*
X96492D01*
Y4936D01*
X96240D01*
Y4959D01*
X96034D01*
Y4981D01*
X95852D01*
Y5004D01*
X95692D01*
Y5027D01*
X95532D01*
Y5050D01*
X95394D01*
Y5073D01*
X95234D01*
Y5096D01*
X95097D01*
Y5119D01*
X94983D01*
Y5142D01*
X94869D01*
Y5164D01*
X94731D01*
Y5187D01*
X94617D01*
Y5210D01*
X94503D01*
Y5233D01*
X94411D01*
Y5256D01*
X94297D01*
Y5279D01*
X94206D01*
Y5302D01*
X94091D01*
Y5324D01*
X94000D01*
Y5347D01*
X93909D01*
Y5370D01*
X93817D01*
Y5393D01*
X93703D01*
Y5416D01*
X93634D01*
Y5439D01*
X93543D01*
Y5461D01*
X93451D01*
Y5484D01*
X93360D01*
Y5507D01*
X93269D01*
Y5530D01*
X93200D01*
Y5553D01*
X93108D01*
Y5576D01*
X93040D01*
Y5599D01*
X92949D01*
Y5622D01*
X92880D01*
Y5644D01*
X92788D01*
Y5667D01*
X92720D01*
Y5690D01*
X92628D01*
Y5713D01*
X92560D01*
Y5736D01*
X92491D01*
Y5759D01*
X92423D01*
Y5782D01*
X92354D01*
Y5804D01*
X92263D01*
Y5827D01*
X92194D01*
Y5850D01*
X92125D01*
Y5873D01*
X92057D01*
Y5896D01*
X91988D01*
Y5919D01*
X91920D01*
Y5942D01*
X91851D01*
Y5965D01*
X91783D01*
Y5987D01*
X91714D01*
Y6010D01*
X91645D01*
Y6033D01*
X91577D01*
Y6056D01*
X91531D01*
Y6079D01*
X91463D01*
Y6102D01*
X91394D01*
Y6125D01*
X91325D01*
Y6147D01*
X91257D01*
Y6170D01*
X91188D01*
Y6193D01*
X91143D01*
Y6216D01*
X91074D01*
Y6239D01*
X91005D01*
Y6262D01*
X90960D01*
Y6284D01*
X90891D01*
Y6307D01*
X90822D01*
Y6330D01*
X90777D01*
Y6353D01*
X90708D01*
Y6376D01*
X90640D01*
Y6399D01*
X90594D01*
Y6422D01*
X90525D01*
Y6444D01*
X90480D01*
Y6467D01*
X90411D01*
Y6490D01*
X90365D01*
Y6513D01*
X90297D01*
Y6536D01*
X90251D01*
Y6559D01*
X90182D01*
Y6582D01*
X90137D01*
Y6605D01*
X90068D01*
Y6627D01*
X90022D01*
Y6650D01*
X89954D01*
Y6673D01*
X89908D01*
Y6696D01*
X89840D01*
Y6719D01*
X89794D01*
Y6742D01*
X89748D01*
Y6764D01*
X89679D01*
Y6787D01*
X89634D01*
Y6810D01*
X89588D01*
Y6833D01*
X89520D01*
Y6856D01*
X89474D01*
Y6879D01*
X89428D01*
Y6902D01*
X89359D01*
Y6925D01*
X89314D01*
Y6947D01*
X89268D01*
Y6970D01*
X89222D01*
Y6993D01*
X89154D01*
Y7016D01*
X89108D01*
Y7039D01*
X89062D01*
Y7062D01*
X89017D01*
Y7085D01*
X88948D01*
Y7107D01*
X88902D01*
Y7130D01*
X88857D01*
Y7153D01*
X88811D01*
Y7176D01*
X88742D01*
Y7199D01*
X88697D01*
Y7222D01*
X88651D01*
Y7245D01*
X88605D01*
Y7267D01*
X88559D01*
Y7290D01*
X88491D01*
Y7313D01*
X88445D01*
Y7336D01*
X88399D01*
Y7359D01*
X88354D01*
Y7382D01*
X88308D01*
Y7405D01*
X88262D01*
Y7428D01*
X88194D01*
Y7450D01*
X88148D01*
Y7473D01*
X88102D01*
Y7496D01*
X88056D01*
Y7519D01*
X88011D01*
Y7542D01*
X87942D01*
Y7565D01*
X87897D01*
Y7587D01*
X87851D01*
Y7610D01*
X87805D01*
Y7633D01*
X87759D01*
Y7656D01*
X87691D01*
Y7679D01*
X87645D01*
Y7702D01*
X87599D01*
Y7725D01*
X87576D01*
Y7747D01*
X87599D01*
Y7770D01*
X87622D01*
Y7816D01*
X87645D01*
Y7839D01*
X87668D01*
Y7862D01*
X87691D01*
Y7908D01*
X87714D01*
Y7930D01*
X87736D01*
Y7953D01*
X87759D01*
Y7999D01*
X87782D01*
Y8022D01*
X87805D01*
Y8045D01*
X87828D01*
Y8090D01*
X87851D01*
Y8113D01*
X87874D01*
Y8136D01*
X87897D01*
Y8182D01*
X87919D01*
Y8205D01*
X87942D01*
Y8250D01*
X87965D01*
Y8273D01*
X87988D01*
Y8296D01*
X88011D01*
Y8342D01*
X88034D01*
Y8365D01*
X88056D01*
Y8388D01*
X88079D01*
Y8433D01*
X88102D01*
Y8456D01*
X88125D01*
Y8479D01*
X88148D01*
Y8525D01*
X88171D01*
Y8548D01*
X88194D01*
Y8570D01*
X88217D01*
Y8616D01*
X88239D01*
Y8639D01*
X88262D01*
Y8662D01*
X88285D01*
Y8708D01*
X88308D01*
Y8731D01*
X88331D01*
Y8753D01*
X88354D01*
Y8799D01*
X88376D01*
Y8822D01*
X88399D01*
Y8868D01*
X88422D01*
Y8890D01*
X88445D01*
Y8913D01*
X88468D01*
Y8959D01*
X88491D01*
Y8982D01*
X88514D01*
Y9005D01*
X88537D01*
Y9050D01*
X88559D01*
Y9073D01*
X88582D01*
Y9096D01*
X88605D01*
Y9142D01*
X88628D01*
Y9165D01*
X88651D01*
Y9188D01*
X88674D01*
Y9233D01*
X88697D01*
Y9256D01*
X88719D01*
Y9279D01*
X88742D01*
Y9325D01*
X88765D01*
Y9348D01*
X88788D01*
Y9371D01*
X88811D01*
Y9416D01*
X88834D01*
Y9439D01*
X88857D01*
Y9485D01*
X88879D01*
Y9508D01*
X88902D01*
Y9531D01*
X88925D01*
Y9576D01*
X88948D01*
Y9599D01*
X88971D01*
Y9622D01*
X88994D01*
Y9668D01*
X89017D01*
Y9691D01*
X89039D01*
Y9713D01*
X89062D01*
Y9759D01*
X89085D01*
Y9782D01*
X89108D01*
Y9805D01*
X89131D01*
Y9851D01*
X89154D01*
Y9873D01*
X89177D01*
Y9896D01*
X89200D01*
Y9942D01*
X89222D01*
Y9965D01*
X89245D01*
Y10011D01*
X89268D01*
Y10034D01*
X89291D01*
Y10056D01*
X89314D01*
Y10102D01*
X89337D01*
Y10125D01*
X89359D01*
Y10148D01*
X89382D01*
Y10193D01*
X89405D01*
Y10216D01*
X89428D01*
Y10239D01*
X89451D01*
Y10285D01*
X89474D01*
Y10308D01*
X89497D01*
Y10331D01*
X89520D01*
Y10376D01*
X89542D01*
Y10399D01*
X89565D01*
Y10422D01*
X89588D01*
Y10468D01*
X89611D01*
Y10491D01*
X89634D01*
Y10514D01*
X89657D01*
Y10559D01*
X89679D01*
Y10582D01*
X89702D01*
Y10628D01*
X89725D01*
Y10651D01*
X89748D01*
Y10674D01*
X89771D01*
Y10719D01*
X89794D01*
Y10742D01*
X89817D01*
Y10765D01*
X89840D01*
Y10811D01*
X89862D01*
Y10834D01*
X89885D01*
Y10856D01*
X89908D01*
Y10902D01*
X89931D01*
Y10925D01*
X89954D01*
Y10948D01*
X89977D01*
Y10994D01*
X90000D01*
Y11016D01*
X90022D01*
Y11039D01*
X90045D01*
Y11085D01*
X90068D01*
Y11108D01*
X90091D01*
Y11131D01*
X90114D01*
Y11176D01*
X90137D01*
Y11199D01*
X90160D01*
Y11245D01*
X90182D01*
Y11268D01*
X90205D01*
Y11291D01*
X90228D01*
Y11337D01*
X90251D01*
Y11359D01*
X90274D01*
Y11382D01*
X90297D01*
Y11428D01*
X90342D01*
Y11405D01*
X90365D01*
Y11359D01*
X90388D01*
Y11337D01*
X90411D01*
Y11314D01*
X90434D01*
Y11291D01*
X90457D01*
Y11245D01*
X90480D01*
Y11222D01*
X90503D01*
Y11199D01*
X90525D01*
Y11176D01*
X90548D01*
Y11131D01*
X90571D01*
Y11108D01*
X90594D01*
Y11085D01*
X90617D01*
Y11062D01*
X90640D01*
Y11039D01*
X90662D01*
Y11016D01*
X90685D01*
Y10994D01*
X90708D01*
Y10971D01*
X90731D01*
Y10925D01*
X90754D01*
Y10902D01*
X90777D01*
Y10879D01*
X90800D01*
Y10856D01*
X90822D01*
Y10834D01*
X90845D01*
Y10811D01*
X90868D01*
Y10788D01*
X90891D01*
Y10765D01*
X90914D01*
Y10742D01*
X90937D01*
Y10719D01*
X90960D01*
Y10696D01*
X90983D01*
Y10674D01*
X91005D01*
Y10651D01*
X91028D01*
Y10628D01*
X91051D01*
Y10605D01*
X91074D01*
Y10582D01*
X91120D01*
Y10559D01*
X91143D01*
Y10536D01*
X91165D01*
Y10514D01*
X91188D01*
Y10491D01*
X91211D01*
Y10468D01*
X91234D01*
Y10445D01*
X91257D01*
Y10422D01*
X91280D01*
Y10399D01*
X91325D01*
Y10376D01*
X91348D01*
Y10353D01*
X91371D01*
Y10331D01*
X91394D01*
Y10308D01*
X91417D01*
Y10285D01*
X91463D01*
Y10262D01*
X91485D01*
Y10239D01*
X91508D01*
Y10216D01*
X91531D01*
Y10193D01*
X91577D01*
Y10171D01*
X91600D01*
Y10148D01*
X91623D01*
Y10125D01*
X91668D01*
Y10102D01*
X91691D01*
Y10079D01*
X91714D01*
Y10056D01*
X91760D01*
Y10034D01*
X91783D01*
Y10011D01*
X91828D01*
Y9988D01*
X91851D01*
Y9965D01*
X91874D01*
Y9942D01*
X91920D01*
Y9919D01*
X91943D01*
Y9896D01*
X91988D01*
Y9873D01*
X92011D01*
Y9851D01*
X92057D01*
Y9828D01*
X92080D01*
Y9805D01*
X92125D01*
Y9782D01*
X92148D01*
Y9759D01*
X92194D01*
Y9736D01*
X92217D01*
Y9713D01*
X92263D01*
Y9691D01*
X92308D01*
Y9668D01*
X92331D01*
Y9645D01*
X92377D01*
Y9622D01*
X92423D01*
Y9599D01*
X92446D01*
Y9576D01*
X92491D01*
Y9553D01*
X92537D01*
Y9531D01*
X92583D01*
Y9508D01*
X92606D01*
Y9485D01*
X92651D01*
Y9462D01*
X92697D01*
Y9439D01*
X92743D01*
Y9416D01*
X92788D01*
Y9393D01*
X92834D01*
Y9371D01*
X92880D01*
Y9348D01*
X92926D01*
Y9325D01*
X92949D01*
Y9302D01*
X92994D01*
Y9279D01*
X93040D01*
Y9256D01*
X93108D01*
Y9233D01*
X93154D01*
Y9211D01*
X93200D01*
Y9188D01*
X93246D01*
Y9165D01*
X93291D01*
Y9142D01*
X93337D01*
Y9119D01*
X93383D01*
Y9096D01*
X93451D01*
Y9073D01*
X93497D01*
Y9050D01*
X93543D01*
Y9028D01*
X93611D01*
Y9005D01*
X93657D01*
Y8982D01*
X93726D01*
Y8959D01*
X93794D01*
Y8936D01*
X93840D01*
Y8913D01*
X93909D01*
Y8890D01*
X93977D01*
Y8868D01*
X94046D01*
Y8845D01*
X94114D01*
Y8822D01*
X94183D01*
Y8799D01*
X94252D01*
Y8776D01*
X94320D01*
Y8753D01*
X94389D01*
Y8731D01*
X94480D01*
Y8708D01*
X94549D01*
Y8685D01*
X94640D01*
Y8662D01*
X94731D01*
Y8639D01*
X94823D01*
Y8616D01*
X94914D01*
Y8593D01*
X95006D01*
Y8570D01*
X95097D01*
Y8548D01*
X95212D01*
Y8525D01*
X95303D01*
Y8502D01*
X95417D01*
Y8479D01*
X95555D01*
Y8456D01*
X95669D01*
Y8433D01*
X95806D01*
Y8410D01*
X95943D01*
Y8388D01*
X96103D01*
Y8365D01*
X96286D01*
Y8342D01*
X96469D01*
Y8319D01*
X96697D01*
Y8296D01*
X96972D01*
Y8273D01*
X97383D01*
Y8250D01*
X98412D01*
Y8273D01*
X98823D01*
Y8296D01*
X99075D01*
Y8319D01*
X99281D01*
Y8342D01*
X99463D01*
Y8365D01*
X99624D01*
Y8388D01*
X99761D01*
Y8410D01*
X99898D01*
Y8433D01*
X100012D01*
Y8456D01*
X100126D01*
Y8479D01*
X100218D01*
Y8502D01*
X100309D01*
Y8525D01*
X100401D01*
Y8548D01*
X100492D01*
Y8570D01*
X100584D01*
Y8593D01*
X100652D01*
Y8616D01*
X100744D01*
Y8639D01*
X100812D01*
Y8662D01*
X100881D01*
Y8685D01*
X100949D01*
Y8708D01*
X101018D01*
Y8731D01*
X101086D01*
Y8753D01*
X101132D01*
Y8776D01*
X101201D01*
Y8799D01*
X101269D01*
Y8822D01*
X101315D01*
Y8845D01*
X101361D01*
Y8868D01*
X101429D01*
Y8890D01*
X101475D01*
Y8913D01*
X101521D01*
Y8936D01*
X101567D01*
Y8959D01*
X101612D01*
Y8982D01*
X101658D01*
Y9005D01*
X101704D01*
Y9028D01*
X101749D01*
Y9050D01*
X101795D01*
Y9073D01*
X101841D01*
Y9096D01*
X101887D01*
Y9119D01*
X101932D01*
Y9142D01*
X101955D01*
Y9165D01*
X102001D01*
Y9188D01*
X102047D01*
Y9211D01*
X102069D01*
Y9233D01*
X102115D01*
Y9256D01*
X102161D01*
Y9279D01*
X102184D01*
Y9302D01*
X102229D01*
Y9325D01*
X102252D01*
Y9348D01*
X102275D01*
Y9371D01*
X102321D01*
Y9393D01*
X102344D01*
Y9416D01*
X102390D01*
Y9439D01*
X102412D01*
Y9462D01*
X102435D01*
Y9485D01*
X102458D01*
Y9508D01*
X102504D01*
Y9531D01*
X102527D01*
Y9553D01*
X102550D01*
Y9576D01*
X102572D01*
Y9599D01*
X102595D01*
Y9622D01*
X102641D01*
Y9645D01*
X102664D01*
Y9668D01*
X102687D01*
Y9691D01*
X102709D01*
Y9713D01*
X102732D01*
Y9736D01*
X102755D01*
Y9759D01*
X102778D01*
Y9782D01*
X102801D01*
Y9805D01*
X102824D01*
Y9828D01*
X102847D01*
Y9851D01*
X102870D01*
Y9873D01*
X102892D01*
Y9896D01*
X102915D01*
Y9942D01*
X102938D01*
Y9965D01*
X102961D01*
Y9988D01*
X102984D01*
Y10011D01*
X103007D01*
Y10034D01*
X103030D01*
Y10079D01*
X103052D01*
Y10102D01*
X103075D01*
Y10125D01*
X103098D01*
Y10148D01*
X103121D01*
Y10193D01*
X103144D01*
Y10216D01*
X103167D01*
Y10262D01*
X103190D01*
Y10285D01*
X103212D01*
Y10331D01*
X103235D01*
Y10353D01*
X103258D01*
Y10399D01*
X103281D01*
Y10445D01*
X103304D01*
Y10491D01*
X103327D01*
Y10514D01*
X103350D01*
Y10559D01*
X103373D01*
Y10605D01*
X103395D01*
Y10651D01*
X103418D01*
Y10719D01*
X103441D01*
Y10765D01*
X103464D01*
Y10811D01*
X103487D01*
Y10879D01*
X103510D01*
Y10948D01*
X103533D01*
Y11016D01*
X103555D01*
Y11085D01*
X103578D01*
Y11154D01*
X103601D01*
Y11245D01*
X103624D01*
Y11359D01*
X103647D01*
Y11474D01*
X103670D01*
Y11656D01*
X103692D01*
Y12365D01*
X103670D01*
Y12525D01*
X103647D01*
Y12640D01*
X103624D01*
Y12731D01*
X103601D01*
Y12822D01*
X103578D01*
Y12891D01*
X103555D01*
Y12959D01*
X103533D01*
Y13028D01*
X103510D01*
Y13097D01*
X103487D01*
Y13142D01*
X103464D01*
Y13188D01*
X103441D01*
Y13234D01*
X103418D01*
Y13280D01*
X103395D01*
Y13325D01*
X103373D01*
Y13371D01*
X103350D01*
Y13417D01*
X103327D01*
Y13462D01*
X103304D01*
Y13508D01*
X103281D01*
Y13531D01*
X103258D01*
Y13577D01*
X103235D01*
Y13623D01*
X103212D01*
Y13645D01*
X103190D01*
Y13691D01*
X103167D01*
Y13714D01*
X103144D01*
Y13760D01*
X103121D01*
Y13782D01*
X103098D01*
Y13805D01*
X103075D01*
Y13851D01*
X103052D01*
Y13874D01*
X103030D01*
Y13897D01*
X103007D01*
Y13942D01*
X102984D01*
Y13965D01*
X102961D01*
Y13988D01*
X102938D01*
Y14011D01*
X102915D01*
Y14057D01*
X102892D01*
Y14080D01*
X102870D01*
Y14103D01*
X102847D01*
Y14125D01*
X102824D01*
Y14148D01*
X102801D01*
Y14171D01*
X102778D01*
Y14194D01*
X102755D01*
Y14240D01*
X102732D01*
Y14263D01*
X102709D01*
Y14285D01*
X102687D01*
Y14308D01*
X102664D01*
Y14331D01*
X102641D01*
Y14354D01*
X102618D01*
Y14377D01*
X102595D01*
Y14400D01*
X102572D01*
Y14423D01*
X102550D01*
Y14445D01*
X102527D01*
Y14468D01*
X102504D01*
Y14491D01*
X102481D01*
Y14514D01*
X102458D01*
Y14537D01*
X102412D01*
Y14560D01*
X102390D01*
Y14583D01*
X102367D01*
Y14605D01*
X102344D01*
Y14628D01*
X102321D01*
Y14651D01*
X102298D01*
Y14674D01*
X102275D01*
Y14697D01*
X102252D01*
Y14720D01*
X102207D01*
Y14743D01*
X102184D01*
Y14765D01*
X102161D01*
Y14788D01*
X102138D01*
Y14811D01*
X102115D01*
Y14834D01*
X102092D01*
Y14857D01*
X102047D01*
Y14880D01*
X102024D01*
Y14903D01*
X102001D01*
Y14925D01*
X101978D01*
Y14948D01*
X101932D01*
Y14971D01*
X101909D01*
Y14994D01*
X101887D01*
Y15017D01*
X101841D01*
Y15040D01*
X101818D01*
Y15063D01*
X101795D01*
Y15086D01*
X101749D01*
Y15108D01*
X101727D01*
Y15131D01*
X101704D01*
Y15154D01*
X101658D01*
Y15177D01*
X101635D01*
Y15200D01*
X101612D01*
Y15223D01*
X101567D01*
Y15246D01*
X101544D01*
Y15268D01*
X101521D01*
Y15291D01*
X101475D01*
Y15314D01*
X101452D01*
Y15337D01*
X101407D01*
Y15360D01*
X101384D01*
Y15383D01*
X101338D01*
Y15405D01*
X101315D01*
Y15428D01*
X101269D01*
Y15451D01*
X101247D01*
Y15474D01*
X101201D01*
Y15497D01*
X101178D01*
Y15520D01*
X101132D01*
Y15543D01*
X101109D01*
Y15565D01*
X101064D01*
Y15588D01*
X101041D01*
Y15611D01*
X100995D01*
Y15634D01*
X100972D01*
Y15657D01*
X100926D01*
Y15680D01*
X100904D01*
Y15703D01*
X100858D01*
Y15726D01*
X100835D01*
Y15748D01*
X100789D01*
Y15771D01*
X100744D01*
Y15794D01*
X100721D01*
Y15817D01*
X100675D01*
Y15840D01*
X100652D01*
Y15863D01*
X100606D01*
Y15886D01*
X100561D01*
Y15908D01*
X100538D01*
Y15931D01*
X100492D01*
Y15954D01*
X100446D01*
Y15977D01*
X100424D01*
Y16000D01*
X100378D01*
Y16023D01*
X100332D01*
Y16046D01*
X100309D01*
Y16068D01*
X100264D01*
Y16091D01*
X100218D01*
Y16114D01*
X100195D01*
Y16137D01*
X100149D01*
Y16160D01*
X100103D01*
Y16183D01*
X100081D01*
Y16206D01*
X100035D01*
Y16229D01*
X99989D01*
Y16251D01*
X99944D01*
Y16274D01*
X99921D01*
Y16297D01*
X99875D01*
Y16320D01*
X99829D01*
Y16343D01*
X99783D01*
Y16366D01*
X99761D01*
Y16388D01*
X99715D01*
Y16411D01*
X99669D01*
Y16434D01*
X99624D01*
Y16457D01*
X99601D01*
Y16480D01*
X99555D01*
Y16503D01*
X99509D01*
Y16526D01*
X99463D01*
Y16548D01*
X99441D01*
Y16571D01*
X99395D01*
Y16594D01*
X99349D01*
Y16617D01*
X99303D01*
Y16640D01*
X99281D01*
Y16663D01*
X99235D01*
Y16686D01*
X99189D01*
Y16709D01*
X99143D01*
Y16731D01*
X99121D01*
Y16754D01*
X99075D01*
Y16777D01*
X99029D01*
Y16800D01*
X98983D01*
Y16823D01*
X98961D01*
Y16846D01*
X98915D01*
Y16869D01*
X98869D01*
Y16891D01*
X98823D01*
Y16914D01*
X98778D01*
Y16937D01*
X98755D01*
Y16960D01*
X98709D01*
Y16983D01*
X98663D01*
Y17006D01*
X98618D01*
Y17029D01*
X98595D01*
Y17051D01*
X98549D01*
Y17074D01*
X98503D01*
Y17097D01*
X98458D01*
Y17120D01*
X98435D01*
Y17143D01*
X98389D01*
Y17166D01*
X98343D01*
Y17189D01*
X98298D01*
Y17211D01*
X98275D01*
Y17234D01*
X98229D01*
Y17257D01*
X98183D01*
Y17280D01*
X98138D01*
Y17303D01*
X98092D01*
Y17326D01*
X98069D01*
Y17349D01*
X98023D01*
Y17371D01*
X97978D01*
Y17394D01*
X97932D01*
Y17417D01*
X97909D01*
Y17440D01*
X97863D01*
Y17463D01*
X97818D01*
Y17486D01*
X97772D01*
Y17509D01*
X97749D01*
Y17531D01*
X97703D01*
Y17554D01*
X97658D01*
Y17577D01*
X97612D01*
Y17600D01*
X97589D01*
Y17623D01*
X97543D01*
Y17646D01*
X97497D01*
Y17669D01*
X97452D01*
Y17692D01*
X97429D01*
Y17714D01*
X97383D01*
Y17737D01*
X97338D01*
Y17760D01*
X97292D01*
Y17783D01*
X97246D01*
Y17806D01*
X97223D01*
Y17829D01*
X97177D01*
Y17852D01*
X97132D01*
Y17874D01*
X97086D01*
Y17897D01*
X97063D01*
Y17920D01*
X97018D01*
Y17943D01*
X96972D01*
Y17966D01*
X96926D01*
Y17989D01*
X96903D01*
Y18011D01*
X96858D01*
Y18034D01*
X96812D01*
Y18057D01*
X96766D01*
Y18080D01*
X96743D01*
Y18103D01*
X96697D01*
Y18126D01*
X96652D01*
Y18149D01*
X96606D01*
Y18171D01*
X96560D01*
Y18194D01*
X96537D01*
Y18217D01*
X96492D01*
Y18240D01*
X96446D01*
Y18263D01*
X96400D01*
Y18286D01*
X96377D01*
Y18309D01*
X96332D01*
Y18331D01*
X96286D01*
Y18354D01*
X96240D01*
Y18377D01*
X96217D01*
Y18400D01*
X96172D01*
Y18423D01*
X96126D01*
Y18446D01*
X96080D01*
Y18469D01*
X96057D01*
Y18492D01*
X96012D01*
Y18514D01*
X95966D01*
Y18537D01*
X95920D01*
Y18560D01*
X95897D01*
Y18583D01*
X95852D01*
Y18606D01*
X95806D01*
Y18629D01*
X95760D01*
Y18652D01*
X95714D01*
Y18674D01*
X95692D01*
Y18697D01*
X95646D01*
Y18720D01*
X95600D01*
Y18743D01*
X95555D01*
Y18766D01*
X95532D01*
Y18789D01*
X95486D01*
Y18812D01*
X95440D01*
Y18835D01*
X95394D01*
Y18857D01*
X95372D01*
Y18880D01*
X95326D01*
Y18903D01*
X95280D01*
Y18926D01*
X95234D01*
Y18949D01*
X95212D01*
Y18972D01*
X95166D01*
Y18994D01*
X95120D01*
Y19040D01*
X95143D01*
Y19200D01*
X95166D01*
Y19315D01*
X95189D01*
Y19406D01*
X95212D01*
Y19497D01*
X95234D01*
Y19566D01*
X95257D01*
Y19635D01*
X95280D01*
Y19703D01*
X95303D01*
Y19749D01*
X95326D01*
Y19817D01*
X95349D01*
Y19863D01*
X95372D01*
Y19909D01*
X95394D01*
Y19955D01*
X95417D01*
Y20000D01*
X95440D01*
Y20046D01*
X95463D01*
Y20069D01*
X95486D01*
Y20115D01*
X95509D01*
Y20160D01*
X95532D01*
Y20183D01*
X95555D01*
Y20229D01*
X95577D01*
Y20252D01*
X95600D01*
Y20298D01*
X95623D01*
Y20320D01*
X95646D01*
Y20343D01*
X95669D01*
Y20389D01*
X95692D01*
Y20412D01*
X95714D01*
Y20435D01*
X95737D01*
Y20458D01*
X95760D01*
Y20503D01*
X95783D01*
Y20526D01*
X95806D01*
Y20549D01*
X95829D01*
Y20572D01*
X95852D01*
Y20595D01*
X95875D01*
Y20617D01*
X95897D01*
Y20640D01*
X95920D01*
Y20663D01*
X95943D01*
Y20686D01*
X95966D01*
Y20709D01*
X95989D01*
Y20732D01*
X96012D01*
Y20755D01*
X96034D01*
Y20777D01*
X96057D01*
Y20800D01*
X96080D01*
Y20823D01*
X96103D01*
Y20846D01*
X96126D01*
Y20869D01*
X96172D01*
Y20892D01*
X96194D01*
Y20915D01*
X96217D01*
Y20937D01*
X96240D01*
Y20960D01*
X96286D01*
Y20983D01*
X96309D01*
Y21006D01*
X96332D01*
Y21029D01*
X96377D01*
Y21052D01*
X96400D01*
Y21075D01*
X96446D01*
Y21098D01*
X96469D01*
Y21120D01*
X96515D01*
Y21143D01*
X96537D01*
Y21166D01*
X96583D01*
Y21189D01*
X96606D01*
Y21212D01*
X96652D01*
Y21235D01*
X96697D01*
Y21258D01*
X96743D01*
Y21280D01*
X96766D01*
Y21303D01*
X96812D01*
Y21326D01*
X96858D01*
Y21349D01*
X96903D01*
Y21372D01*
X96972D01*
Y21395D01*
X97018D01*
Y21418D01*
X97063D01*
Y21441D01*
X97132D01*
Y21463D01*
X97177D01*
Y21486D01*
X97246D01*
Y21509D01*
X97315D01*
Y21532D01*
X97383D01*
Y21555D01*
X97475D01*
Y21578D01*
X97566D01*
Y21600D01*
X97726D01*
Y21578D01*
D02*
G37*
G36*
X18701Y76181D02*
Y79331D01*
X17323D01*
Y85236D01*
X25787D01*
Y76181D01*
X18701D01*
D02*
G37*
G36*
X17323Y150984D02*
Y156890D01*
X18701D01*
Y160039D01*
X25787D01*
Y150984D01*
X17323D01*
D02*
G37*
G36*
X68061Y226486D02*
X68681D01*
Y226398D01*
X69124D01*
Y226309D01*
X69478D01*
Y226220D01*
X69744D01*
Y226132D01*
X69921D01*
Y226043D01*
X70187D01*
Y225955D01*
X70364D01*
Y225866D01*
X70541D01*
Y225778D01*
X70718D01*
Y225689D01*
X70807D01*
Y225600D01*
X70984D01*
Y225512D01*
X71073D01*
Y225423D01*
X71250D01*
Y225335D01*
X71339D01*
Y225246D01*
X71427D01*
Y225157D01*
X71516D01*
Y225069D01*
X71604D01*
Y224980D01*
X71693D01*
Y224892D01*
X71781D01*
Y224803D01*
X71870D01*
Y224715D01*
X71959D01*
Y224626D01*
X72047D01*
Y224537D01*
X72136D01*
Y224449D01*
X72224D01*
Y224272D01*
X72313D01*
Y224183D01*
X72402D01*
Y224006D01*
X72490D01*
Y223829D01*
X72579D01*
Y223652D01*
X72667D01*
Y223474D01*
X72756D01*
Y223297D01*
X72844D01*
Y223120D01*
X72933D01*
Y222854D01*
X73022D01*
Y222500D01*
X73110D01*
Y222057D01*
X73199D01*
Y220020D01*
X73110D01*
Y219488D01*
X73022D01*
Y219222D01*
X72933D01*
Y218957D01*
X72844D01*
Y218691D01*
X72756D01*
Y218514D01*
X72667D01*
Y218248D01*
X72579D01*
Y218071D01*
X72490D01*
Y217982D01*
X72402D01*
Y217805D01*
X72313D01*
Y217628D01*
X72224D01*
Y217539D01*
X72136D01*
Y217362D01*
X72047D01*
Y217185D01*
X71959D01*
Y217096D01*
X71870D01*
Y216919D01*
X71781D01*
Y216831D01*
X71693D01*
Y216565D01*
X71604D01*
Y216388D01*
X71693D01*
Y216211D01*
X71781D01*
Y216122D01*
X71870D01*
Y216034D01*
X72047D01*
Y215945D01*
X72224D01*
Y215856D01*
X72490D01*
Y215768D01*
X72933D01*
Y215679D01*
X73730D01*
Y215591D01*
X74793D01*
Y215679D01*
X75768D01*
Y215768D01*
X76299D01*
Y215856D01*
X76742D01*
Y215945D01*
X77185D01*
Y216034D01*
X77539D01*
Y216122D01*
X77805D01*
Y216211D01*
X78159D01*
Y216299D01*
X78425D01*
Y216388D01*
X78691D01*
Y216476D01*
X78957D01*
Y216565D01*
X79134D01*
Y216653D01*
X79400D01*
Y216742D01*
X79577D01*
Y216831D01*
X79754D01*
Y216919D01*
X80020D01*
Y217008D01*
X80197D01*
Y217096D01*
X80374D01*
Y217185D01*
X80551D01*
Y217274D01*
X80640D01*
Y217362D01*
X80817D01*
Y217451D01*
X80994D01*
Y217539D01*
X81171D01*
Y217628D01*
X81348D01*
Y217717D01*
X81437D01*
Y217805D01*
X81614D01*
Y217894D01*
X81880D01*
Y217982D01*
X82057D01*
Y218071D01*
X82411D01*
Y218159D01*
X82677D01*
Y218071D01*
X82943D01*
Y217982D01*
X83031D01*
Y217894D01*
X83120D01*
Y217717D01*
X83209D01*
Y217539D01*
X83297D01*
Y217362D01*
X83386D01*
Y217096D01*
X83474D01*
Y216742D01*
X83563D01*
Y216388D01*
X83652D01*
Y215856D01*
X83740D01*
Y215059D01*
X83829D01*
Y213110D01*
X83917D01*
Y213022D01*
X83829D01*
Y211516D01*
X83740D01*
Y210896D01*
X83652D01*
Y210453D01*
X83563D01*
Y210010D01*
X83474D01*
Y209744D01*
X83386D01*
Y209390D01*
X83297D01*
Y209124D01*
X83209D01*
Y208858D01*
X83120D01*
Y208593D01*
X83031D01*
Y208415D01*
X82943D01*
Y208238D01*
X82854D01*
Y207972D01*
X82766D01*
Y207795D01*
X82677D01*
Y207618D01*
X82589D01*
Y207441D01*
X82500D01*
Y207352D01*
X82411D01*
Y207175D01*
X82323D01*
Y206998D01*
X82234D01*
Y206909D01*
X82146D01*
Y206732D01*
X82057D01*
Y206644D01*
X81968D01*
Y206467D01*
X81880D01*
Y206378D01*
X81791D01*
Y206201D01*
X81703D01*
Y206112D01*
X81614D01*
Y206024D01*
X81526D01*
Y205935D01*
X81437D01*
Y205758D01*
X81348D01*
Y205669D01*
X81260D01*
Y205581D01*
X81171D01*
Y205492D01*
X81083D01*
Y205403D01*
X80994D01*
Y205315D01*
X80905D01*
Y205226D01*
X80817D01*
Y205138D01*
X80728D01*
Y205049D01*
X80640D01*
Y204961D01*
X80551D01*
Y204872D01*
X80463D01*
Y204784D01*
X80374D01*
Y204695D01*
X80197D01*
Y204606D01*
X80108D01*
Y204518D01*
X80020D01*
Y204429D01*
X79931D01*
Y204341D01*
X79754D01*
Y204252D01*
X79665D01*
Y204163D01*
X79577D01*
Y204075D01*
X79400D01*
Y203986D01*
X79311D01*
Y203898D01*
X79134D01*
Y203809D01*
X78957D01*
Y203720D01*
X78868D01*
Y203632D01*
X78691D01*
Y203543D01*
X78514D01*
Y203455D01*
X78337D01*
Y203366D01*
X78159D01*
Y203278D01*
X77982D01*
Y203189D01*
X77805D01*
Y203100D01*
X77628D01*
Y203012D01*
X77451D01*
Y202923D01*
X77185D01*
Y202835D01*
X77008D01*
Y202746D01*
X76742D01*
Y202658D01*
X76476D01*
Y202569D01*
X76122D01*
Y202480D01*
X75856D01*
Y202392D01*
X75502D01*
Y202303D01*
X75148D01*
Y202215D01*
X74793D01*
Y202126D01*
X74350D01*
Y202037D01*
X73730D01*
Y201949D01*
X73110D01*
Y201860D01*
X72047D01*
Y201772D01*
X69213D01*
Y201860D01*
X68415D01*
Y201949D01*
X67795D01*
Y202037D01*
X67352D01*
Y202126D01*
X66909D01*
Y202215D01*
X66555D01*
Y202303D01*
X66289D01*
Y202392D01*
X66024D01*
Y202480D01*
X65758D01*
Y202569D01*
X65492D01*
Y202658D01*
X65226D01*
Y202746D01*
X65049D01*
Y202835D01*
X64784D01*
Y202923D01*
X64606D01*
Y203012D01*
X64429D01*
Y203100D01*
X64252D01*
Y203189D01*
X64075D01*
Y203278D01*
X63898D01*
Y203366D01*
X63721D01*
Y203455D01*
X63543D01*
Y203543D01*
X63455D01*
Y203632D01*
X63278D01*
Y203720D01*
X63100D01*
Y203809D01*
X63012D01*
Y203898D01*
X62835D01*
Y203986D01*
X62746D01*
Y204075D01*
X62657D01*
Y204163D01*
X62480D01*
Y204252D01*
X62392D01*
Y204341D01*
X62303D01*
Y204429D01*
X62215D01*
Y204518D01*
X62037D01*
Y204606D01*
X61949D01*
Y204695D01*
X61860D01*
Y204784D01*
X61772D01*
Y204872D01*
X61683D01*
Y204961D01*
X61594D01*
Y205049D01*
X61506D01*
Y205138D01*
X61417D01*
Y205226D01*
X61329D01*
Y205315D01*
X61240D01*
Y205403D01*
X61152D01*
Y205581D01*
X61063D01*
Y205669D01*
X60974D01*
Y205758D01*
X60886D01*
Y205847D01*
X60797D01*
Y206024D01*
X60709D01*
Y206112D01*
X60620D01*
Y206289D01*
X60532D01*
Y206378D01*
X60443D01*
Y206555D01*
X60354D01*
Y206644D01*
X60266D01*
Y206821D01*
X60177D01*
Y206998D01*
X60089D01*
Y207175D01*
X60000D01*
Y207352D01*
X59911D01*
Y207618D01*
X59823D01*
Y207795D01*
X59734D01*
Y208061D01*
X59646D01*
Y208415D01*
X59557D01*
Y208770D01*
X59469D01*
Y209478D01*
X59380D01*
Y210276D01*
X59469D01*
Y210896D01*
X59557D01*
Y211339D01*
X59646D01*
Y211604D01*
X59734D01*
Y211870D01*
X59823D01*
Y212047D01*
X59911D01*
Y212313D01*
X60000D01*
Y212490D01*
X60089D01*
Y212667D01*
X60177D01*
Y212756D01*
X60266D01*
Y212933D01*
X60354D01*
Y213022D01*
X60443D01*
Y213199D01*
X60532D01*
Y213287D01*
X60620D01*
Y213465D01*
X60709D01*
Y213553D01*
X60797D01*
Y213642D01*
X60886D01*
Y213730D01*
X60974D01*
Y213908D01*
X61063D01*
Y213996D01*
X61152D01*
Y214085D01*
X61240D01*
Y214173D01*
X61329D01*
Y214262D01*
X61417D01*
Y214350D01*
X61506D01*
Y214439D01*
X61594D01*
Y214528D01*
X61683D01*
Y214616D01*
X61860D01*
Y214705D01*
X61949D01*
Y214793D01*
X62037D01*
Y214882D01*
X62126D01*
Y214970D01*
X62215D01*
Y215059D01*
X62303D01*
Y215148D01*
X62480D01*
Y215236D01*
X62569D01*
Y215413D01*
X62657D01*
Y215502D01*
X62746D01*
Y215591D01*
X62835D01*
Y215679D01*
X62923D01*
Y215945D01*
X63012D01*
Y216299D01*
X62923D01*
Y216476D01*
X62835D01*
Y216565D01*
X62746D01*
Y216742D01*
X62657D01*
Y216831D01*
X62569D01*
Y216919D01*
X62480D01*
Y217008D01*
X62392D01*
Y217096D01*
X62303D01*
Y217185D01*
X62215D01*
Y217274D01*
X61152D01*
Y217362D01*
X60532D01*
Y217451D01*
X60177D01*
Y217539D01*
X59734D01*
Y217628D01*
X59380D01*
Y217717D01*
X59114D01*
Y217805D01*
X58760D01*
Y217894D01*
X58494D01*
Y217982D01*
X58228D01*
Y218071D01*
X58051D01*
Y218159D01*
X57874D01*
Y218248D01*
X57697D01*
Y218337D01*
X57520D01*
Y218425D01*
X57431D01*
Y218514D01*
X57342D01*
Y218602D01*
X57254D01*
Y218691D01*
X57165D01*
Y218779D01*
X57077D01*
Y218868D01*
X56988D01*
Y218957D01*
X56900D01*
Y219134D01*
X56811D01*
Y219311D01*
X56722D01*
Y220463D01*
X56811D01*
Y220640D01*
X56900D01*
Y220817D01*
X56988D01*
Y220905D01*
X57165D01*
Y220994D01*
X58406D01*
Y221083D01*
X58937D01*
Y221171D01*
X59291D01*
Y221260D01*
X59646D01*
Y221348D01*
X59911D01*
Y221437D01*
X60177D01*
Y221526D01*
X60354D01*
Y221614D01*
X60532D01*
Y221703D01*
X60709D01*
Y221791D01*
X60886D01*
Y221880D01*
X61063D01*
Y221969D01*
X61152D01*
Y222234D01*
X61240D01*
Y222500D01*
X61329D01*
Y222677D01*
X61417D01*
Y222854D01*
X61506D01*
Y223120D01*
X61594D01*
Y223297D01*
X61683D01*
Y223386D01*
X61772D01*
Y223563D01*
X61860D01*
Y223740D01*
X61949D01*
Y223829D01*
X62037D01*
Y224006D01*
X62126D01*
Y224095D01*
X62215D01*
Y224272D01*
X62303D01*
Y224360D01*
X62392D01*
Y224449D01*
X62480D01*
Y224537D01*
X62569D01*
Y224626D01*
X62657D01*
Y224715D01*
X62746D01*
Y224803D01*
X62835D01*
Y224892D01*
X62923D01*
Y224980D01*
X63012D01*
Y225069D01*
X63100D01*
Y225157D01*
X63189D01*
Y225246D01*
X63278D01*
Y225335D01*
X63455D01*
Y225423D01*
X63543D01*
Y225512D01*
X63721D01*
Y225600D01*
X63809D01*
Y225689D01*
X63986D01*
Y225778D01*
X64075D01*
Y225866D01*
X64252D01*
Y225955D01*
X64429D01*
Y226043D01*
X64695D01*
Y226132D01*
X64872D01*
Y226220D01*
X65138D01*
Y226309D01*
X65403D01*
Y226398D01*
X65847D01*
Y226486D01*
X66289D01*
Y226575D01*
X68061D01*
Y226486D01*
D02*
G37*
G36*
X84709Y17656D02*
X86731Y14771D01*
X84960D01*
X83834Y16465D01*
X82708Y14771D01*
X81014D01*
X82993Y17591D01*
X81102Y20258D01*
X82872D01*
X83834Y18738D01*
X84862Y20258D01*
X86556D01*
X84709Y17656D01*
D02*
G37*
%LPC*%
G36*
X68238Y225689D02*
X66201D01*
Y225600D01*
X65758D01*
Y225512D01*
X65403D01*
Y225423D01*
X65226D01*
Y225335D01*
X64961D01*
Y225246D01*
X64784D01*
Y225157D01*
X64606D01*
Y225069D01*
X64429D01*
Y224980D01*
X64341D01*
Y224892D01*
X64163D01*
Y224803D01*
X64075D01*
Y224715D01*
X63898D01*
Y224626D01*
X63809D01*
Y224537D01*
X63721D01*
Y224449D01*
X63632D01*
Y224360D01*
X63455D01*
Y224272D01*
X63366D01*
Y224183D01*
X63278D01*
Y224095D01*
X63189D01*
Y223917D01*
X63100D01*
Y223829D01*
X63012D01*
Y223740D01*
X62923D01*
Y223652D01*
X62835D01*
Y223474D01*
X62746D01*
Y223386D01*
X62657D01*
Y223209D01*
X62569D01*
Y223120D01*
X62480D01*
Y222943D01*
X62392D01*
Y222766D01*
X62303D01*
Y222589D01*
X62215D01*
Y222411D01*
X62126D01*
Y222146D01*
X62037D01*
Y221880D01*
X61949D01*
Y221526D01*
X62037D01*
Y221348D01*
X62126D01*
Y221171D01*
X62215D01*
Y221083D01*
X62303D01*
Y220905D01*
X62392D01*
Y220817D01*
X62480D01*
Y220728D01*
X62569D01*
Y220551D01*
X62657D01*
Y220463D01*
X62746D01*
Y220374D01*
X62835D01*
Y220197D01*
X62923D01*
Y220108D01*
X63012D01*
Y219931D01*
X63100D01*
Y219843D01*
X63189D01*
Y219665D01*
X63278D01*
Y219311D01*
X63366D01*
Y219045D01*
X63278D01*
Y218602D01*
X63189D01*
Y218248D01*
X63100D01*
Y217982D01*
X63012D01*
Y217805D01*
X62923D01*
Y217717D01*
X63012D01*
Y217628D01*
X63100D01*
Y217539D01*
X63189D01*
Y217362D01*
X63278D01*
Y217274D01*
X63366D01*
Y217185D01*
X63455D01*
Y217096D01*
X63543D01*
Y216919D01*
X63632D01*
Y216831D01*
X63721D01*
Y216653D01*
X63809D01*
Y216299D01*
X63898D01*
Y215945D01*
X63809D01*
Y215591D01*
X63721D01*
Y215413D01*
X63632D01*
Y215236D01*
X63543D01*
Y215148D01*
X63455D01*
Y214970D01*
X63366D01*
Y214882D01*
X63278D01*
Y214793D01*
X63189D01*
Y214705D01*
X63100D01*
Y214616D01*
X63012D01*
Y214528D01*
X62923D01*
Y214439D01*
X62835D01*
Y214350D01*
X62746D01*
Y214262D01*
X62657D01*
Y214173D01*
X62569D01*
Y214085D01*
X62392D01*
Y213996D01*
X62303D01*
Y213908D01*
X62215D01*
Y213819D01*
X62126D01*
Y213730D01*
X62037D01*
Y213642D01*
X61949D01*
Y213553D01*
X61860D01*
Y213465D01*
X61772D01*
Y213376D01*
X61683D01*
Y213287D01*
X61594D01*
Y213199D01*
X61506D01*
Y213110D01*
X61417D01*
Y212933D01*
X61329D01*
Y212844D01*
X61240D01*
Y212667D01*
X61152D01*
Y212579D01*
X61063D01*
Y212402D01*
X60974D01*
Y212313D01*
X60886D01*
Y212136D01*
X60797D01*
Y211959D01*
X60709D01*
Y211782D01*
X60620D01*
Y211516D01*
X60532D01*
Y211250D01*
X60443D01*
Y210984D01*
X60354D01*
Y210453D01*
X60266D01*
Y209213D01*
X60354D01*
Y208770D01*
X60443D01*
Y208415D01*
X60532D01*
Y208150D01*
X60620D01*
Y207884D01*
X60709D01*
Y207707D01*
X60797D01*
Y207529D01*
X60886D01*
Y207352D01*
X60974D01*
Y207175D01*
X61063D01*
Y206998D01*
X61152D01*
Y206909D01*
X61240D01*
Y206732D01*
X61329D01*
Y206644D01*
X61417D01*
Y206467D01*
X61506D01*
Y206378D01*
X61594D01*
Y206289D01*
X61683D01*
Y206201D01*
X61772D01*
Y206024D01*
X61860D01*
Y205935D01*
X61949D01*
Y205847D01*
X62037D01*
Y205758D01*
X62126D01*
Y205669D01*
X62215D01*
Y205581D01*
X62303D01*
Y205492D01*
X62392D01*
Y205403D01*
X62480D01*
Y205315D01*
X62569D01*
Y205226D01*
X62746D01*
Y205138D01*
X62835D01*
Y205049D01*
X62923D01*
Y204961D01*
X63012D01*
Y204872D01*
X63189D01*
Y204784D01*
X63278D01*
Y204695D01*
X63366D01*
Y204606D01*
X63543D01*
Y204518D01*
X63632D01*
Y204429D01*
X63809D01*
Y204341D01*
X63986D01*
Y204252D01*
X64075D01*
Y204163D01*
X64252D01*
Y204075D01*
X64429D01*
Y203986D01*
X64606D01*
Y203898D01*
X64784D01*
Y203809D01*
X64961D01*
Y203720D01*
X65138D01*
Y203632D01*
X65315D01*
Y203543D01*
X65581D01*
Y203455D01*
X65847D01*
Y203366D01*
X66024D01*
Y203278D01*
X66289D01*
Y203189D01*
X66644D01*
Y203100D01*
X66909D01*
Y203012D01*
X67264D01*
Y202923D01*
X67707D01*
Y202835D01*
X68238D01*
Y202746D01*
X68947D01*
Y202658D01*
X72402D01*
Y202746D01*
X73287D01*
Y202835D01*
X73908D01*
Y202923D01*
X74350D01*
Y203012D01*
X74793D01*
Y203100D01*
X75236D01*
Y203189D01*
X75502D01*
Y203278D01*
X75856D01*
Y203366D01*
X76122D01*
Y203455D01*
X76388D01*
Y203543D01*
X76653D01*
Y203632D01*
X76831D01*
Y203720D01*
X77096D01*
Y203809D01*
X77274D01*
Y203898D01*
X77451D01*
Y203986D01*
X77716D01*
Y204075D01*
X77805D01*
Y204163D01*
X77982D01*
Y204252D01*
X78159D01*
Y204341D01*
X78337D01*
Y204429D01*
X78514D01*
Y204518D01*
X78602D01*
Y204606D01*
X78780D01*
Y204695D01*
X78868D01*
Y204784D01*
X79045D01*
Y204872D01*
X79134D01*
Y204961D01*
X79311D01*
Y205049D01*
X79400D01*
Y205138D01*
X79488D01*
Y205226D01*
X79577D01*
Y205315D01*
X79754D01*
Y205403D01*
X79843D01*
Y205492D01*
X79931D01*
Y205581D01*
X80020D01*
Y205669D01*
X80108D01*
Y205758D01*
X80197D01*
Y205847D01*
X80285D01*
Y205935D01*
X80374D01*
Y206024D01*
X80463D01*
Y206112D01*
X80551D01*
Y206201D01*
X80640D01*
Y206289D01*
X80728D01*
Y206378D01*
X80817D01*
Y206555D01*
X80905D01*
Y206644D01*
X80994D01*
Y206732D01*
X81083D01*
Y206821D01*
X81171D01*
Y206998D01*
X81260D01*
Y207087D01*
X81348D01*
Y207264D01*
X81437D01*
Y207352D01*
X81526D01*
Y207529D01*
X81614D01*
Y207707D01*
X81703D01*
Y207884D01*
X81791D01*
Y207972D01*
X81880D01*
Y208150D01*
X81968D01*
Y208327D01*
X82057D01*
Y208593D01*
X82146D01*
Y208770D01*
X82234D01*
Y209035D01*
X82323D01*
Y209213D01*
X82411D01*
Y209478D01*
X82500D01*
Y209744D01*
X82589D01*
Y210098D01*
X82677D01*
Y210453D01*
X82766D01*
Y210896D01*
X82854D01*
Y211427D01*
X82943D01*
Y212224D01*
X83031D01*
Y214262D01*
X82943D01*
Y215325D01*
X82854D01*
Y215945D01*
X82766D01*
Y216388D01*
X82677D01*
Y216742D01*
X82589D01*
Y217008D01*
X82500D01*
Y217274D01*
X82411D01*
Y217185D01*
X82146D01*
Y217096D01*
X81968D01*
Y217008D01*
X81791D01*
Y216919D01*
X81614D01*
Y216831D01*
X81437D01*
Y216742D01*
X81348D01*
Y216653D01*
X81171D01*
Y216565D01*
X80994D01*
Y216476D01*
X80817D01*
Y216388D01*
X80640D01*
Y216299D01*
X80463D01*
Y216211D01*
X80285D01*
Y216122D01*
X80108D01*
Y216034D01*
X79931D01*
Y215945D01*
X79665D01*
Y215856D01*
X79488D01*
Y215768D01*
X79222D01*
Y215679D01*
X78957D01*
Y215591D01*
X78691D01*
Y215502D01*
X78425D01*
Y215413D01*
X78159D01*
Y215325D01*
X77894D01*
Y215236D01*
X77539D01*
Y215148D01*
X77185D01*
Y215059D01*
X76742D01*
Y214970D01*
X76211D01*
Y214882D01*
X75502D01*
Y214793D01*
X73022D01*
Y214882D01*
X72490D01*
Y214970D01*
X72224D01*
Y215059D01*
X71959D01*
Y215148D01*
X71693D01*
Y215236D01*
X71516D01*
Y215325D01*
X71427D01*
Y215413D01*
X71250D01*
Y215502D01*
X71161D01*
Y215591D01*
X71073D01*
Y215679D01*
X70984D01*
Y215856D01*
X70896D01*
Y216034D01*
X70807D01*
Y216919D01*
X70896D01*
Y217096D01*
X70984D01*
Y217274D01*
X71073D01*
Y217451D01*
X71161D01*
Y217539D01*
X71250D01*
Y217717D01*
X71339D01*
Y217805D01*
X71427D01*
Y217982D01*
X71516D01*
Y218159D01*
X71604D01*
Y218248D01*
X71693D01*
Y218425D01*
X71781D01*
Y218602D01*
X71870D01*
Y218779D01*
X71959D01*
Y218957D01*
X72047D01*
Y219222D01*
X72136D01*
Y219488D01*
X72224D01*
Y219931D01*
X72313D01*
Y220551D01*
X72402D01*
Y221171D01*
Y221260D01*
Y221614D01*
X72313D01*
Y222146D01*
X72224D01*
Y222500D01*
X72136D01*
Y222766D01*
X72047D01*
Y223031D01*
X71959D01*
Y223209D01*
X71870D01*
Y223386D01*
X71781D01*
Y223563D01*
X71693D01*
Y223652D01*
X71604D01*
Y223829D01*
X71516D01*
Y223917D01*
X71427D01*
Y224006D01*
X71339D01*
Y224183D01*
X71250D01*
Y224272D01*
X71161D01*
Y224360D01*
X71073D01*
Y224449D01*
X70984D01*
Y224537D01*
X70807D01*
Y224626D01*
X70718D01*
Y224715D01*
X70630D01*
Y224803D01*
X70453D01*
Y224892D01*
X70364D01*
Y224980D01*
X70187D01*
Y225069D01*
X70010D01*
Y225157D01*
X69833D01*
Y225246D01*
X69656D01*
Y225335D01*
X69390D01*
Y225423D01*
X69124D01*
Y225512D01*
X68770D01*
Y225600D01*
X68238D01*
Y225689D01*
D02*
G37*
G36*
X61329Y220994D02*
X61063D01*
Y220905D01*
X60886D01*
Y220817D01*
X60709D01*
Y220728D01*
X60443D01*
Y220640D01*
X60266D01*
Y220551D01*
X60000D01*
Y220463D01*
X59646D01*
Y220374D01*
X59291D01*
Y220285D01*
X58848D01*
Y220197D01*
X58140D01*
Y220108D01*
X57520D01*
Y219665D01*
X57608D01*
Y219488D01*
X57697D01*
Y219311D01*
X57785D01*
Y219222D01*
X57874D01*
Y219134D01*
X58051D01*
Y219045D01*
X58140D01*
Y218957D01*
X58317D01*
Y218868D01*
X58583D01*
Y218779D01*
X58848D01*
Y218691D01*
X59114D01*
Y218602D01*
X59380D01*
Y218514D01*
X59734D01*
Y218425D01*
X60089D01*
Y218337D01*
X60532D01*
Y218248D01*
X60974D01*
Y218159D01*
X61683D01*
Y218071D01*
X62126D01*
Y218159D01*
X62215D01*
Y218337D01*
X62303D01*
Y218602D01*
X62392D01*
Y218957D01*
X62480D01*
Y219311D01*
X62392D01*
Y219488D01*
X62303D01*
Y219577D01*
X62215D01*
Y219754D01*
X62126D01*
Y219843D01*
X62037D01*
Y219931D01*
X61949D01*
Y220108D01*
X61860D01*
Y220197D01*
X61772D01*
Y220285D01*
X61683D01*
Y220463D01*
X61594D01*
Y220551D01*
X61506D01*
Y220728D01*
X61417D01*
Y220817D01*
X61329D01*
Y220994D01*
D02*
G37*
%LPD*%
D16*
X107480Y169882D02*
D03*
Y197835D02*
D03*
D23*
X143307Y29528D02*
D03*
X134055D02*
D03*
D24*
X61417Y180827D02*
D03*
Y169567D02*
D03*
D25*
X46654Y47638D02*
D03*
X18701D02*
D03*
X46654Y188583D02*
D03*
X18701D02*
D03*
D29*
X102385Y53543D02*
D03*
X96040D02*
D03*
D30*
X120079Y108259D02*
D03*
Y115363D02*
D03*
Y78757D02*
D03*
Y71653D02*
D03*
D31*
X67323Y72857D02*
D03*
Y66513D02*
D03*
D32*
X67323Y103347D02*
D03*
Y95472D02*
D03*
D33*
X148031Y217717D02*
D03*
X167717D02*
D03*
D34*
X25984Y146653D02*
D03*
Y144685D02*
D03*
Y142717D02*
D03*
Y140748D02*
D03*
Y138779D02*
D03*
Y136811D02*
D03*
Y134843D02*
D03*
Y132874D02*
D03*
Y130905D02*
D03*
Y128937D02*
D03*
Y126969D02*
D03*
Y125000D02*
D03*
Y123031D02*
D03*
Y121063D02*
D03*
Y119095D02*
D03*
Y117126D02*
D03*
Y115157D02*
D03*
Y113189D02*
D03*
Y111221D02*
D03*
Y109252D02*
D03*
Y107283D02*
D03*
Y105315D02*
D03*
Y103347D02*
D03*
Y101378D02*
D03*
Y99410D02*
D03*
Y97441D02*
D03*
Y95472D02*
D03*
Y93504D02*
D03*
Y91535D02*
D03*
Y89567D02*
D03*
D35*
X98524Y132264D02*
D03*
Y137264D02*
D03*
Y142264D02*
D03*
Y147264D02*
D03*
X77854Y132264D02*
D03*
Y137264D02*
D03*
Y142264D02*
D03*
Y147264D02*
D03*
D36*
X150394Y29528D02*
D03*
X157087D02*
D03*
D37*
X77953Y154232D02*
D03*
Y159941D02*
D03*
D38*
X52756Y116339D02*
D03*
Y156890D02*
D03*
D39*
X109449Y115650D02*
D03*
Y108366D02*
D03*
Y71752D02*
D03*
Y79035D02*
D03*
D40*
X75492Y77579D02*
D03*
Y72579D02*
D03*
Y67579D02*
D03*
Y62579D02*
D03*
X96161Y77579D02*
D03*
Y72579D02*
D03*
Y67579D02*
D03*
Y62579D02*
D03*
D41*
X109449Y89685D02*
D03*
Y97165D02*
D03*
D42*
X145197Y159134D02*
D03*
X144882Y88189D02*
D03*
X193504Y123701D02*
D03*
D43*
X144882Y115394D02*
D03*
X169882D02*
D03*
Y131929D02*
D03*
D44*
X144882D02*
D03*
D45*
X39370Y19685D02*
D03*
Y216535D02*
D03*
X196850D02*
D03*
Y19685D02*
D03*
M02*
