G04*
G04 #@! TF.GenerationSoftware,Altium Limited,Altium Designer,24.2.2 (26)*
G04*
G04 Layer_Physical_Order=2*
G04 Layer_Color=16711680*
%FSLAX25Y25*%
%MOIN*%
G70*
G04*
G04 #@! TF.SameCoordinates,FC8948EB-AED8-47B0-A6AC-AC1B72ED221E*
G04*
G04*
G04 #@! TF.FilePolarity,Positive*
G04*
G01*
G75*
%ADD46C,0.00600*%
%ADD56C,0.21654*%
%ADD57C,0.07087*%
%ADD58R,0.07087X0.07087*%
%ADD59C,0.18898*%
%ADD60C,0.05000*%
G36*
X220227Y235095D02*
X222618Y234454D01*
X224905Y233507D01*
X227048Y232269D01*
X229012Y230762D01*
X230762Y229012D01*
X232269Y227048D01*
X233507Y224905D01*
X234454Y222618D01*
X235095Y220227D01*
X235418Y217773D01*
Y216535D01*
Y19685D01*
Y18447D01*
X235095Y15993D01*
X234454Y13602D01*
X233507Y11316D01*
X232269Y9172D01*
X230762Y7208D01*
X229012Y5458D01*
X227048Y3951D01*
X224905Y2714D01*
X222618Y1767D01*
X220227Y1126D01*
X217773Y803D01*
X18447D01*
X15993Y1126D01*
X13602Y1767D01*
X11316Y2714D01*
X9172Y3951D01*
X7208Y5458D01*
X5458Y7208D01*
X3951Y9172D01*
X2714Y11316D01*
X1767Y13602D01*
X1126Y15993D01*
X803Y18447D01*
Y19685D01*
Y216535D01*
Y217773D01*
X1126Y220227D01*
X1767Y222618D01*
X2714Y224905D01*
X3951Y227048D01*
X5458Y229012D01*
X7208Y230762D01*
X9172Y232269D01*
X11316Y233507D01*
X13602Y234454D01*
X15993Y235095D01*
X18447Y235418D01*
X217773D01*
X220227Y235095D01*
D02*
G37*
%LPC*%
G36*
X197840Y226584D02*
X195861D01*
X193919Y226198D01*
X192090Y225441D01*
X190445Y224341D01*
X189045Y222941D01*
X187945Y221295D01*
X187188Y219467D01*
X186802Y217525D01*
Y215546D01*
X187188Y213604D01*
X187945Y211775D01*
X189045Y210130D01*
X190445Y208730D01*
X192090Y207630D01*
X193919Y206873D01*
X195861Y206487D01*
X197840D01*
X199782Y206873D01*
X201610Y207630D01*
X203256Y208730D01*
X204656Y210130D01*
X205755Y211775D01*
X206513Y213604D01*
X206899Y215546D01*
Y217525D01*
X206513Y219467D01*
X205755Y221295D01*
X204656Y222941D01*
X203256Y224341D01*
X201610Y225441D01*
X199782Y226198D01*
X197840Y226584D01*
D02*
G37*
G36*
X40360D02*
X38380D01*
X36439Y226198D01*
X34610Y225441D01*
X32964Y224341D01*
X31565Y222941D01*
X30465Y221295D01*
X29707Y219467D01*
X29321Y217525D01*
Y215546D01*
X29707Y213604D01*
X30465Y211775D01*
X31565Y210130D01*
X32964Y208730D01*
X34610Y207630D01*
X36439Y206873D01*
X38380Y206487D01*
X40360D01*
X42301Y206873D01*
X44130Y207630D01*
X45776Y208730D01*
X47175Y210130D01*
X48275Y211775D01*
X49033Y213604D01*
X49419Y215546D01*
Y217525D01*
X49033Y219467D01*
X48275Y221295D01*
X47175Y222941D01*
X45776Y224341D01*
X44130Y225441D01*
X42301Y226198D01*
X40360Y226584D01*
D02*
G37*
G36*
X146096Y170561D02*
X144298D01*
X142521Y170279D01*
X140811Y169723D01*
X139208Y168907D01*
X137753Y167850D01*
X136481Y166578D01*
X135424Y165123D01*
X134607Y163520D01*
X134051Y161810D01*
X133770Y160033D01*
Y158235D01*
X134051Y156458D01*
X134607Y154747D01*
X135424Y153145D01*
X136481Y151690D01*
X137753Y150418D01*
X139208Y149361D01*
X140811Y148544D01*
X142521Y147988D01*
X144298Y147707D01*
X146096D01*
X147873Y147988D01*
X149583Y148544D01*
X151186Y149361D01*
X152641Y150418D01*
X153913Y151690D01*
X154970Y153145D01*
X155786Y154747D01*
X156342Y156458D01*
X156624Y158235D01*
Y160033D01*
X156342Y161810D01*
X155786Y163520D01*
X154970Y165123D01*
X153913Y166578D01*
X152641Y167850D01*
X151186Y168907D01*
X149583Y169723D01*
X147873Y170279D01*
X146096Y170561D01*
D02*
G37*
G36*
X149425Y136472D02*
X145382D01*
Y132429D01*
X149425D01*
Y136472D01*
D02*
G37*
G36*
X144382D02*
X140339D01*
Y132429D01*
X144382D01*
Y136472D01*
D02*
G37*
G36*
X170427Y136072D02*
X169336D01*
X168283Y135790D01*
X167338Y135245D01*
X166566Y134473D01*
X166021Y133528D01*
X165739Y132475D01*
Y131384D01*
X166021Y130330D01*
X166566Y129385D01*
X167338Y128614D01*
X168283Y128068D01*
X169336Y127786D01*
X170427D01*
X171481Y128068D01*
X172426Y128614D01*
X173197Y129385D01*
X173743Y130330D01*
X174025Y131384D01*
Y132475D01*
X173743Y133528D01*
X173197Y134473D01*
X172426Y135245D01*
X171481Y135790D01*
X170427Y136072D01*
D02*
G37*
G36*
X149425Y131429D02*
X145382D01*
Y127386D01*
X149425D01*
Y131429D01*
D02*
G37*
G36*
X144382D02*
X140339D01*
Y127386D01*
X144382D01*
Y131429D01*
D02*
G37*
G36*
X194403Y135128D02*
X192605D01*
X190828Y134846D01*
X189118Y134290D01*
X187515Y133474D01*
X186060Y132417D01*
X184788Y131145D01*
X183731Y129690D01*
X182914Y128087D01*
X182359Y126377D01*
X182077Y124600D01*
Y122801D01*
X182359Y121025D01*
X182914Y119314D01*
X183731Y117712D01*
X184788Y116257D01*
X186060Y114985D01*
X187515Y113928D01*
X189118Y113111D01*
X190828Y112555D01*
X192605Y112274D01*
X194403D01*
X196180Y112555D01*
X197890Y113111D01*
X199493Y113928D01*
X200948Y114985D01*
X202220Y116257D01*
X203277Y117712D01*
X204094Y119314D01*
X204649Y121025D01*
X204931Y122801D01*
Y124600D01*
X204649Y126377D01*
X204094Y128087D01*
X203277Y129690D01*
X202220Y131145D01*
X200948Y132417D01*
X199493Y133474D01*
X197890Y134290D01*
X196180Y134846D01*
X194403Y135128D01*
D02*
G37*
G36*
X170427Y119537D02*
X169336D01*
X168283Y119255D01*
X167338Y118709D01*
X166566Y117938D01*
X166021Y116993D01*
X165739Y115939D01*
Y114848D01*
X166021Y113795D01*
X166566Y112850D01*
X167338Y112078D01*
X168283Y111533D01*
X169336Y111250D01*
X170427D01*
X171481Y111533D01*
X172426Y112078D01*
X173197Y112850D01*
X173743Y113795D01*
X174025Y114848D01*
Y115939D01*
X173743Y116993D01*
X173197Y117938D01*
X172426Y118709D01*
X171481Y119255D01*
X170427Y119537D01*
D02*
G37*
G36*
X145427D02*
X144336D01*
X143283Y119255D01*
X142338Y118709D01*
X141566Y117938D01*
X141021Y116993D01*
X140739Y115939D01*
Y114848D01*
X141021Y113795D01*
X141566Y112850D01*
X142338Y112078D01*
X143283Y111533D01*
X144336Y111250D01*
X145427D01*
X146481Y111533D01*
X147426Y112078D01*
X148197Y112850D01*
X148743Y113795D01*
X149025Y114848D01*
Y115939D01*
X148743Y116993D01*
X148197Y117938D01*
X147426Y118709D01*
X146481Y119255D01*
X145427Y119537D01*
D02*
G37*
G36*
X101983Y100343D02*
X101167D01*
X100379Y100131D01*
X99672Y99724D01*
X99095Y99147D01*
X98687Y98440D01*
X98613Y98162D01*
X92205D01*
X91912Y98103D01*
X91854Y98092D01*
X91556Y97893D01*
X88661Y94998D01*
X88463Y94700D01*
X88393Y94349D01*
Y70552D01*
X88114Y70477D01*
X87408Y70069D01*
X86831Y69492D01*
X86423Y68786D01*
X86212Y67998D01*
Y67182D01*
X86423Y66394D01*
X86831Y65687D01*
X87408Y65110D01*
X88114Y64703D01*
X88902Y64491D01*
X89718D01*
X90506Y64703D01*
X91213Y65110D01*
X91790Y65687D01*
X92198Y66394D01*
X92409Y67182D01*
Y67998D01*
X92198Y68786D01*
X91790Y69492D01*
X91213Y70069D01*
X90506Y70477D01*
X90228Y70552D01*
Y93969D01*
X92585Y96327D01*
X98613D01*
X98687Y96048D01*
X99095Y95342D01*
X99672Y94765D01*
X100379Y94357D01*
X101167Y94146D01*
X101983D01*
X102771Y94357D01*
X103477Y94765D01*
X104054Y95342D01*
X104462Y96048D01*
X104673Y96836D01*
Y97652D01*
X104462Y98440D01*
X104054Y99147D01*
X103477Y99724D01*
X102771Y100131D01*
X101983Y100343D01*
D02*
G37*
G36*
X145781Y99616D02*
X143983D01*
X142206Y99334D01*
X140496Y98779D01*
X138893Y97962D01*
X137438Y96905D01*
X136166Y95633D01*
X135109Y94178D01*
X134292Y92575D01*
X133737Y90865D01*
X133455Y89088D01*
Y87290D01*
X133737Y85513D01*
X134292Y83803D01*
X135109Y82200D01*
X136166Y80745D01*
X137438Y79473D01*
X138893Y78416D01*
X140496Y77599D01*
X142206Y77044D01*
X143983Y76762D01*
X145781D01*
X147558Y77044D01*
X149268Y77599D01*
X150871Y78416D01*
X152326Y79473D01*
X153598Y80745D01*
X154655Y82200D01*
X155472Y83803D01*
X156027Y85513D01*
X156309Y87290D01*
Y89088D01*
X156027Y90865D01*
X155472Y92575D01*
X154655Y94178D01*
X153598Y95633D01*
X152326Y96905D01*
X150871Y97962D01*
X149268Y98779D01*
X147558Y99334D01*
X145781Y99616D01*
D02*
G37*
G36*
X197840Y29734D02*
X195861D01*
X193919Y29348D01*
X192090Y28590D01*
X190445Y27490D01*
X189045Y26091D01*
X187945Y24445D01*
X187188Y22616D01*
X186802Y20675D01*
Y18695D01*
X187188Y16754D01*
X187945Y14925D01*
X189045Y13279D01*
X190445Y11880D01*
X192090Y10780D01*
X193919Y10022D01*
X195861Y9636D01*
X197840D01*
X199782Y10022D01*
X201610Y10780D01*
X203256Y11880D01*
X204656Y13279D01*
X205755Y14925D01*
X206513Y16754D01*
X206899Y18695D01*
Y20675D01*
X206513Y22616D01*
X205755Y24445D01*
X204656Y26091D01*
X203256Y27490D01*
X201610Y28590D01*
X199782Y29348D01*
X197840Y29734D01*
D02*
G37*
G36*
X40360D02*
X38380D01*
X36439Y29348D01*
X34610Y28590D01*
X32964Y27490D01*
X31565Y26091D01*
X30465Y24445D01*
X29707Y22616D01*
X29321Y20675D01*
Y18695D01*
X29707Y16754D01*
X30465Y14925D01*
X31565Y13279D01*
X32964Y11880D01*
X34610Y10780D01*
X36439Y10022D01*
X38380Y9636D01*
X40360D01*
X42301Y10022D01*
X44130Y10780D01*
X45776Y11880D01*
X47175Y13279D01*
X48275Y14925D01*
X49033Y16754D01*
X49419Y18695D01*
Y20675D01*
X49033Y22616D01*
X48275Y24445D01*
X47175Y26091D01*
X45776Y27490D01*
X44130Y28590D01*
X42301Y29348D01*
X40360Y29734D01*
D02*
G37*
%LPD*%
D46*
X89310Y94349D02*
X92205Y97244D01*
X101575D01*
X89310Y67590D02*
Y94349D01*
D56*
X145197Y159134D02*
D03*
X144882Y88189D02*
D03*
X193504Y123701D02*
D03*
D57*
X144882Y115394D02*
D03*
X169882D02*
D03*
Y131929D02*
D03*
D58*
X144882D02*
D03*
D59*
X39370Y19685D02*
D03*
Y216535D02*
D03*
X196850D02*
D03*
Y19685D02*
D03*
D60*
X75122Y95472D02*
D03*
X14961Y105315D02*
D03*
X20472Y97441D02*
D03*
Y89567D02*
D03*
Y146653D02*
D03*
X61417Y187008D02*
D03*
X107480Y211811D02*
D03*
X138189Y217717D02*
D03*
X104739Y134843D02*
D03*
X101575Y97244D02*
D03*
X89310Y67590D02*
D03*
X59842Y72835D02*
D03*
X109055Y53543D02*
D03*
X83465Y70472D02*
D03*
X125591Y29528D02*
D03*
X120079Y100394D02*
D03*
X120122Y86505D02*
D03*
X4724Y47638D02*
D03*
X4724Y188583D02*
D03*
M02*
