M48
;Layer_Color=9474304
;FILE_FORMAT=2:5
INCH,LZ
;TYPE=PLATED
T01F00S00C0.02800
T02F00S00C0.04724
T03F00S00C0.15748
;TYPE=NON_PLATED
T04F00S00C0.17717
%
T01
X0004724Y0047638
X0020472Y0089567
Y0097441
X0014961Y0105315
X0075122Y0095472
X0101575Y0097244
X0120079Y0100394
X0120122Y0086505
X0109055Y0053543
X008931Y006759
X0083465Y0070472
X0059842Y0072835
X0104739Y0134843
X0125591Y0029528
X010748Y0211811
X0061417Y0187008
X0004724Y0188583
X0020472Y0146653
X0138189Y0217717
T02
X0144882Y0115394
Y0131929
X0169882
Y0115394
T03
X0144882Y0088189
X0193504Y0123701
X0145197Y0159134
T04
X019685Y0019685
X003937
Y0216535
X019685
M30
