G04*
G04 #@! TF.GenerationSoftware,Altium Limited,Altium Designer,24.2.2 (26)*
G04*
G04 Layer_Physical_Order=2*
G04 Layer_Color=16711680*
%FSLAX25Y25*%
%MOIN*%
G70*
G04*
G04 #@! TF.SameCoordinates,A429EB9D-CF2C-4BE8-93C1-183C4CBB5CAF*
G04*
G04*
G04 #@! TF.FilePolarity,Positive*
G04*
G01*
G75*
%ADD50C,0.06102*%
%ADD51R,0.06102X0.06102*%
%ADD56C,0.00600*%
%ADD60C,0.06000*%
%ADD61C,0.20256*%
%ADD62C,0.07087*%
%ADD63R,0.07087X0.07087*%
%ADD64C,0.17717*%
%ADD65C,0.05000*%
G36*
X377707Y235488D02*
X380098Y234848D01*
X382385Y233900D01*
X384529Y232663D01*
X386492Y231156D01*
X388243Y229406D01*
X389750Y227442D01*
X390987Y225299D01*
X391934Y223012D01*
X392575Y220621D01*
X392898Y218167D01*
Y216929D01*
Y20079D01*
Y18841D01*
X392575Y16387D01*
X391934Y13996D01*
X390987Y11709D01*
X389750Y9566D01*
X388243Y7602D01*
X386492Y5852D01*
X384529Y4345D01*
X382385Y3107D01*
X380098Y2160D01*
X377707Y1519D01*
X375253Y1197D01*
X18447D01*
X15993Y1519D01*
X13602Y2160D01*
X11316Y3107D01*
X9172Y4345D01*
X7208Y5852D01*
X5458Y7602D01*
X3951Y9566D01*
X2714Y11709D01*
X1767Y13996D01*
X1126Y16387D01*
X803Y18841D01*
Y20079D01*
Y216929D01*
Y218167D01*
X1126Y220621D01*
X1767Y223012D01*
X2714Y225299D01*
X3951Y227442D01*
X5458Y229406D01*
X7208Y231156D01*
X9172Y232663D01*
X11316Y233900D01*
X13602Y234848D01*
X15993Y235488D01*
X18447Y235811D01*
X375253D01*
X377707Y235488D01*
D02*
G37*
%LPC*%
G36*
X355281Y226181D02*
X353381D01*
X351517Y225810D01*
X349762Y225083D01*
X348182Y224028D01*
X346838Y222684D01*
X345783Y221104D01*
X345056Y219349D01*
X344685Y217485D01*
Y215585D01*
X345056Y213722D01*
X345783Y211966D01*
X346838Y210387D01*
X348182Y209043D01*
X349762Y207988D01*
X351517Y207260D01*
X353381Y206890D01*
X355281D01*
X357144Y207260D01*
X358900Y207988D01*
X360479Y209043D01*
X361823Y210387D01*
X362879Y211966D01*
X363606Y213722D01*
X363976Y215585D01*
Y217485D01*
X363606Y219349D01*
X362879Y221104D01*
X361823Y222684D01*
X360479Y224028D01*
X358900Y225083D01*
X357144Y225810D01*
X355281Y226181D01*
D02*
G37*
G36*
X40320D02*
X38420D01*
X36557Y225810D01*
X34801Y225083D01*
X33221Y224028D01*
X31878Y222684D01*
X30822Y221104D01*
X30095Y219349D01*
X29724Y217485D01*
Y215585D01*
X30095Y213722D01*
X30822Y211966D01*
X31878Y210387D01*
X33221Y209043D01*
X34801Y207988D01*
X36557Y207260D01*
X38420Y206890D01*
X40320D01*
X42184Y207260D01*
X43939Y207988D01*
X45519Y209043D01*
X46862Y210387D01*
X47918Y211966D01*
X48645Y213722D01*
X49016Y215585D01*
Y217485D01*
X48645Y219349D01*
X47918Y221104D01*
X46862Y222684D01*
X45519Y224028D01*
X43939Y225083D01*
X42184Y225810D01*
X40320Y226181D01*
D02*
G37*
G36*
X62344Y179799D02*
X62311D01*
Y176248D01*
X65862D01*
Y176281D01*
X65586Y177312D01*
X65053Y178235D01*
X64298Y178990D01*
X63375Y179523D01*
X62344Y179799D01*
D02*
G37*
G36*
X61311D02*
X61278D01*
X60247Y179523D01*
X59324Y178990D01*
X58569Y178235D01*
X58036Y177312D01*
X57760Y176281D01*
Y176248D01*
X61311D01*
Y179799D01*
D02*
G37*
G36*
X65862Y175248D02*
X62311D01*
Y171697D01*
X62344D01*
X63375Y171973D01*
X64298Y172506D01*
X65053Y173260D01*
X65586Y174184D01*
X65862Y175215D01*
Y175248D01*
D02*
G37*
G36*
X61311D02*
X57760D01*
Y175215D01*
X58036Y174184D01*
X58569Y173260D01*
X59324Y172506D01*
X60247Y171973D01*
X61278Y171697D01*
X61311D01*
Y175248D01*
D02*
G37*
G36*
X62292Y169399D02*
X61330D01*
X60402Y169150D01*
X59569Y168670D01*
X58889Y167990D01*
X58409Y167157D01*
X58160Y166229D01*
Y165267D01*
X58409Y164339D01*
X58889Y163506D01*
X59569Y162826D01*
X60402Y162346D01*
X61330Y162097D01*
X62292D01*
X63220Y162346D01*
X64053Y162826D01*
X64733Y163506D01*
X65213Y164339D01*
X65462Y165267D01*
Y166229D01*
X65213Y167157D01*
X64733Y167990D01*
X64053Y168670D01*
X63220Y169150D01*
X62292Y169399D01*
D02*
G37*
G36*
X65462Y159399D02*
X58160D01*
Y152097D01*
X65462D01*
Y159399D01*
D02*
G37*
G36*
X303718Y170177D02*
X302030D01*
X300362Y169913D01*
X298756Y169391D01*
X297251Y168624D01*
X295885Y167632D01*
X294691Y166438D01*
X293699Y165071D01*
X292932Y163567D01*
X292410Y161961D01*
X292146Y160293D01*
Y158605D01*
X292410Y156937D01*
X292932Y155331D01*
X293699Y153826D01*
X294691Y152460D01*
X295885Y151266D01*
X297251Y150274D01*
X298756Y149507D01*
X300362Y148985D01*
X302030Y148721D01*
X303718D01*
X305386Y148985D01*
X306992Y149507D01*
X308497Y150274D01*
X309863Y151266D01*
X311057Y152460D01*
X312049Y153826D01*
X312816Y155331D01*
X313338Y156937D01*
X313602Y158605D01*
Y160293D01*
X313338Y161961D01*
X312816Y163567D01*
X312049Y165071D01*
X311057Y166438D01*
X309863Y167632D01*
X308497Y168624D01*
X306992Y169391D01*
X305386Y169913D01*
X303718Y170177D01*
D02*
G37*
G36*
X307102Y136787D02*
X303059D01*
Y132744D01*
X307102D01*
Y136787D01*
D02*
G37*
G36*
X302059D02*
X298016D01*
Y132744D01*
X302059D01*
Y136787D01*
D02*
G37*
G36*
X328104Y136387D02*
X327014D01*
X325960Y136105D01*
X325015Y135560D01*
X324244Y134788D01*
X323698Y133843D01*
X323416Y132790D01*
Y131699D01*
X323698Y130645D01*
X324244Y129700D01*
X325015Y128929D01*
X325960Y128383D01*
X327014Y128101D01*
X328104D01*
X329158Y128383D01*
X330103Y128929D01*
X330874Y129700D01*
X331420Y130645D01*
X331702Y131699D01*
Y132790D01*
X331420Y133843D01*
X330874Y134788D01*
X330103Y135560D01*
X329158Y136105D01*
X328104Y136387D01*
D02*
G37*
G36*
X307102Y131744D02*
X303059D01*
Y127701D01*
X307102D01*
Y131744D01*
D02*
G37*
G36*
X302059D02*
X298016D01*
Y127701D01*
X302059D01*
Y131744D01*
D02*
G37*
G36*
X352025Y134744D02*
X350337D01*
X348669Y134479D01*
X347063Y133958D01*
X345558Y133191D01*
X344192Y132199D01*
X342998Y131005D01*
X342006Y129638D01*
X341239Y128134D01*
X340717Y126528D01*
X340453Y124860D01*
Y123171D01*
X340717Y121504D01*
X341239Y119898D01*
X342006Y118393D01*
X342998Y117027D01*
X344192Y115833D01*
X345558Y114840D01*
X347063Y114074D01*
X348669Y113552D01*
X350337Y113288D01*
X352025D01*
X353693Y113552D01*
X355299Y114074D01*
X356804Y114840D01*
X358170Y115833D01*
X359364Y117027D01*
X360356Y118393D01*
X361123Y119898D01*
X361645Y121504D01*
X361909Y123171D01*
Y124860D01*
X361645Y126528D01*
X361123Y128134D01*
X360356Y129638D01*
X359364Y131005D01*
X358170Y132199D01*
X356804Y133191D01*
X355299Y133958D01*
X353693Y134479D01*
X352025Y134744D01*
D02*
G37*
G36*
X328104Y119852D02*
X327014D01*
X325960Y119570D01*
X325015Y119024D01*
X324244Y118253D01*
X323698Y117308D01*
X323416Y116254D01*
Y115163D01*
X323698Y114109D01*
X324244Y113165D01*
X325015Y112393D01*
X325960Y111848D01*
X327014Y111565D01*
X328104D01*
X329158Y111848D01*
X330103Y112393D01*
X330874Y113165D01*
X331420Y114109D01*
X331702Y115163D01*
Y116254D01*
X331420Y117308D01*
X330874Y118253D01*
X330103Y119024D01*
X329158Y119570D01*
X328104Y119852D01*
D02*
G37*
G36*
X303104D02*
X302014D01*
X300960Y119570D01*
X300015Y119024D01*
X299244Y118253D01*
X298698Y117308D01*
X298416Y116254D01*
Y115163D01*
X298698Y114109D01*
X299244Y113165D01*
X300015Y112393D01*
X300960Y111848D01*
X302014Y111565D01*
X303104D01*
X304158Y111848D01*
X305103Y112393D01*
X305874Y113165D01*
X306420Y114109D01*
X306702Y115163D01*
Y116254D01*
X306420Y117308D01*
X305874Y118253D01*
X305103Y119024D01*
X304158Y119570D01*
X303104Y119852D01*
D02*
G37*
G36*
X37219Y137508D02*
X36403D01*
X35615Y137297D01*
X34909Y136889D01*
X34332Y136312D01*
X33924Y135605D01*
X33713Y134817D01*
Y134002D01*
X33924Y133213D01*
X34332Y132507D01*
X34909Y131930D01*
X35365Y131667D01*
Y131089D01*
X34909Y130826D01*
X34332Y130249D01*
X33924Y129542D01*
X33713Y128754D01*
Y127938D01*
X33924Y127150D01*
X34332Y126444D01*
X34909Y125867D01*
X35615Y125459D01*
X36403Y125248D01*
X37219D01*
X38007Y125459D01*
X38713Y125867D01*
X39290Y126444D01*
X39698Y127150D01*
X39773Y127429D01*
X73188D01*
X74673Y125944D01*
Y122275D01*
X72725Y120327D01*
X65514D01*
X65439Y120605D01*
X65031Y121312D01*
X64455Y121889D01*
X63748Y122297D01*
X62960Y122508D01*
X62144D01*
X61356Y122297D01*
X60650Y121889D01*
X60073Y121312D01*
X59665Y120605D01*
X59454Y119817D01*
Y119001D01*
X59665Y118213D01*
X60073Y117507D01*
X60650Y116930D01*
X61356Y116522D01*
X62144Y116311D01*
X62960D01*
X63748Y116522D01*
X64455Y116930D01*
X65031Y117507D01*
X65439Y118213D01*
X65514Y118492D01*
X73105D01*
X73456Y118562D01*
X73754Y118761D01*
X76239Y121246D01*
X76438Y121544D01*
X76508Y121895D01*
Y126324D01*
X76438Y126675D01*
X76239Y126973D01*
X74217Y128995D01*
X73919Y129194D01*
X73568Y129264D01*
X39773D01*
X39698Y129542D01*
X39290Y130249D01*
X38713Y130826D01*
X38257Y131089D01*
Y131667D01*
X38713Y131930D01*
X39290Y132507D01*
X39698Y133213D01*
X39773Y133492D01*
X78951D01*
X79004Y133439D01*
Y112191D01*
X78314Y111501D01*
X65470D01*
X65396Y111780D01*
X64988Y112486D01*
X64411Y113063D01*
X63704Y113471D01*
X62916Y113682D01*
X62100D01*
X61313Y113471D01*
X60606Y113063D01*
X60029Y112486D01*
X59621Y111780D01*
X59410Y110992D01*
Y110176D01*
X59621Y109388D01*
X60029Y108681D01*
X60606Y108104D01*
X61313Y107696D01*
X62100Y107485D01*
X62916D01*
X63704Y107696D01*
X64411Y108104D01*
X64988Y108681D01*
X65396Y109388D01*
X65470Y109666D01*
X78694D01*
X79045Y109736D01*
X79343Y109935D01*
X80570Y111162D01*
X80769Y111460D01*
X80839Y111811D01*
Y133819D01*
X80769Y134170D01*
X80570Y134468D01*
X79980Y135058D01*
X79682Y135257D01*
X79331Y135327D01*
X39773D01*
X39698Y135605D01*
X39290Y136312D01*
X38713Y136889D01*
X38007Y137297D01*
X37219Y137508D01*
D02*
G37*
G36*
X237424Y101544D02*
X236608D01*
X235820Y101333D01*
X235114Y100925D01*
X234537Y100348D01*
X234129Y99642D01*
X234054Y99363D01*
X228703D01*
X228351Y99294D01*
X228054Y99095D01*
X226600Y97641D01*
X226401Y97343D01*
X226331Y96992D01*
Y87647D01*
X226401Y87296D01*
X226600Y86998D01*
X228255Y85343D01*
X228553Y85144D01*
X228904Y85074D01*
X231392D01*
X231467Y84796D01*
X231875Y84089D01*
X232452Y83513D01*
X233158Y83104D01*
X233946Y82893D01*
X234762D01*
X235550Y83104D01*
X236257Y83513D01*
X236833Y84089D01*
X237241Y84796D01*
X237453Y85584D01*
Y86400D01*
X237241Y87188D01*
X236833Y87894D01*
X236257Y88471D01*
X235550Y88879D01*
X234762Y89090D01*
X233946D01*
X233158Y88879D01*
X232452Y88471D01*
X231875Y87894D01*
X231467Y87188D01*
X231392Y86909D01*
X229284D01*
X228166Y88028D01*
Y96612D01*
X229083Y97528D01*
X234054D01*
X234129Y97250D01*
X234537Y96543D01*
X235114Y95967D01*
X235820Y95559D01*
X236608Y95347D01*
X237424D01*
X238212Y95559D01*
X238919Y95967D01*
X239496Y96543D01*
X239904Y97250D01*
X240115Y98038D01*
Y98854D01*
X239904Y99642D01*
X239496Y100348D01*
X238919Y100925D01*
X238212Y101333D01*
X237424Y101544D01*
D02*
G37*
G36*
X303403Y99232D02*
X301715D01*
X300047Y98968D01*
X298441Y98446D01*
X296936Y97679D01*
X295570Y96687D01*
X294376Y95493D01*
X293384Y94127D01*
X292617Y92622D01*
X292095Y91016D01*
X291831Y89348D01*
Y87660D01*
X292095Y85992D01*
X292617Y84386D01*
X293384Y82881D01*
X294376Y81515D01*
X295570Y80321D01*
X296936Y79329D01*
X298441Y78562D01*
X300047Y78040D01*
X301715Y77776D01*
X303403D01*
X305071Y78040D01*
X306677Y78562D01*
X308182Y79329D01*
X309548Y80321D01*
X310742Y81515D01*
X311734Y82881D01*
X312501Y84386D01*
X313023Y85992D01*
X313287Y87660D01*
Y89348D01*
X313023Y91016D01*
X312501Y92622D01*
X311734Y94127D01*
X310742Y95493D01*
X309548Y96687D01*
X308182Y97679D01*
X306677Y98446D01*
X305071Y98968D01*
X303403Y99232D01*
D02*
G37*
G36*
X105481Y71131D02*
X104519D01*
X103591Y70883D01*
X102758Y70402D01*
X102078Y69722D01*
X101598Y68890D01*
X101349Y67961D01*
Y67000D01*
X101598Y66071D01*
X102078Y65238D01*
X102758Y64559D01*
X103591Y64078D01*
X104519Y63829D01*
X105481D01*
X106409Y64078D01*
X107242Y64559D01*
X107922Y65238D01*
X108402Y66071D01*
X108651Y67000D01*
Y67961D01*
X108402Y68890D01*
X107922Y69722D01*
X107242Y70402D01*
X106409Y70883D01*
X105481Y71131D01*
D02*
G37*
G36*
X98651D02*
X91349D01*
Y63829D01*
X98651D01*
Y71131D01*
D02*
G37*
G36*
X105481Y61132D02*
X104519D01*
X103591Y60883D01*
X102758Y60402D01*
X102078Y59722D01*
X101598Y58890D01*
X101349Y57961D01*
Y57000D01*
X101598Y56071D01*
X102078Y55238D01*
X102758Y54559D01*
X103591Y54078D01*
X104519Y53829D01*
X105481D01*
X106409Y54078D01*
X107242Y54559D01*
X107922Y55238D01*
X108402Y56071D01*
X108651Y57000D01*
Y57961D01*
X108402Y58890D01*
X107922Y59722D01*
X107242Y60402D01*
X106409Y60883D01*
X105481Y61132D01*
D02*
G37*
G36*
X95481D02*
X94519D01*
X93591Y60883D01*
X92758Y60402D01*
X92078Y59722D01*
X91598Y58890D01*
X91349Y57961D01*
Y57000D01*
X91598Y56071D01*
X92078Y55238D01*
X92758Y54559D01*
X93591Y54078D01*
X94519Y53829D01*
X95481D01*
X96409Y54078D01*
X97242Y54559D01*
X97922Y55238D01*
X98402Y56071D01*
X98651Y57000D01*
Y57961D01*
X98402Y58890D01*
X97922Y59722D01*
X97242Y60402D01*
X96409Y60883D01*
X95481Y61132D01*
D02*
G37*
G36*
X105481Y51131D02*
X104519D01*
X103591Y50883D01*
X102758Y50402D01*
X102078Y49722D01*
X101598Y48890D01*
X101349Y47961D01*
Y47000D01*
X101598Y46071D01*
X102078Y45238D01*
X102758Y44559D01*
X103591Y44078D01*
X104519Y43829D01*
X105481D01*
X106409Y44078D01*
X107242Y44559D01*
X107922Y45238D01*
X108402Y46071D01*
X108651Y47000D01*
Y47961D01*
X108402Y48890D01*
X107922Y49722D01*
X107242Y50402D01*
X106409Y50883D01*
X105481Y51131D01*
D02*
G37*
G36*
X95481D02*
X94519D01*
X93591Y50883D01*
X92758Y50402D01*
X92078Y49722D01*
X91598Y48890D01*
X91349Y47961D01*
Y47000D01*
X91598Y46071D01*
X92078Y45238D01*
X92758Y44559D01*
X93591Y44078D01*
X94519Y43829D01*
X95481D01*
X96409Y44078D01*
X97242Y44559D01*
X97922Y45238D01*
X98402Y46071D01*
X98651Y47000D01*
Y47961D01*
X98402Y48890D01*
X97922Y49722D01*
X97242Y50402D01*
X96409Y50883D01*
X95481Y51131D01*
D02*
G37*
G36*
X355281Y29331D02*
X353381D01*
X351517Y28960D01*
X349762Y28233D01*
X348182Y27177D01*
X346838Y25834D01*
X345783Y24254D01*
X345056Y22499D01*
X344685Y20635D01*
Y18735D01*
X345056Y16872D01*
X345783Y15116D01*
X346838Y13536D01*
X348182Y12193D01*
X349762Y11137D01*
X351517Y10410D01*
X353381Y10039D01*
X355281D01*
X357144Y10410D01*
X358900Y11137D01*
X360479Y12193D01*
X361823Y13536D01*
X362879Y15116D01*
X363606Y16872D01*
X363976Y18735D01*
Y20635D01*
X363606Y22499D01*
X362879Y24254D01*
X361823Y25834D01*
X360479Y27177D01*
X358900Y28233D01*
X357144Y28960D01*
X355281Y29331D01*
D02*
G37*
G36*
X40320D02*
X38420D01*
X36557Y28960D01*
X34801Y28233D01*
X33221Y27177D01*
X31878Y25834D01*
X30822Y24254D01*
X30095Y22499D01*
X29724Y20635D01*
Y18735D01*
X30095Y16872D01*
X30822Y15116D01*
X31878Y13536D01*
X33221Y12193D01*
X34801Y11137D01*
X36557Y10410D01*
X38420Y10039D01*
X40320D01*
X42184Y10410D01*
X43939Y11137D01*
X45519Y12193D01*
X46862Y13536D01*
X47918Y15116D01*
X48645Y16872D01*
X49016Y18735D01*
Y20635D01*
X48645Y22499D01*
X47918Y24254D01*
X46862Y25834D01*
X45519Y27177D01*
X43939Y28233D01*
X42184Y28960D01*
X40320Y29331D01*
D02*
G37*
%LPD*%
D50*
X95000Y57480D02*
D03*
Y47480D02*
D03*
X105000Y67480D02*
D03*
Y57480D02*
D03*
Y47480D02*
D03*
X61811Y175748D02*
D03*
Y165748D02*
D03*
D51*
X95000Y67480D02*
D03*
X61811Y155748D02*
D03*
D56*
X227249Y96992D02*
X228703Y98446D01*
X237016D01*
X227249Y87647D02*
Y96992D01*
Y87647D02*
X228904Y85992D01*
X234354D01*
X36811Y128347D02*
X73568D01*
X78694Y110584D02*
X79921Y111811D01*
Y133819D01*
X36811Y134409D02*
X79331D01*
X62508Y110584D02*
X78694D01*
X79331Y134409D02*
X79921Y133819D01*
X73568Y128347D02*
X75590Y126324D01*
X62552Y119409D02*
X73105D01*
X75590Y121895D02*
Y126324D01*
X73105Y119409D02*
X75590Y121895D01*
D60*
X354331Y19685D02*
D03*
X39370D02*
D03*
X354331Y216535D02*
D03*
D61*
X302874Y159449D02*
D03*
X302559Y88504D02*
D03*
X351181Y124016D02*
D03*
D62*
X302559Y115709D02*
D03*
X327559D02*
D03*
Y132244D02*
D03*
D63*
X302559D02*
D03*
D64*
X39370Y216535D02*
D03*
D65*
X237016Y98446D02*
D03*
X234354Y85992D02*
D03*
X36811Y134409D02*
D03*
X247835Y115833D02*
D03*
X205118Y206693D02*
D03*
X51925Y25984D02*
D03*
X36811Y128347D02*
D03*
X62552Y119409D02*
D03*
X62508Y110584D02*
D03*
X122485Y94370D02*
D03*
X109449Y147395D02*
D03*
X122485Y144095D02*
D03*
X264217Y198622D02*
D03*
X236221Y160236D02*
D03*
X277209Y66133D02*
D03*
X286221Y29921D02*
D03*
X175591Y61949D02*
D03*
X146850Y61614D02*
D03*
X79331Y81496D02*
D03*
X49606Y181142D02*
D03*
X36811Y96850D02*
D03*
X28150Y55905D02*
D03*
X277165Y100787D02*
D03*
X36811Y175591D02*
D03*
M02*
