G04*
G04 #@! TF.GenerationSoftware,Altium Limited,Altium Designer,24.2.2 (26)*
G04*
G04 Layer_Color=8388736*
%FSLAX25Y25*%
%MOIN*%
G70*
G04*
G04 #@! TF.SameCoordinates,A429EB9D-CF2C-4BE8-93C1-183C4CBB5CAF*
G04*
G04*
G04 #@! TF.FilePolarity,Negative*
G04*
G01*
G75*
G04:AMPARAMS|DCode=17|XSize=86.79mil|YSize=23.94mil|CornerRadius=11.97mil|HoleSize=0mil|Usage=FLASHONLY|Rotation=0.000|XOffset=0mil|YOffset=0mil|HoleType=Round|Shape=RoundedRectangle|*
%AMROUNDEDRECTD17*
21,1,0.08679,0.00000,0,0,0.0*
21,1,0.06285,0.02394,0,0,0.0*
1,1,0.02394,0.03143,0.00000*
1,1,0.02394,-0.03143,0.00000*
1,1,0.02394,-0.03143,0.00000*
1,1,0.02394,0.03143,0.00000*
%
%ADD17ROUNDEDRECTD17*%
%ADD18R,0.08679X0.02394*%
%ADD26R,0.04921X0.04331*%
%ADD27R,0.07087X0.05276*%
%ADD28R,0.03740X0.05315*%
%ADD29R,0.07874X0.15748*%
%ADD30R,0.05756X0.05542*%
%ADD31R,0.05315X0.03740*%
%ADD32R,0.07480X0.17323*%
%ADD35R,0.08274X0.22054*%
G04:AMPARAMS|DCode=36|XSize=27.62mil|YSize=61.09mil|CornerRadius=4.01mil|HoleSize=0mil|Usage=FLASHONLY|Rotation=90.000|XOffset=0mil|YOffset=0mil|HoleType=Round|Shape=RoundedRectangle|*
%AMROUNDEDRECTD36*
21,1,0.02762,0.05307,0,0,90.0*
21,1,0.01961,0.06109,0,0,90.0*
1,1,0.00802,0.02653,0.00980*
1,1,0.00802,0.02653,-0.00980*
1,1,0.00802,-0.02653,-0.00980*
1,1,0.00802,-0.02653,0.00980*
%
%ADD36ROUNDEDRECTD36*%
%ADD37O,0.10636X0.03156*%
%ADD38R,0.06109X0.05124*%
%ADD39R,0.04534X0.06109*%
%ADD40R,0.06502X0.05912*%
%ADD41R,0.05715X0.04337*%
%ADD42R,0.05124X0.06109*%
%ADD43R,0.10636X0.07487*%
%ADD44R,0.09061X0.02762*%
%ADD45R,0.04534X0.04140*%
%ADD46R,0.11424X0.12211*%
%ADD47C,0.06400*%
%ADD48R,0.06502X0.06502*%
%ADD49C,0.06502*%
%ADD50C,0.06102*%
%ADD51R,0.06102X0.06102*%
%ADD52C,0.20656*%
%ADD53C,0.07487*%
%ADD54R,0.07487X0.07487*%
%ADD55C,0.18117*%
G36*
X222785Y25084D02*
Y25000D01*
X223039D01*
Y24915D01*
X223546D01*
Y24831D01*
X224477D01*
Y24746D01*
X225493D01*
Y24661D01*
X226508D01*
Y24577D01*
X227523D01*
Y24492D01*
X228539D01*
Y24408D01*
X229555D01*
Y24323D01*
X230485D01*
Y24238D01*
X230824D01*
Y24154D01*
X231162D01*
Y24069D01*
X231416D01*
Y23984D01*
X231670D01*
Y23900D01*
X231839D01*
Y23815D01*
X232009D01*
Y23731D01*
X232178D01*
Y23646D01*
X232347D01*
Y23561D01*
X232432D01*
Y23477D01*
X232601D01*
Y23392D01*
X232770D01*
Y23307D01*
X232855D01*
Y23223D01*
X232939D01*
Y23138D01*
X233109D01*
Y23054D01*
X233193D01*
Y22969D01*
X233278D01*
Y22884D01*
X233363D01*
Y22800D01*
X233447D01*
Y22715D01*
X233532D01*
Y22630D01*
X233616D01*
Y22546D01*
X233701D01*
Y22461D01*
X233786D01*
Y22377D01*
X233870D01*
Y22292D01*
X233955D01*
Y22207D01*
X234039D01*
Y22038D01*
X234124D01*
Y21953D01*
X234209D01*
Y21784D01*
X234293D01*
Y21700D01*
X234378D01*
Y21530D01*
X234463D01*
Y21446D01*
X234547D01*
Y21276D01*
X234632D01*
Y21107D01*
X234717D01*
Y20938D01*
X234801D01*
Y20684D01*
X234886D01*
Y20515D01*
X234970D01*
Y20261D01*
X235055D01*
Y19923D01*
X235140D01*
Y19499D01*
X235224D01*
Y17638D01*
X235140D01*
Y17215D01*
X235055D01*
Y16961D01*
X234970D01*
Y16707D01*
X234886D01*
Y16453D01*
X234801D01*
Y16199D01*
X234717D01*
Y16030D01*
X234632D01*
Y15861D01*
X234547D01*
Y15776D01*
X234463D01*
Y15607D01*
X234378D01*
Y15438D01*
X234293D01*
Y15353D01*
X234209D01*
Y15184D01*
X234124D01*
Y15099D01*
X234039D01*
Y15014D01*
X233955D01*
Y14845D01*
X233870D01*
Y14761D01*
X233786D01*
Y14676D01*
X233701D01*
Y14591D01*
X233616D01*
Y14507D01*
X233532D01*
Y14422D01*
X233447D01*
Y14337D01*
X233363D01*
Y14253D01*
X233278D01*
Y14168D01*
X233193D01*
Y14084D01*
X233024D01*
Y13999D01*
X232939D01*
Y13914D01*
X232855D01*
Y13830D01*
X232685D01*
Y13745D01*
X232601D01*
Y13660D01*
X232432D01*
Y13576D01*
X232262D01*
Y13491D01*
X232178D01*
Y13407D01*
X232009D01*
Y13322D01*
X231755D01*
Y13237D01*
X231585D01*
Y13153D01*
X231332D01*
Y13068D01*
X231078D01*
Y12983D01*
X230739D01*
Y12899D01*
X230316D01*
Y12814D01*
X222277D01*
Y14422D01*
X222192D01*
Y14761D01*
X222108D01*
Y15014D01*
X222023D01*
Y15184D01*
X221938D01*
Y15438D01*
X221854D01*
Y15522D01*
X221769D01*
Y15691D01*
X221685D01*
Y15861D01*
X221600D01*
Y15945D01*
X221515D01*
Y16030D01*
X221431D01*
Y16115D01*
X221346D01*
Y16284D01*
X221262D01*
Y16368D01*
X221177D01*
Y16453D01*
X221092D01*
Y16538D01*
X220923D01*
Y16622D01*
X220838D01*
Y16707D01*
X220754D01*
Y16792D01*
X220585D01*
Y16876D01*
X220500D01*
Y16961D01*
X220331D01*
Y17045D01*
X220161D01*
Y17130D01*
X219992D01*
Y17215D01*
X219738D01*
Y17299D01*
X219400D01*
Y17384D01*
X218807D01*
Y17469D01*
X218384D01*
Y17384D01*
X217792D01*
Y17299D01*
X217454D01*
Y17215D01*
X217200D01*
Y17130D01*
X217030D01*
Y17045D01*
X216861D01*
Y16961D01*
X216692D01*
Y16876D01*
X216523D01*
Y16792D01*
X216438D01*
Y16707D01*
X216353D01*
Y16622D01*
X216184D01*
Y16538D01*
X216100D01*
Y16453D01*
X216015D01*
Y16368D01*
X215930D01*
Y16284D01*
X215846D01*
Y16199D01*
X215761D01*
Y16115D01*
X215676D01*
Y15945D01*
X215592D01*
Y15861D01*
X215507D01*
Y15691D01*
X215423D01*
Y15607D01*
X215338D01*
Y15438D01*
X215253D01*
Y15268D01*
X215169D01*
Y15099D01*
X215084D01*
Y14845D01*
X214999D01*
Y14507D01*
X214915D01*
Y12814D01*
X213053D01*
Y17299D01*
X213138D01*
Y17722D01*
X213222D01*
Y18061D01*
X213307D01*
Y18315D01*
X213392D01*
Y18569D01*
X213476D01*
Y18738D01*
X213561D01*
Y18907D01*
X213645D01*
Y19076D01*
X213730D01*
Y19246D01*
X213815D01*
Y19415D01*
X213899D01*
Y19499D01*
X213984D01*
Y19669D01*
X214069D01*
Y19753D01*
X214153D01*
Y19923D01*
X214238D01*
Y20007D01*
X214322D01*
Y20092D01*
X214407D01*
Y20176D01*
X214492D01*
Y20261D01*
X214576D01*
Y20346D01*
X214661D01*
Y20430D01*
X214745D01*
Y20515D01*
X214830D01*
Y20599D01*
X214915D01*
Y20684D01*
X214999D01*
Y20769D01*
X215084D01*
Y20853D01*
X215169D01*
Y20938D01*
X215338D01*
Y21023D01*
X215423D01*
Y21107D01*
X215592D01*
Y21192D01*
X215676D01*
Y21276D01*
X215846D01*
Y21361D01*
X216015D01*
Y21446D01*
X216184D01*
Y21530D01*
X216353D01*
Y21615D01*
X216523D01*
Y21700D01*
X216776D01*
Y21784D01*
X217030D01*
Y21869D01*
X217369D01*
Y21953D01*
X217877D01*
Y22038D01*
X219315D01*
Y21953D01*
X219823D01*
Y21869D01*
X220161D01*
Y21784D01*
X220415D01*
Y21700D01*
X220585D01*
Y21615D01*
X220838D01*
Y21530D01*
X221008D01*
Y21446D01*
X221177D01*
Y21361D01*
X221346D01*
Y21276D01*
X221431D01*
Y21192D01*
X221600D01*
Y21107D01*
X221769D01*
Y21023D01*
X221854D01*
Y20938D01*
X221938D01*
Y20853D01*
X222108D01*
Y20769D01*
X222192D01*
Y20684D01*
X222277D01*
Y20599D01*
X222362D01*
Y20515D01*
X222446D01*
Y20430D01*
X222531D01*
Y20346D01*
X222615D01*
Y20261D01*
X222700D01*
Y20176D01*
X222785D01*
Y20092D01*
X222869D01*
Y20007D01*
X222954D01*
Y19838D01*
X223039D01*
Y19753D01*
X223123D01*
Y19669D01*
X223208D01*
Y19499D01*
X223292D01*
Y19330D01*
X223377D01*
Y19246D01*
X223462D01*
Y19076D01*
X223546D01*
Y18907D01*
X223631D01*
Y18738D01*
X223715D01*
Y18484D01*
X223800D01*
Y18315D01*
X223885D01*
Y17976D01*
X223969D01*
Y17638D01*
X224054D01*
Y17215D01*
X224139D01*
Y14168D01*
X224731D01*
Y14253D01*
X225154D01*
Y14337D01*
X225493D01*
Y14422D01*
X225746D01*
Y14507D01*
X225916D01*
Y14591D01*
X226085D01*
Y14676D01*
X226254D01*
Y14761D01*
X226424D01*
Y14845D01*
X226508D01*
Y14930D01*
X226677D01*
Y15014D01*
X226762D01*
Y15099D01*
X226931D01*
Y15184D01*
X227016D01*
Y15268D01*
X227100D01*
Y15353D01*
X227185D01*
Y15438D01*
X227270D01*
Y15522D01*
X227354D01*
Y15607D01*
X227439D01*
Y15691D01*
X227523D01*
Y15776D01*
X227608D01*
Y15945D01*
X227693D01*
Y16030D01*
X227777D01*
Y16199D01*
X227862D01*
Y16284D01*
X227947D01*
Y16453D01*
X228031D01*
Y16622D01*
X228116D01*
Y16792D01*
X228201D01*
Y16961D01*
X228285D01*
Y17215D01*
X228370D01*
Y17553D01*
X228454D01*
Y17976D01*
X228539D01*
Y19246D01*
X228454D01*
Y19669D01*
X228370D01*
Y19923D01*
X228285D01*
Y20176D01*
X228201D01*
Y20346D01*
X228116D01*
Y20515D01*
X228031D01*
Y20684D01*
X227947D01*
Y20853D01*
X227862D01*
Y21023D01*
X227777D01*
Y21107D01*
X227693D01*
Y21192D01*
X227608D01*
Y21361D01*
X227523D01*
Y21446D01*
X227439D01*
Y21530D01*
X227354D01*
Y21615D01*
X227270D01*
Y21700D01*
X227185D01*
Y21784D01*
X227100D01*
Y21869D01*
X227016D01*
Y21953D01*
X226931D01*
Y22038D01*
X226847D01*
Y22123D01*
X226677D01*
Y22207D01*
X226593D01*
Y22292D01*
X226424D01*
Y22377D01*
X226254D01*
Y22461D01*
X226170D01*
Y22546D01*
X226000D01*
Y22630D01*
X225746D01*
Y22715D01*
X225493D01*
Y22800D01*
X225239D01*
Y22884D01*
X224816D01*
Y22969D01*
X223969D01*
Y23054D01*
X222869D01*
Y23138D01*
X221854D01*
Y23223D01*
X220838D01*
Y23307D01*
X219823D01*
Y23392D01*
X218723D01*
Y23477D01*
X217877D01*
Y23561D01*
X217454D01*
Y23646D01*
X217200D01*
Y23731D01*
X216861D01*
Y23815D01*
X216692D01*
Y23900D01*
X216438D01*
Y23984D01*
X216269D01*
Y24069D01*
X216100D01*
Y24154D01*
X215930D01*
Y24238D01*
X215846D01*
Y24323D01*
X215676D01*
Y24408D01*
X215592D01*
Y24492D01*
X215423D01*
Y24577D01*
X215338D01*
Y24661D01*
X215253D01*
Y24746D01*
X215084D01*
Y24831D01*
X214999D01*
Y24915D01*
X214915D01*
Y25000D01*
X214830D01*
Y25084D01*
X214745D01*
Y25169D01*
X214661D01*
Y25254D01*
X214576D01*
Y25338D01*
X214492D01*
Y25423D01*
X214407D01*
Y25508D01*
X214322D01*
Y25677D01*
X214238D01*
Y25762D01*
X214153D01*
Y25846D01*
X214069D01*
Y26015D01*
X213984D01*
Y26100D01*
X213899D01*
Y26269D01*
X213815D01*
Y26439D01*
X213730D01*
Y26523D01*
X213645D01*
Y26692D01*
X213561D01*
Y26946D01*
X213476D01*
Y27115D01*
X213392D01*
Y27369D01*
X213307D01*
Y27623D01*
X213222D01*
Y27962D01*
X213138D01*
Y28385D01*
X213053D01*
Y30077D01*
X213138D01*
Y30500D01*
X213222D01*
Y30839D01*
X213307D01*
Y31093D01*
X213392D01*
Y31347D01*
X213476D01*
Y31516D01*
X213561D01*
Y31770D01*
X213645D01*
Y31939D01*
X213730D01*
Y32024D01*
X213815D01*
Y32193D01*
X213899D01*
Y32362D01*
X213984D01*
Y32447D01*
X214069D01*
Y32616D01*
X214153D01*
Y32701D01*
X214238D01*
Y32785D01*
X214322D01*
Y32954D01*
X214407D01*
Y33039D01*
X214492D01*
Y33124D01*
X214576D01*
Y33208D01*
X214661D01*
Y33293D01*
X214745D01*
Y33378D01*
X214830D01*
Y33462D01*
X214915D01*
Y33547D01*
X214999D01*
Y33631D01*
X215084D01*
Y33716D01*
X215253D01*
Y33801D01*
X215338D01*
Y33885D01*
X215423D01*
Y33970D01*
X215592D01*
Y34055D01*
X215676D01*
Y34139D01*
X215846D01*
Y34224D01*
X215930D01*
Y34308D01*
X216100D01*
Y34393D01*
X216269D01*
Y34478D01*
X216438D01*
Y34562D01*
X216692D01*
Y34647D01*
X216861D01*
Y34732D01*
X217115D01*
Y34816D01*
X217454D01*
Y34901D01*
X217877D01*
Y34985D01*
X226000D01*
Y33462D01*
X226085D01*
Y33039D01*
X226170D01*
Y32785D01*
X226254D01*
Y32616D01*
X226339D01*
Y32447D01*
X226424D01*
Y32278D01*
X226508D01*
Y32108D01*
X226593D01*
Y32024D01*
X226677D01*
Y31854D01*
X226762D01*
Y31770D01*
X226847D01*
Y31685D01*
X226931D01*
Y31600D01*
X227016D01*
Y31516D01*
X227100D01*
Y31431D01*
X227185D01*
Y31347D01*
X227270D01*
Y31262D01*
X227354D01*
Y31177D01*
X227439D01*
Y31093D01*
X227523D01*
Y31008D01*
X227693D01*
Y30924D01*
X227862D01*
Y30839D01*
X227947D01*
Y30754D01*
X228116D01*
Y30670D01*
X228370D01*
Y30585D01*
X228624D01*
Y30500D01*
X228877D01*
Y30416D01*
X230485D01*
Y30500D01*
X230824D01*
Y30585D01*
X231078D01*
Y30670D01*
X231247D01*
Y30754D01*
X231416D01*
Y30839D01*
X231585D01*
Y30924D01*
X231670D01*
Y31008D01*
X231839D01*
Y31093D01*
X231924D01*
Y31177D01*
X232093D01*
Y31262D01*
X232178D01*
Y31347D01*
X232262D01*
Y31431D01*
X232347D01*
Y31516D01*
X232432D01*
Y31600D01*
X232516D01*
Y31685D01*
X232601D01*
Y31854D01*
X232685D01*
Y31939D01*
X232770D01*
Y32108D01*
X232855D01*
Y32193D01*
X232939D01*
Y32362D01*
X233024D01*
Y32531D01*
X233109D01*
Y32701D01*
X233193D01*
Y32954D01*
X233278D01*
Y33293D01*
X233363D01*
Y33970D01*
X233447D01*
Y34901D01*
X233363D01*
Y34985D01*
X235224D01*
Y30500D01*
X235140D01*
Y30077D01*
X235055D01*
Y29739D01*
X234970D01*
Y29485D01*
X234886D01*
Y29231D01*
X234801D01*
Y29062D01*
X234717D01*
Y28893D01*
X234632D01*
Y28723D01*
X234547D01*
Y28554D01*
X234463D01*
Y28385D01*
X234378D01*
Y28300D01*
X234293D01*
Y28131D01*
X234209D01*
Y28046D01*
X234124D01*
Y27877D01*
X234039D01*
Y27793D01*
X233955D01*
Y27708D01*
X233870D01*
Y27623D01*
X233786D01*
Y27539D01*
X233701D01*
Y27454D01*
X233616D01*
Y27369D01*
X233532D01*
Y27285D01*
X233447D01*
Y27200D01*
X233363D01*
Y27115D01*
X233278D01*
Y27031D01*
X233193D01*
Y26946D01*
X233024D01*
Y26862D01*
X232939D01*
Y26777D01*
X232855D01*
Y26692D01*
X232685D01*
Y26608D01*
X232601D01*
Y26523D01*
X232432D01*
Y26439D01*
X232262D01*
Y26354D01*
X232093D01*
Y26269D01*
X231924D01*
Y26185D01*
X231670D01*
Y26100D01*
X231501D01*
Y26015D01*
X231162D01*
Y25931D01*
X230824D01*
Y25846D01*
X230316D01*
Y25762D01*
X229047D01*
Y25846D01*
X228539D01*
Y25931D01*
X228201D01*
Y26015D01*
X227947D01*
Y26100D01*
X227693D01*
Y26185D01*
X227439D01*
Y26269D01*
X227270D01*
Y26354D01*
X227100D01*
Y26439D01*
X226931D01*
Y26523D01*
X226847D01*
Y26608D01*
X226677D01*
Y26692D01*
X226593D01*
Y26777D01*
X226424D01*
Y26862D01*
X226339D01*
Y26946D01*
X226254D01*
Y27031D01*
X226085D01*
Y27115D01*
X226000D01*
Y27200D01*
X225916D01*
Y27285D01*
X225831D01*
Y27369D01*
X225746D01*
Y27454D01*
X225662D01*
Y27539D01*
X225577D01*
Y27623D01*
X225493D01*
Y27708D01*
X225408D01*
Y27877D01*
X225323D01*
Y27962D01*
X225239D01*
Y28046D01*
X225154D01*
Y28216D01*
X225069D01*
Y28300D01*
X224985D01*
Y28469D01*
X224900D01*
Y28554D01*
X224816D01*
Y28723D01*
X224731D01*
Y28893D01*
X224646D01*
Y29062D01*
X224562D01*
Y29316D01*
X224477D01*
Y29570D01*
X224393D01*
Y29823D01*
X224308D01*
Y30162D01*
X224223D01*
Y30670D01*
X224139D01*
Y33631D01*
X223462D01*
Y33547D01*
X223039D01*
Y33462D01*
X222785D01*
Y33378D01*
X222531D01*
Y33293D01*
X222362D01*
Y33208D01*
X222192D01*
Y33124D01*
X222023D01*
Y33039D01*
X221854D01*
Y32954D01*
X221685D01*
Y32870D01*
X221600D01*
Y32785D01*
X221515D01*
Y32701D01*
X221346D01*
Y32616D01*
X221262D01*
Y32531D01*
X221177D01*
Y32447D01*
X221092D01*
Y32362D01*
X221008D01*
Y32278D01*
X220923D01*
Y32193D01*
X220838D01*
Y32108D01*
X220754D01*
Y32024D01*
X220669D01*
Y31854D01*
X220585D01*
Y31770D01*
X220500D01*
Y31685D01*
X220415D01*
Y31516D01*
X220331D01*
Y31347D01*
X220246D01*
Y31177D01*
X220161D01*
Y31008D01*
X220077D01*
Y30839D01*
X219992D01*
Y30585D01*
X219907D01*
Y30246D01*
X219823D01*
Y29823D01*
X219738D01*
Y28639D01*
X219823D01*
Y28216D01*
X219907D01*
Y27877D01*
X219992D01*
Y27623D01*
X220077D01*
Y27454D01*
X220161D01*
Y27285D01*
X220246D01*
Y27115D01*
X220331D01*
Y26946D01*
X220415D01*
Y26777D01*
X220500D01*
Y26692D01*
X220585D01*
Y26608D01*
X220669D01*
Y26439D01*
X220754D01*
Y26354D01*
X220838D01*
Y26269D01*
X220923D01*
Y26185D01*
X221008D01*
Y26100D01*
X221092D01*
Y26015D01*
X221177D01*
Y25931D01*
X221262D01*
Y25846D01*
X221346D01*
Y25762D01*
X221515D01*
Y25677D01*
X221600D01*
Y25592D01*
X221685D01*
Y25508D01*
X221854D01*
Y25423D01*
X222023D01*
Y25338D01*
X222192D01*
Y25254D01*
X222362D01*
Y25169D01*
X222531D01*
Y25084D01*
X222700D01*
X222785D01*
D02*
G37*
G36*
X116227Y227726D02*
X116809D01*
Y227643D01*
X117225D01*
Y227560D01*
X117558D01*
Y227477D01*
X117808D01*
Y227394D01*
X117974D01*
Y227310D01*
X118224D01*
Y227227D01*
X118390D01*
Y227144D01*
X118557D01*
Y227061D01*
X118723D01*
Y226977D01*
X118806D01*
Y226894D01*
X118973D01*
Y226811D01*
X119056D01*
Y226728D01*
X119222D01*
Y226645D01*
X119306D01*
Y226561D01*
X119389D01*
Y226478D01*
X119472D01*
Y226395D01*
X119555D01*
Y226312D01*
X119639D01*
Y226228D01*
X119722D01*
Y226145D01*
X119805D01*
Y226062D01*
X119888D01*
Y225979D01*
X119971D01*
Y225896D01*
X120055D01*
Y225813D01*
X120138D01*
Y225646D01*
X120221D01*
Y225563D01*
X120304D01*
Y225396D01*
X120387D01*
Y225230D01*
X120471D01*
Y225063D01*
X120554D01*
Y224897D01*
X120637D01*
Y224731D01*
X120720D01*
Y224564D01*
X120803D01*
Y224315D01*
X120887D01*
Y223982D01*
X120970D01*
Y223566D01*
X121053D01*
Y221652D01*
X120970D01*
Y221152D01*
X120887D01*
Y220903D01*
X120803D01*
Y220653D01*
X120720D01*
Y220404D01*
X120637D01*
Y220237D01*
X120554D01*
Y219988D01*
X120471D01*
Y219821D01*
X120387D01*
Y219738D01*
X120304D01*
Y219571D01*
X120221D01*
Y219405D01*
X120138D01*
Y219322D01*
X120055D01*
Y219155D01*
X119971D01*
Y218989D01*
X119888D01*
Y218906D01*
X119805D01*
Y218739D01*
X119722D01*
Y218656D01*
X119639D01*
Y218406D01*
X119555D01*
Y218240D01*
X119639D01*
Y218074D01*
X119722D01*
Y217990D01*
X119805D01*
Y217907D01*
X119971D01*
Y217824D01*
X120138D01*
Y217741D01*
X120387D01*
Y217657D01*
X120803D01*
Y217574D01*
X121552D01*
Y217491D01*
X122551D01*
Y217574D01*
X123466D01*
Y217657D01*
X123966D01*
Y217741D01*
X124382D01*
Y217824D01*
X124798D01*
Y217907D01*
X125131D01*
Y217990D01*
X125380D01*
Y218074D01*
X125713D01*
Y218157D01*
X125963D01*
Y218240D01*
X126212D01*
Y218323D01*
X126462D01*
Y218406D01*
X126628D01*
Y218490D01*
X126878D01*
Y218573D01*
X127045D01*
Y218656D01*
X127211D01*
Y218739D01*
X127461D01*
Y218823D01*
X127627D01*
Y218906D01*
X127794D01*
Y218989D01*
X127960D01*
Y219072D01*
X128043D01*
Y219155D01*
X128210D01*
Y219238D01*
X128376D01*
Y219322D01*
X128542D01*
Y219405D01*
X128709D01*
Y219488D01*
X128792D01*
Y219571D01*
X128958D01*
Y219655D01*
X129208D01*
Y219738D01*
X129375D01*
Y219821D01*
X129707D01*
Y219904D01*
X129957D01*
Y219821D01*
X130207D01*
Y219738D01*
X130290D01*
Y219655D01*
X130373D01*
Y219488D01*
X130456D01*
Y219322D01*
X130540D01*
Y219155D01*
X130623D01*
Y218906D01*
X130706D01*
Y218573D01*
X130789D01*
Y218240D01*
X130872D01*
Y217741D01*
X130956D01*
Y216992D01*
X131039D01*
Y215161D01*
X131122D01*
Y215078D01*
X131039D01*
Y213663D01*
X130956D01*
Y213081D01*
X130872D01*
Y212665D01*
X130789D01*
Y212249D01*
X130706D01*
Y211999D01*
X130623D01*
Y211666D01*
X130540D01*
Y211416D01*
X130456D01*
Y211167D01*
X130373D01*
Y210917D01*
X130290D01*
Y210751D01*
X130207D01*
Y210584D01*
X130123D01*
Y210335D01*
X130040D01*
Y210168D01*
X129957D01*
Y210002D01*
X129874D01*
Y209835D01*
X129791D01*
Y209752D01*
X129707D01*
Y209586D01*
X129624D01*
Y209419D01*
X129541D01*
Y209336D01*
X129458D01*
Y209170D01*
X129375D01*
Y209086D01*
X129291D01*
Y208920D01*
X129208D01*
Y208837D01*
X129125D01*
Y208670D01*
X129042D01*
Y208587D01*
X128958D01*
Y208504D01*
X128875D01*
Y208421D01*
X128792D01*
Y208254D01*
X128709D01*
Y208171D01*
X128626D01*
Y208088D01*
X128542D01*
Y208005D01*
X128459D01*
Y207921D01*
X128376D01*
Y207838D01*
X128293D01*
Y207755D01*
X128210D01*
Y207672D01*
X128126D01*
Y207589D01*
X128043D01*
Y207505D01*
X127960D01*
Y207422D01*
X127877D01*
Y207339D01*
X127794D01*
Y207256D01*
X127627D01*
Y207172D01*
X127544D01*
Y207089D01*
X127461D01*
Y207006D01*
X127377D01*
Y206923D01*
X127211D01*
Y206840D01*
X127128D01*
Y206756D01*
X127045D01*
Y206673D01*
X126878D01*
Y206590D01*
X126795D01*
Y206507D01*
X126628D01*
Y206424D01*
X126462D01*
Y206340D01*
X126379D01*
Y206257D01*
X126212D01*
Y206174D01*
X126046D01*
Y206091D01*
X125880D01*
Y206008D01*
X125713D01*
Y205924D01*
X125547D01*
Y205841D01*
X125380D01*
Y205758D01*
X125214D01*
Y205675D01*
X125047D01*
Y205591D01*
X124798D01*
Y205508D01*
X124631D01*
Y205425D01*
X124382D01*
Y205342D01*
X124132D01*
Y205259D01*
X123799D01*
Y205175D01*
X123550D01*
Y205092D01*
X123217D01*
Y205009D01*
X122884D01*
Y204926D01*
X122551D01*
Y204842D01*
X122135D01*
Y204759D01*
X121552D01*
Y204676D01*
X120970D01*
Y204593D01*
X119971D01*
Y204510D01*
X117308D01*
Y204593D01*
X116560D01*
Y204676D01*
X115977D01*
Y204759D01*
X115561D01*
Y204842D01*
X115145D01*
Y204926D01*
X114812D01*
Y205009D01*
X114562D01*
Y205092D01*
X114313D01*
Y205175D01*
X114063D01*
Y205259D01*
X113813D01*
Y205342D01*
X113564D01*
Y205425D01*
X113398D01*
Y205508D01*
X113148D01*
Y205591D01*
X112981D01*
Y205675D01*
X112815D01*
Y205758D01*
X112648D01*
Y205841D01*
X112482D01*
Y205924D01*
X112316D01*
Y206008D01*
X112149D01*
Y206091D01*
X111983D01*
Y206174D01*
X111900D01*
Y206257D01*
X111733D01*
Y206340D01*
X111567D01*
Y206424D01*
X111484D01*
Y206507D01*
X111317D01*
Y206590D01*
X111234D01*
Y206673D01*
X111151D01*
Y206756D01*
X110984D01*
Y206840D01*
X110901D01*
Y206923D01*
X110818D01*
Y207006D01*
X110735D01*
Y207089D01*
X110568D01*
Y207172D01*
X110485D01*
Y207256D01*
X110402D01*
Y207339D01*
X110319D01*
Y207422D01*
X110235D01*
Y207505D01*
X110152D01*
Y207589D01*
X110069D01*
Y207672D01*
X109986D01*
Y207755D01*
X109903D01*
Y207838D01*
X109819D01*
Y207921D01*
X109736D01*
Y208088D01*
X109653D01*
Y208171D01*
X109570D01*
Y208254D01*
X109486D01*
Y208337D01*
X109403D01*
Y208504D01*
X109320D01*
Y208587D01*
X109237D01*
Y208754D01*
X109153D01*
Y208837D01*
X109070D01*
Y209003D01*
X108987D01*
Y209086D01*
X108904D01*
Y209253D01*
X108821D01*
Y209419D01*
X108738D01*
Y209586D01*
X108654D01*
Y209752D01*
X108571D01*
Y210002D01*
X108488D01*
Y210168D01*
X108405D01*
Y210418D01*
X108321D01*
Y210751D01*
X108238D01*
Y211084D01*
X108155D01*
Y211749D01*
X108072D01*
Y212498D01*
X108155D01*
Y213081D01*
X108238D01*
Y213497D01*
X108321D01*
Y213746D01*
X108405D01*
Y213996D01*
X108488D01*
Y214162D01*
X108571D01*
Y214412D01*
X108654D01*
Y214579D01*
X108738D01*
Y214745D01*
X108821D01*
Y214828D01*
X108904D01*
Y214995D01*
X108987D01*
Y215078D01*
X109070D01*
Y215244D01*
X109153D01*
Y215328D01*
X109237D01*
Y215494D01*
X109320D01*
Y215577D01*
X109403D01*
Y215660D01*
X109486D01*
Y215744D01*
X109570D01*
Y215910D01*
X109653D01*
Y215993D01*
X109736D01*
Y216076D01*
X109819D01*
Y216160D01*
X109903D01*
Y216243D01*
X109986D01*
Y216326D01*
X110069D01*
Y216409D01*
X110152D01*
Y216493D01*
X110235D01*
Y216576D01*
X110402D01*
Y216659D01*
X110485D01*
Y216742D01*
X110568D01*
Y216825D01*
X110651D01*
Y216909D01*
X110735D01*
Y216992D01*
X110818D01*
Y217075D01*
X110984D01*
Y217158D01*
X111067D01*
Y217325D01*
X111151D01*
Y217408D01*
X111234D01*
Y217491D01*
X111317D01*
Y217574D01*
X111400D01*
Y217824D01*
X111484D01*
Y218157D01*
X111400D01*
Y218323D01*
X111317D01*
Y218406D01*
X111234D01*
Y218573D01*
X111151D01*
Y218656D01*
X111067D01*
Y218739D01*
X110984D01*
Y218823D01*
X110901D01*
Y218906D01*
X110818D01*
Y218989D01*
X110735D01*
Y219072D01*
X109736D01*
Y219155D01*
X109153D01*
Y219238D01*
X108821D01*
Y219322D01*
X108405D01*
Y219405D01*
X108072D01*
Y219488D01*
X107822D01*
Y219571D01*
X107489D01*
Y219655D01*
X107240D01*
Y219738D01*
X106990D01*
Y219821D01*
X106824D01*
Y219904D01*
X106657D01*
Y219988D01*
X106491D01*
Y220071D01*
X106324D01*
Y220154D01*
X106241D01*
Y220237D01*
X106158D01*
Y220320D01*
X106075D01*
Y220404D01*
X105991D01*
Y220487D01*
X105908D01*
Y220570D01*
X105825D01*
Y220653D01*
X105742D01*
Y220820D01*
X105659D01*
Y220986D01*
X105575D01*
Y222068D01*
X105659D01*
Y222234D01*
X105742D01*
Y222401D01*
X105825D01*
Y222484D01*
X105991D01*
Y222567D01*
X107156D01*
Y222650D01*
X107656D01*
Y222733D01*
X107989D01*
Y222817D01*
X108321D01*
Y222900D01*
X108571D01*
Y222983D01*
X108821D01*
Y223066D01*
X108987D01*
Y223150D01*
X109153D01*
Y223233D01*
X109320D01*
Y223316D01*
X109486D01*
Y223399D01*
X109653D01*
Y223482D01*
X109736D01*
Y223732D01*
X109819D01*
Y223982D01*
X109903D01*
Y224148D01*
X109986D01*
Y224315D01*
X110069D01*
Y224564D01*
X110152D01*
Y224731D01*
X110235D01*
Y224814D01*
X110319D01*
Y224980D01*
X110402D01*
Y225147D01*
X110485D01*
Y225230D01*
X110568D01*
Y225396D01*
X110651D01*
Y225480D01*
X110735D01*
Y225646D01*
X110818D01*
Y225729D01*
X110901D01*
Y225813D01*
X110984D01*
Y225896D01*
X111067D01*
Y225979D01*
X111151D01*
Y226062D01*
X111234D01*
Y226145D01*
X111317D01*
Y226228D01*
X111400D01*
Y226312D01*
X111484D01*
Y226395D01*
X111567D01*
Y226478D01*
X111650D01*
Y226561D01*
X111733D01*
Y226645D01*
X111900D01*
Y226728D01*
X111983D01*
Y226811D01*
X112149D01*
Y226894D01*
X112232D01*
Y226977D01*
X112399D01*
Y227061D01*
X112482D01*
Y227144D01*
X112648D01*
Y227227D01*
X112815D01*
Y227310D01*
X113065D01*
Y227394D01*
X113231D01*
Y227477D01*
X113481D01*
Y227560D01*
X113730D01*
Y227643D01*
X114146D01*
Y227726D01*
X114562D01*
Y227810D01*
X116227D01*
Y227726D01*
D02*
G37*
%LPC*%
G36*
X116393Y226977D02*
X114479D01*
Y226894D01*
X114063D01*
Y226811D01*
X113730D01*
Y226728D01*
X113564D01*
Y226645D01*
X113314D01*
Y226561D01*
X113148D01*
Y226478D01*
X112981D01*
Y226395D01*
X112815D01*
Y226312D01*
X112732D01*
Y226228D01*
X112565D01*
Y226145D01*
X112482D01*
Y226062D01*
X112316D01*
Y225979D01*
X112232D01*
Y225896D01*
X112149D01*
Y225813D01*
X112066D01*
Y225729D01*
X111900D01*
Y225646D01*
X111816D01*
Y225563D01*
X111733D01*
Y225480D01*
X111650D01*
Y225313D01*
X111567D01*
Y225230D01*
X111484D01*
Y225147D01*
X111400D01*
Y225063D01*
X111317D01*
Y224897D01*
X111234D01*
Y224814D01*
X111151D01*
Y224647D01*
X111067D01*
Y224564D01*
X110984D01*
Y224398D01*
X110901D01*
Y224231D01*
X110818D01*
Y224065D01*
X110735D01*
Y223899D01*
X110651D01*
Y223649D01*
X110568D01*
Y223399D01*
X110485D01*
Y223066D01*
X110568D01*
Y222900D01*
X110651D01*
Y222733D01*
X110735D01*
Y222650D01*
X110818D01*
Y222484D01*
X110901D01*
Y222401D01*
X110984D01*
Y222318D01*
X111067D01*
Y222151D01*
X111151D01*
Y222068D01*
X111234D01*
Y221985D01*
X111317D01*
Y221818D01*
X111400D01*
Y221735D01*
X111484D01*
Y221568D01*
X111567D01*
Y221485D01*
X111650D01*
Y221319D01*
X111733D01*
Y220986D01*
X111816D01*
Y220736D01*
X111733D01*
Y220320D01*
X111650D01*
Y219988D01*
X111567D01*
Y219738D01*
X111484D01*
Y219571D01*
X111400D01*
Y219488D01*
X111484D01*
Y219405D01*
X111567D01*
Y219322D01*
X111650D01*
Y219155D01*
X111733D01*
Y219072D01*
X111816D01*
Y218989D01*
X111900D01*
Y218906D01*
X111983D01*
Y218739D01*
X112066D01*
Y218656D01*
X112149D01*
Y218490D01*
X112232D01*
Y218157D01*
X112316D01*
Y217824D01*
X112232D01*
Y217491D01*
X112149D01*
Y217325D01*
X112066D01*
Y217158D01*
X111983D01*
Y217075D01*
X111900D01*
Y216909D01*
X111816D01*
Y216825D01*
X111733D01*
Y216742D01*
X111650D01*
Y216659D01*
X111567D01*
Y216576D01*
X111484D01*
Y216493D01*
X111400D01*
Y216409D01*
X111317D01*
Y216326D01*
X111234D01*
Y216243D01*
X111151D01*
Y216160D01*
X111067D01*
Y216076D01*
X110901D01*
Y215993D01*
X110818D01*
Y215910D01*
X110735D01*
Y215827D01*
X110651D01*
Y215744D01*
X110568D01*
Y215660D01*
X110485D01*
Y215577D01*
X110402D01*
Y215494D01*
X110319D01*
Y215411D01*
X110235D01*
Y215328D01*
X110152D01*
Y215244D01*
X110069D01*
Y215161D01*
X109986D01*
Y214995D01*
X109903D01*
Y214911D01*
X109819D01*
Y214745D01*
X109736D01*
Y214662D01*
X109653D01*
Y214495D01*
X109570D01*
Y214412D01*
X109486D01*
Y214246D01*
X109403D01*
Y214079D01*
X109320D01*
Y213913D01*
X109237D01*
Y213663D01*
X109153D01*
Y213414D01*
X109070D01*
Y213164D01*
X108987D01*
Y212665D01*
X108904D01*
Y211500D01*
X108987D01*
Y211084D01*
X109070D01*
Y210751D01*
X109153D01*
Y210501D01*
X109237D01*
Y210251D01*
X109320D01*
Y210085D01*
X109403D01*
Y209919D01*
X109486D01*
Y209752D01*
X109570D01*
Y209586D01*
X109653D01*
Y209419D01*
X109736D01*
Y209336D01*
X109819D01*
Y209170D01*
X109903D01*
Y209086D01*
X109986D01*
Y208920D01*
X110069D01*
Y208837D01*
X110152D01*
Y208754D01*
X110235D01*
Y208670D01*
X110319D01*
Y208504D01*
X110402D01*
Y208421D01*
X110485D01*
Y208337D01*
X110568D01*
Y208254D01*
X110651D01*
Y208171D01*
X110735D01*
Y208088D01*
X110818D01*
Y208005D01*
X110901D01*
Y207921D01*
X110984D01*
Y207838D01*
X111067D01*
Y207755D01*
X111234D01*
Y207672D01*
X111317D01*
Y207589D01*
X111400D01*
Y207505D01*
X111484D01*
Y207422D01*
X111650D01*
Y207339D01*
X111733D01*
Y207256D01*
X111816D01*
Y207172D01*
X111983D01*
Y207089D01*
X112066D01*
Y207006D01*
X112232D01*
Y206923D01*
X112399D01*
Y206840D01*
X112482D01*
Y206756D01*
X112648D01*
Y206673D01*
X112815D01*
Y206590D01*
X112981D01*
Y206507D01*
X113148D01*
Y206424D01*
X113314D01*
Y206340D01*
X113481D01*
Y206257D01*
X113647D01*
Y206174D01*
X113897D01*
Y206091D01*
X114146D01*
Y206008D01*
X114313D01*
Y205924D01*
X114562D01*
Y205841D01*
X114895D01*
Y205758D01*
X115145D01*
Y205675D01*
X115478D01*
Y205591D01*
X115894D01*
Y205508D01*
X116393D01*
Y205425D01*
X117059D01*
Y205342D01*
X120304D01*
Y205425D01*
X121136D01*
Y205508D01*
X121719D01*
Y205591D01*
X122135D01*
Y205675D01*
X122551D01*
Y205758D01*
X122967D01*
Y205841D01*
X123217D01*
Y205924D01*
X123550D01*
Y206008D01*
X123799D01*
Y206091D01*
X124049D01*
Y206174D01*
X124299D01*
Y206257D01*
X124465D01*
Y206340D01*
X124715D01*
Y206424D01*
X124881D01*
Y206507D01*
X125047D01*
Y206590D01*
X125297D01*
Y206673D01*
X125380D01*
Y206756D01*
X125547D01*
Y206840D01*
X125713D01*
Y206923D01*
X125880D01*
Y207006D01*
X126046D01*
Y207089D01*
X126129D01*
Y207172D01*
X126296D01*
Y207256D01*
X126379D01*
Y207339D01*
X126545D01*
Y207422D01*
X126628D01*
Y207505D01*
X126795D01*
Y207589D01*
X126878D01*
Y207672D01*
X126961D01*
Y207755D01*
X127045D01*
Y207838D01*
X127211D01*
Y207921D01*
X127294D01*
Y208005D01*
X127377D01*
Y208088D01*
X127461D01*
Y208171D01*
X127544D01*
Y208254D01*
X127627D01*
Y208337D01*
X127710D01*
Y208421D01*
X127794D01*
Y208504D01*
X127877D01*
Y208587D01*
X127960D01*
Y208670D01*
X128043D01*
Y208754D01*
X128126D01*
Y208837D01*
X128210D01*
Y209003D01*
X128293D01*
Y209086D01*
X128376D01*
Y209170D01*
X128459D01*
Y209253D01*
X128542D01*
Y209419D01*
X128626D01*
Y209503D01*
X128709D01*
Y209669D01*
X128792D01*
Y209752D01*
X128875D01*
Y209919D01*
X128958D01*
Y210085D01*
X129042D01*
Y210251D01*
X129125D01*
Y210335D01*
X129208D01*
Y210501D01*
X129291D01*
Y210667D01*
X129375D01*
Y210917D01*
X129458D01*
Y211084D01*
X129541D01*
Y211333D01*
X129624D01*
Y211500D01*
X129707D01*
Y211749D01*
X129791D01*
Y211999D01*
X129874D01*
Y212332D01*
X129957D01*
Y212665D01*
X130040D01*
Y213081D01*
X130123D01*
Y213580D01*
X130207D01*
Y214329D01*
X130290D01*
Y216243D01*
X130207D01*
Y217241D01*
X130123D01*
Y217824D01*
X130040D01*
Y218240D01*
X129957D01*
Y218573D01*
X129874D01*
Y218823D01*
X129791D01*
Y219072D01*
X129707D01*
Y218989D01*
X129458D01*
Y218906D01*
X129291D01*
Y218823D01*
X129125D01*
Y218739D01*
X128958D01*
Y218656D01*
X128792D01*
Y218573D01*
X128709D01*
Y218490D01*
X128542D01*
Y218406D01*
X128376D01*
Y218323D01*
X128210D01*
Y218240D01*
X128043D01*
Y218157D01*
X127877D01*
Y218074D01*
X127710D01*
Y217990D01*
X127544D01*
Y217907D01*
X127377D01*
Y217824D01*
X127128D01*
Y217741D01*
X126961D01*
Y217657D01*
X126712D01*
Y217574D01*
X126462D01*
Y217491D01*
X126212D01*
Y217408D01*
X125963D01*
Y217325D01*
X125713D01*
Y217241D01*
X125463D01*
Y217158D01*
X125131D01*
Y217075D01*
X124798D01*
Y216992D01*
X124382D01*
Y216909D01*
X123882D01*
Y216825D01*
X123217D01*
Y216742D01*
X120887D01*
Y216825D01*
X120387D01*
Y216909D01*
X120138D01*
Y216992D01*
X119888D01*
Y217075D01*
X119639D01*
Y217158D01*
X119472D01*
Y217241D01*
X119389D01*
Y217325D01*
X119222D01*
Y217408D01*
X119139D01*
Y217491D01*
X119056D01*
Y217574D01*
X118973D01*
Y217741D01*
X118890D01*
Y217907D01*
X118806D01*
Y218739D01*
X118890D01*
Y218906D01*
X118973D01*
Y219072D01*
X119056D01*
Y219238D01*
X119139D01*
Y219322D01*
X119222D01*
Y219488D01*
X119306D01*
Y219571D01*
X119389D01*
Y219738D01*
X119472D01*
Y219904D01*
X119555D01*
Y219988D01*
X119639D01*
Y220154D01*
X119722D01*
Y220320D01*
X119805D01*
Y220487D01*
X119888D01*
Y220653D01*
X119971D01*
Y220903D01*
X120055D01*
Y221152D01*
X120138D01*
Y221568D01*
X120221D01*
Y222151D01*
X120304D01*
Y222733D01*
Y222817D01*
Y223150D01*
X120221D01*
Y223649D01*
X120138D01*
Y223982D01*
X120055D01*
Y224231D01*
X119971D01*
Y224481D01*
X119888D01*
Y224647D01*
X119805D01*
Y224814D01*
X119722D01*
Y224980D01*
X119639D01*
Y225063D01*
X119555D01*
Y225230D01*
X119472D01*
Y225313D01*
X119389D01*
Y225396D01*
X119306D01*
Y225563D01*
X119222D01*
Y225646D01*
X119139D01*
Y225729D01*
X119056D01*
Y225813D01*
X118973D01*
Y225896D01*
X118806D01*
Y225979D01*
X118723D01*
Y226062D01*
X118640D01*
Y226145D01*
X118473D01*
Y226228D01*
X118390D01*
Y226312D01*
X118224D01*
Y226395D01*
X118057D01*
Y226478D01*
X117891D01*
Y226561D01*
X117725D01*
Y226645D01*
X117475D01*
Y226728D01*
X117225D01*
Y226811D01*
X116893D01*
Y226894D01*
X116393D01*
Y226977D01*
D02*
G37*
G36*
X109903Y222567D02*
X109653D01*
Y222484D01*
X109486D01*
Y222401D01*
X109320D01*
Y222318D01*
X109070D01*
Y222234D01*
X108904D01*
Y222151D01*
X108654D01*
Y222068D01*
X108321D01*
Y221985D01*
X107989D01*
Y221901D01*
X107572D01*
Y221818D01*
X106907D01*
Y221735D01*
X106324D01*
Y221319D01*
X106407D01*
Y221152D01*
X106491D01*
Y220986D01*
X106574D01*
Y220903D01*
X106657D01*
Y220820D01*
X106824D01*
Y220736D01*
X106907D01*
Y220653D01*
X107073D01*
Y220570D01*
X107323D01*
Y220487D01*
X107572D01*
Y220404D01*
X107822D01*
Y220320D01*
X108072D01*
Y220237D01*
X108405D01*
Y220154D01*
X108738D01*
Y220071D01*
X109153D01*
Y219988D01*
X109570D01*
Y219904D01*
X110235D01*
Y219821D01*
X110651D01*
Y219904D01*
X110735D01*
Y220071D01*
X110818D01*
Y220320D01*
X110901D01*
Y220653D01*
X110984D01*
Y220986D01*
X110901D01*
Y221152D01*
X110818D01*
Y221236D01*
X110735D01*
Y221402D01*
X110651D01*
Y221485D01*
X110568D01*
Y221568D01*
X110485D01*
Y221735D01*
X110402D01*
Y221818D01*
X110319D01*
Y221901D01*
X110235D01*
Y222068D01*
X110152D01*
Y222151D01*
X110069D01*
Y222318D01*
X109986D01*
Y222401D01*
X109903D01*
Y222567D01*
D02*
G37*
%LPD*%
D17*
X186421Y66949D02*
D03*
Y61949D02*
D03*
Y56949D02*
D03*
Y51949D02*
D03*
X166335D02*
D03*
Y56949D02*
D03*
Y61949D02*
D03*
D18*
Y66949D02*
D03*
D26*
X304232Y29921D02*
D03*
X294980D02*
D03*
D27*
X236221Y153386D02*
D03*
Y142126D02*
D03*
D28*
X79331Y88976D02*
D03*
X73425D02*
D03*
D29*
X51968Y69488D02*
D03*
Y41535D02*
D03*
X264173Y156496D02*
D03*
Y184449D02*
D03*
D30*
X277165Y108644D02*
D03*
Y115748D02*
D03*
Y74392D02*
D03*
Y81496D02*
D03*
D31*
X154724Y61614D02*
D03*
Y55709D02*
D03*
X122441Y137992D02*
D03*
Y132087D02*
D03*
Y100787D02*
D03*
Y106693D02*
D03*
D32*
X205118Y157283D02*
D03*
Y191535D02*
D03*
D35*
X138583Y138386D02*
D03*
Y100984D02*
D03*
D36*
X236221Y114921D02*
D03*
Y119921D02*
D03*
Y124921D02*
D03*
Y129921D02*
D03*
X214764Y114921D02*
D03*
Y119921D02*
D03*
Y124921D02*
D03*
Y129921D02*
D03*
D37*
X73228Y139409D02*
D03*
Y134409D02*
D03*
Y129409D02*
D03*
Y124409D02*
D03*
Y119409D02*
D03*
Y114409D02*
D03*
Y109409D02*
D03*
Y104409D02*
D03*
Y99410D02*
D03*
X109449Y139409D02*
D03*
Y134409D02*
D03*
Y129409D02*
D03*
Y124409D02*
D03*
Y119409D02*
D03*
Y114409D02*
D03*
Y109409D02*
D03*
Y104409D02*
D03*
Y99410D02*
D03*
D38*
X49606Y165748D02*
D03*
Y173622D02*
D03*
D39*
X251083Y81488D02*
D03*
X243799D02*
D03*
X251083Y98228D02*
D03*
X243799D02*
D03*
D40*
X227249Y93472D02*
D03*
Y85992D02*
D03*
D41*
X61811Y104410D02*
D03*
Y97323D02*
D03*
D42*
X313189Y29921D02*
D03*
X319882D02*
D03*
D43*
X18701Y51181D02*
D03*
Y185827D02*
D03*
D44*
X28150Y61417D02*
D03*
Y65354D02*
D03*
Y69291D02*
D03*
Y81102D02*
D03*
Y85039D02*
D03*
Y104724D02*
D03*
Y108661D02*
D03*
Y120472D02*
D03*
Y124409D02*
D03*
Y136221D02*
D03*
Y140157D02*
D03*
Y148031D02*
D03*
Y159843D02*
D03*
Y175591D02*
D03*
Y171653D02*
D03*
Y167717D02*
D03*
Y163779D02*
D03*
Y155905D02*
D03*
Y151969D02*
D03*
Y144095D02*
D03*
Y132283D02*
D03*
Y128347D02*
D03*
Y116535D02*
D03*
Y112598D02*
D03*
Y100787D02*
D03*
Y96850D02*
D03*
Y92913D02*
D03*
Y88976D02*
D03*
Y77165D02*
D03*
Y73228D02*
D03*
D45*
X206299Y129823D02*
D03*
Y135531D02*
D03*
D46*
X179134Y97441D02*
D03*
Y137992D02*
D03*
D47*
X354331Y19685D02*
D03*
X39370D02*
D03*
X354331Y216535D02*
D03*
D48*
X95000Y67480D02*
D03*
D49*
Y57480D02*
D03*
Y47480D02*
D03*
X105000Y67480D02*
D03*
Y57480D02*
D03*
Y47480D02*
D03*
D50*
X61811Y175748D02*
D03*
Y165748D02*
D03*
D51*
Y155748D02*
D03*
D52*
X302874Y159449D02*
D03*
X302559Y88504D02*
D03*
X351181Y124016D02*
D03*
D53*
X302559Y115709D02*
D03*
X327559D02*
D03*
Y132244D02*
D03*
D54*
X302559D02*
D03*
D55*
X39370Y216535D02*
D03*
M02*
