M48
;Layer_Color=9474304
;FILE_FORMAT=2:5
INCH,LZ
;TYPE=PLATED
T01F00S00C0.02800
T02F00S00C0.03937
T03F00S00C0.04016
T04F00S00C0.04724
T05F00S00C0.13504
;TYPE=NON_PLATED
T06F00S00C0.17717
%
T01
X014685Y0061614
X0175591Y0061949
X0234354Y0085992
X0237016Y0098446
X0247835Y0115833
X0277165Y0100787
X0277209Y0066133
X0286221Y0029921
X0122485Y009437
Y0144095
X0062552Y0119409
X0062508Y0110584
X0036811Y009685
Y0128347
Y0134409
X002815Y0055905
X0051925Y0025984
X0079331Y0081496
X0109449Y0147395
X0049606Y0181142
X0036811Y0175591
X0205118Y0206693
X0264217Y0198622
X0236221Y0160236
T02
X0061811Y0155748
Y0165748
Y0175748
T03
X0095Y004748
Y005748
Y006748
X0105
Y005748
Y004748
T04
X0302559Y0115709
Y0132244
X0327559
Y0115709
T05
X0302559Y0088504
X0351181Y0124016
X0302874Y0159449
T06
X0354331Y0019685
X003937
Y0216535
X0354331
M30
