G04*
G04 #@! TF.GenerationSoftware,Altium Limited,Altium Designer,24.2.2 (26)*
G04*
G04 Layer_Color=8421504*
%FSLAX25Y25*%
%MOIN*%
G70*
G04*
G04 #@! TF.SameCoordinates,A429EB9D-CF2C-4BE8-93C1-183C4CBB5CAF*
G04*
G04*
G04 #@! TF.FilePolarity,Positive*
G04*
G01*
G75*
%ADD14R,0.07874X0.21654*%
G04:AMPARAMS|DCode=15|XSize=23.62mil|YSize=57.09mil|CornerRadius=2.01mil|HoleSize=0mil|Usage=FLASHONLY|Rotation=90.000|XOffset=0mil|YOffset=0mil|HoleType=Round|Shape=RoundedRectangle|*
%AMROUNDEDRECTD15*
21,1,0.02362,0.05307,0,0,90.0*
21,1,0.01961,0.05709,0,0,90.0*
1,1,0.00402,0.02653,0.00980*
1,1,0.00402,0.02653,-0.00980*
1,1,0.00402,-0.02653,-0.00980*
1,1,0.00402,-0.02653,0.00980*
%
%ADD15ROUNDEDRECTD15*%
%ADD16O,0.10236X0.02756*%
G04:AMPARAMS|DCode=17|XSize=86.79mil|YSize=23.94mil|CornerRadius=11.97mil|HoleSize=0mil|Usage=FLASHONLY|Rotation=0.000|XOffset=0mil|YOffset=0mil|HoleType=Round|Shape=RoundedRectangle|*
%AMROUNDEDRECTD17*
21,1,0.08679,0.00000,0,0,0.0*
21,1,0.06285,0.02394,0,0,0.0*
1,1,0.02394,0.03143,0.00000*
1,1,0.02394,-0.03143,0.00000*
1,1,0.02394,-0.03143,0.00000*
1,1,0.02394,0.03143,0.00000*
%
%ADD17ROUNDEDRECTD17*%
%ADD18R,0.08679X0.02394*%
%ADD19R,0.05709X0.04724*%
%ADD20R,0.04134X0.05709*%
%ADD21R,0.06102X0.05512*%
%ADD22R,0.05315X0.03937*%
%ADD23R,0.04724X0.05709*%
%ADD24R,0.10236X0.07087*%
%ADD25R,0.08661X0.02362*%
%ADD26R,0.04921X0.04331*%
%ADD27R,0.07087X0.05276*%
%ADD28R,0.03740X0.05315*%
%ADD29R,0.07874X0.15748*%
%ADD30R,0.05756X0.05542*%
%ADD31R,0.05315X0.03740*%
%ADD32R,0.07480X0.17323*%
%ADD33R,0.04134X0.03740*%
%ADD34R,0.11024X0.11811*%
D14*
X138583Y138386D02*
D03*
Y100984D02*
D03*
D15*
X236221Y114921D02*
D03*
Y119921D02*
D03*
Y124921D02*
D03*
Y129921D02*
D03*
X214764Y114921D02*
D03*
Y119921D02*
D03*
Y124921D02*
D03*
Y129921D02*
D03*
D16*
X73228Y139409D02*
D03*
Y134409D02*
D03*
Y129409D02*
D03*
Y124409D02*
D03*
Y119409D02*
D03*
Y114409D02*
D03*
Y109409D02*
D03*
Y104409D02*
D03*
Y99410D02*
D03*
X109449Y139409D02*
D03*
Y134409D02*
D03*
Y129409D02*
D03*
Y124409D02*
D03*
Y119409D02*
D03*
Y114409D02*
D03*
Y109409D02*
D03*
Y104409D02*
D03*
Y99410D02*
D03*
D17*
X186421Y66949D02*
D03*
Y61949D02*
D03*
Y56949D02*
D03*
Y51949D02*
D03*
X166335D02*
D03*
Y56949D02*
D03*
Y61949D02*
D03*
D18*
Y66949D02*
D03*
D19*
X49606Y165748D02*
D03*
Y173622D02*
D03*
D20*
X251083Y81488D02*
D03*
X243799D02*
D03*
X251083Y98228D02*
D03*
X243799D02*
D03*
D21*
X227249Y93472D02*
D03*
Y85992D02*
D03*
D22*
X61811Y104410D02*
D03*
Y97323D02*
D03*
D23*
X313189Y29921D02*
D03*
X319882D02*
D03*
D24*
X18701Y51181D02*
D03*
Y185827D02*
D03*
D25*
X28150Y61417D02*
D03*
Y65354D02*
D03*
Y69291D02*
D03*
Y81102D02*
D03*
Y85039D02*
D03*
Y104724D02*
D03*
Y108661D02*
D03*
Y120472D02*
D03*
Y124409D02*
D03*
Y136221D02*
D03*
Y140157D02*
D03*
Y148031D02*
D03*
Y159843D02*
D03*
Y175591D02*
D03*
Y171653D02*
D03*
Y167717D02*
D03*
Y163779D02*
D03*
Y155905D02*
D03*
Y151969D02*
D03*
Y144095D02*
D03*
Y132283D02*
D03*
Y128347D02*
D03*
Y116535D02*
D03*
Y112598D02*
D03*
Y100787D02*
D03*
Y96850D02*
D03*
Y92913D02*
D03*
Y88976D02*
D03*
Y77165D02*
D03*
Y73228D02*
D03*
D26*
X304232Y29921D02*
D03*
X294980D02*
D03*
D27*
X236221Y153386D02*
D03*
Y142126D02*
D03*
D28*
X79331Y88976D02*
D03*
X73425D02*
D03*
D29*
X51968Y69488D02*
D03*
Y41535D02*
D03*
X264173Y156496D02*
D03*
Y184449D02*
D03*
D30*
X277165Y108644D02*
D03*
Y115748D02*
D03*
Y74392D02*
D03*
Y81496D02*
D03*
D31*
X154724Y61614D02*
D03*
Y55709D02*
D03*
X122441Y137992D02*
D03*
Y132087D02*
D03*
Y100787D02*
D03*
Y106693D02*
D03*
D32*
X205118Y157283D02*
D03*
Y191535D02*
D03*
D33*
X206299Y129823D02*
D03*
Y135531D02*
D03*
D34*
X179134Y97441D02*
D03*
Y137992D02*
D03*
M02*
