G04*
G04 #@! TF.GenerationSoftware,Altium Limited,Altium Designer,24.2.2 (26)*
G04*
G04 Layer_Color=16711833*
%FSLAX25Y25*%
%MOIN*%
G70*
G04*
G04 #@! TF.SameCoordinates,A429EB9D-CF2C-4BE8-93C1-183C4CBB5CAF*
G04*
G04*
G04 #@! TF.FilePolarity,Positive*
G04*
G01*
G75*
%ADD12C,0.01000*%
%ADD56C,0.00600*%
D12*
X-122472Y6000D02*
X-120472Y0D01*
X-118472Y6000D01*
X-120472Y236221D02*
X-118472Y230221D01*
X-122472D02*
X-120472Y236221D01*
Y0D02*
Y104414D01*
Y128607D02*
Y236221D01*
X-121472Y0D02*
X18185D01*
X-121472Y236221D02*
X18185D01*
X435795Y222535D02*
X437795Y216535D01*
X439795Y222535D01*
X437795Y236221D02*
X439795Y230221D01*
X435795D02*
X437795Y236221D01*
Y216535D02*
Y226378D01*
Y236221D01*
X364189Y216535D02*
X438795D01*
X375516Y236221D02*
X438795D01*
X387701Y-93606D02*
X393701Y-91606D01*
X387701Y-89606D02*
X393701Y-91606D01*
X0D02*
X6000Y-89606D01*
X0Y-91606D02*
X6000Y-93606D01*
X209846Y-91606D02*
X393701D01*
X0D02*
X180655D01*
X393701Y-92606D02*
Y18185D01*
X0Y-92606D02*
Y18185D01*
X354331Y248819D02*
X360331Y250819D01*
X354331Y248819D02*
X360331Y246819D01*
X387701D02*
X393701Y248819D01*
X387701Y250819D02*
X393701Y248819D01*
X354331D02*
X360819D01*
X384013D02*
X393701D01*
X354331Y226394D02*
Y249819D01*
X393701Y218035D02*
Y249819D01*
X354331Y-26772D02*
X360331Y-24772D01*
X354331Y-26772D02*
X360331Y-28772D01*
X387701D02*
X393701Y-26772D01*
X387701Y-24772D02*
X393701Y-26772D01*
X354331D02*
X360819D01*
X384013D02*
X393701D01*
X354331Y-27772D02*
Y9827D01*
X393701Y-27772D02*
Y18185D01*
X-34252Y236221D02*
X-32252Y230221D01*
X-36252D02*
X-34252Y236221D01*
X-36252Y222535D02*
X-34252Y216535D01*
X-32252Y222535D01*
X-34252Y226378D02*
Y236221D01*
Y216535D02*
Y226378D01*
X-35252Y236221D02*
X18185D01*
X-35252Y216535D02*
X29512D01*
X33370Y247213D02*
X39370Y249213D01*
X33370Y251213D02*
X39370Y249213D01*
X0D02*
X6000Y251213D01*
X0Y249213D02*
X6000Y247213D01*
X29682Y249213D02*
X39370D01*
X0D02*
X6488D01*
X39370Y226394D02*
Y250213D01*
X0Y218035D02*
Y250213D01*
X33370Y-30740D02*
X39370Y-28740D01*
X33370Y-26740D02*
X39370Y-28740D01*
X0D02*
X6000Y-26740D01*
X0Y-28740D02*
X6000Y-30740D01*
X29682Y-28740D02*
X39370D01*
X0D02*
X6488D01*
X39370Y-29740D02*
Y9827D01*
X0Y-29740D02*
Y18185D01*
X439370Y19685D02*
X441370Y13685D01*
X437370D02*
X439370Y19685D01*
X437370Y6000D02*
X439370Y0D01*
X441370Y6000D01*
X439370Y9843D02*
Y19685D01*
Y0D02*
Y9843D01*
X364189Y19685D02*
X440370D01*
X375516Y0D02*
X440370D01*
X-34646Y19685D02*
X-32646Y13685D01*
X-36646D02*
X-34646Y19685D01*
X-36646Y6000D02*
X-34646Y0D01*
X-32646Y6000D01*
X-34646Y9843D02*
Y19685D01*
Y0D02*
Y9843D01*
X-35646Y19685D02*
X29512D01*
X-35646Y0D02*
X18185D01*
X39370Y273622D02*
X45370Y275622D01*
X39370Y273622D02*
X45370Y271622D01*
X348331D02*
X354331Y273622D01*
X348331Y275622D02*
X354331Y273622D01*
X39370D02*
X183154D01*
X207347D02*
X354331D01*
X39370Y226394D02*
Y274622D01*
X354331Y226394D02*
Y274622D01*
X39370Y-54331D02*
X45370Y-52331D01*
X39370Y-54331D02*
X45370Y-56331D01*
X348331D02*
X354331Y-54331D01*
X348331Y-52331D02*
X354331Y-54331D01*
X39370D02*
X183154D01*
X207347D02*
X354331D01*
X39370Y-55331D02*
Y9827D01*
X354331Y-55331D02*
Y9827D01*
X453118Y25685D02*
X455118Y19685D01*
X457118Y25685D01*
X455118Y216535D02*
X457118Y210535D01*
X453118D02*
X455118Y216535D01*
Y19685D02*
Y104414D01*
Y128607D02*
Y216535D01*
X364189Y19685D02*
X456118D01*
X364189Y216535D02*
X456118D01*
D56*
X-122871Y110012D02*
X-121872Y108013D01*
X-119872Y106014D01*
X-117873D01*
X-116873Y107013D01*
Y109013D01*
X-117873Y110012D01*
X-118873D01*
X-119872Y109013D01*
Y106014D01*
X-116873Y112012D02*
X-117873D01*
Y113011D01*
X-116873D01*
Y112012D01*
X-121872Y117010D02*
X-122871Y118010D01*
Y120009D01*
X-121872Y121009D01*
X-117873D01*
X-116873Y120009D01*
Y118010D01*
X-117873Y117010D01*
X-121872D01*
Y123008D02*
X-122871Y124008D01*
Y126007D01*
X-121872Y127007D01*
X-117873D01*
X-116873Y126007D01*
Y124008D01*
X-117873Y123008D01*
X-121872D01*
X398632Y243000D02*
X399631Y244000D01*
X401630D01*
X402630Y243000D01*
Y239001D01*
X401630Y238002D01*
X399631D01*
X398632Y239001D01*
Y243000D01*
X404630Y238002D02*
Y239001D01*
X405629D01*
Y238002D01*
X404630D01*
X413627Y244000D02*
X409628D01*
Y241001D01*
X411627Y242000D01*
X412627D01*
X413627Y241001D01*
Y239001D01*
X412627Y238002D01*
X410628D01*
X409628Y239001D01*
X415626Y243000D02*
X416626Y244000D01*
X418625D01*
X419625Y243000D01*
Y239001D01*
X418625Y238002D01*
X416626D01*
X415626Y239001D01*
Y243000D01*
X182255Y-95205D02*
X184254D01*
X183254D01*
Y-89207D01*
X182255Y-90207D01*
X187253D02*
X188253Y-89207D01*
X190252D01*
X191252Y-90207D01*
Y-94206D01*
X190252Y-95205D01*
X188253D01*
X187253Y-94206D01*
Y-90207D01*
X193251Y-95205D02*
Y-94206D01*
X194251D01*
Y-95205D01*
X193251D01*
X198249Y-90207D02*
X199249Y-89207D01*
X201249D01*
X202248Y-90207D01*
Y-94206D01*
X201249Y-95205D01*
X199249D01*
X198249Y-94206D01*
Y-90207D01*
X204247D02*
X205247Y-89207D01*
X207246D01*
X208246Y-90207D01*
Y-94206D01*
X207246Y-95205D01*
X205247D01*
X204247Y-94206D01*
Y-90207D01*
X362419Y245220D02*
X364418D01*
X363419D01*
Y251218D01*
X362419Y250218D01*
X367417Y245220D02*
Y246219D01*
X368417D01*
Y245220D01*
X367417D01*
X372416Y250218D02*
X373415Y251218D01*
X375415D01*
X376414Y250218D01*
Y246219D01*
X375415Y245220D01*
X373415D01*
X372416Y246219D01*
Y250218D01*
X378414D02*
X379414Y251218D01*
X381413D01*
X382413Y250218D01*
Y246219D01*
X381413Y245220D01*
X379414D01*
X378414Y246219D01*
Y250218D01*
X362419Y-30371D02*
X364418D01*
X363419D01*
Y-24373D01*
X362419Y-25372D01*
X367417Y-30371D02*
Y-29371D01*
X368417D01*
Y-30371D01*
X367417D01*
X372416Y-25372D02*
X373415Y-24373D01*
X375415D01*
X376414Y-25372D01*
Y-29371D01*
X375415Y-30371D01*
X373415D01*
X372416Y-29371D01*
Y-25372D01*
X378414D02*
X379414Y-24373D01*
X381413D01*
X382413Y-25372D01*
Y-29371D01*
X381413Y-30371D01*
X379414D01*
X378414Y-29371D01*
Y-25372D01*
X-28928Y214653D02*
X-27928Y215653D01*
X-25929D01*
X-24929Y214653D01*
Y210655D01*
X-25929Y209655D01*
X-27928D01*
X-28928Y210655D01*
Y214653D01*
X-22930Y209655D02*
Y210655D01*
X-21930D01*
Y209655D01*
X-22930D01*
X-13932Y215653D02*
X-17931D01*
Y212654D01*
X-15932Y213654D01*
X-14932D01*
X-13932Y212654D01*
Y210655D01*
X-14932Y209655D01*
X-16931D01*
X-17931Y210655D01*
X-11933Y214653D02*
X-10933Y215653D01*
X-8934D01*
X-7934Y214653D01*
Y210655D01*
X-8934Y209655D01*
X-10933D01*
X-11933Y210655D01*
Y214653D01*
X8088Y245614D02*
X10088D01*
X9088D01*
Y251612D01*
X8088Y250612D01*
X13087Y245614D02*
Y246613D01*
X14086D01*
Y245614D01*
X13087D01*
X18085Y250612D02*
X19085Y251612D01*
X21084D01*
X22084Y250612D01*
Y246613D01*
X21084Y245614D01*
X19085D01*
X18085Y246613D01*
Y250612D01*
X24083D02*
X25083Y251612D01*
X27082D01*
X28082Y250612D01*
Y246613D01*
X27082Y245614D01*
X25083D01*
X24083Y246613D01*
Y250612D01*
X8088Y-32339D02*
X10088D01*
X9088D01*
Y-26341D01*
X8088Y-27341D01*
X13087Y-32339D02*
Y-31339D01*
X14086D01*
Y-32339D01*
X13087D01*
X18085Y-27341D02*
X19085Y-26341D01*
X21084D01*
X22084Y-27341D01*
Y-31339D01*
X21084Y-32339D01*
X19085D01*
X18085Y-31339D01*
Y-27341D01*
X24083D02*
X25083Y-26341D01*
X27082D01*
X28082Y-27341D01*
Y-31339D01*
X27082Y-32339D01*
X25083D01*
X24083Y-31339D01*
Y-27341D01*
X398238Y-2669D02*
X399237Y-1670D01*
X401237D01*
X402237Y-2669D01*
Y-6668D01*
X401237Y-7668D01*
X399237D01*
X398238Y-6668D01*
Y-2669D01*
X404236Y-7668D02*
Y-6668D01*
X405235D01*
Y-7668D01*
X404236D01*
X413233Y-1670D02*
X409234D01*
Y-4669D01*
X411234Y-3669D01*
X412233D01*
X413233Y-4669D01*
Y-6668D01*
X412233Y-7668D01*
X410234D01*
X409234Y-6668D01*
X415232Y-2669D02*
X416232Y-1670D01*
X418231D01*
X419231Y-2669D01*
Y-6668D01*
X418231Y-7668D01*
X416232D01*
X415232Y-6668D01*
Y-2669D01*
X-32471Y26465D02*
X-31471Y27464D01*
X-29472D01*
X-28472Y26465D01*
Y22466D01*
X-29472Y21466D01*
X-31471D01*
X-32471Y22466D01*
Y26465D01*
X-26473Y21466D02*
Y22466D01*
X-25473D01*
Y21466D01*
X-26473D01*
X-17476Y27464D02*
X-21474D01*
Y24465D01*
X-19475Y25465D01*
X-18475D01*
X-17476Y24465D01*
Y22466D01*
X-18475Y21466D01*
X-20475D01*
X-21474Y22466D01*
X-15476Y26465D02*
X-14477Y27464D01*
X-12477D01*
X-11478Y26465D01*
Y22466D01*
X-12477Y21466D01*
X-14477D01*
X-15476Y22466D01*
Y26465D01*
X184754Y275021D02*
X185754Y276021D01*
X187753D01*
X188752Y275021D01*
Y274022D01*
X187753Y273022D01*
X188752Y272022D01*
Y271023D01*
X187753Y270023D01*
X185754D01*
X184754Y271023D01*
Y272022D01*
X185754Y273022D01*
X184754Y274022D01*
Y275021D01*
X185754Y273022D02*
X187753D01*
X190752Y270023D02*
Y271023D01*
X191752D01*
Y270023D01*
X190752D01*
X195750Y275021D02*
X196750Y276021D01*
X198749D01*
X199749Y275021D01*
Y271023D01*
X198749Y270023D01*
X196750D01*
X195750Y271023D01*
Y275021D01*
X201748D02*
X202748Y276021D01*
X204747D01*
X205747Y275021D01*
Y271023D01*
X204747Y270023D01*
X202748D01*
X201748Y271023D01*
Y275021D01*
X184754Y-52931D02*
X185754Y-51932D01*
X187753D01*
X188752Y-52931D01*
Y-53931D01*
X187753Y-54931D01*
X188752Y-55930D01*
Y-56930D01*
X187753Y-57930D01*
X185754D01*
X184754Y-56930D01*
Y-55930D01*
X185754Y-54931D01*
X184754Y-53931D01*
Y-52931D01*
X185754Y-54931D02*
X187753D01*
X190752Y-57930D02*
Y-56930D01*
X191752D01*
Y-57930D01*
X190752D01*
X195750Y-52931D02*
X196750Y-51932D01*
X198749D01*
X199749Y-52931D01*
Y-56930D01*
X198749Y-57930D01*
X196750D01*
X195750Y-56930D01*
Y-52931D01*
X201748D02*
X202748Y-51932D01*
X204747D01*
X205747Y-52931D01*
Y-56930D01*
X204747Y-57930D01*
X202748D01*
X201748Y-56930D01*
Y-52931D01*
X452719Y110012D02*
Y106014D01*
X455718D01*
X454718Y108013D01*
Y109013D01*
X455718Y110012D01*
X457718D01*
X458717Y109013D01*
Y107013D01*
X457718Y106014D01*
X458717Y112012D02*
X457718D01*
Y113011D01*
X458717D01*
Y112012D01*
X453719Y117010D02*
X452719Y118010D01*
Y120009D01*
X453719Y121009D01*
X457718D01*
X458717Y120009D01*
Y118010D01*
X457718Y117010D01*
X453719D01*
Y123008D02*
X452719Y124008D01*
Y126007D01*
X453719Y127007D01*
X457718D01*
X458717Y126007D01*
Y124008D01*
X457718Y123008D01*
X453719D01*
M02*
